<?xml version="1.0" encoding="utf-8"?>
<!-- Generator: Adobe Illustrator 16.0.0, SVG Export Plug-In . SVG Version: 6.00 Build 0)  -->
<!DOCTYPE svg PUBLIC "-//W3C//DTD SVG 1.1//EN" "http://www.w3.org/Graphics/SVG/1.1/DTD/svg11.dtd">

<svg version="1.1" id="Layer_1" xmlns="http://www.w3.org/2000/svg" xmlns:xlink="http://www.w3.org/1999/xlink" x="0px" y="0px"
	 width="259.2px" height="144px" viewBox="0 0 259.2 144" enable-background="new 0 0 259.2 144" xml:space="preserve">
<rect x="1" y="0.396" fill="#FFFFFF" stroke="#000000" stroke-width="0.25" stroke-miterlimit="10" width="257.202" height="143.604"/>

	<path d="M106.299,131.885c-0.137,0-0.274,0-0.412,0c-0.013-0.002-0.026-0.01-0.04-0.01c-0.37-0.009-0.736-0.052-1.099-0.119
	c-0.89-0.167-1.715-0.492-2.483-0.974c-0.012-0.009-0.023-0.019-0.046-0.034c0.676,0.078,1.33,0.023,1.972-0.155
	c0.64-0.179,1.223-0.478,1.751-0.886c-1.157-0.094-1.937-0.678-2.349-1.754c0.379,0.061,0.748,0.048,1.114-0.055
	c-1.39-0.317-2.043-1.561-1.997-2.49c0.18,0.064,0.359,0.141,0.545,0.199c0.186,0.062,0.378,0.086,0.573,0.088
	c-0.538-0.387-0.895-0.894-1.041-1.536c-0.144-0.644-0.049-1.257,0.274-1.831c1.371,1.613,3.103,2.499,5.218,2.646
	c-0.083-0.447-0.078-0.686-0.031-0.983c0.091-0.572,0.351-1.06,0.774-1.453c0.379-0.354,0.824-0.57,1.336-0.646
	c0.071-0.012,0.145-0.021,0.217-0.033c0.112,0,0.224,0,0.336,0c0.085,0.013,0.174,0.021,0.26,0.037
	c0.536,0.093,0.998,0.332,1.379,0.721c0.034,0.037,0.064,0.039,0.108,0.029c0.526-0.113,1.023-0.303,1.489-0.57
	c0.012-0.008,0.026-0.014,0.05-0.021c-0.204,0.596-0.568,1.049-1.102,1.387c0.027,0,0.037,0.002,0.045,0
	c0.261-0.056,0.526-0.102,0.785-0.17c0.208-0.058,0.409-0.145,0.613-0.222c0,0.005,0,0.009,0,0.013
	c-0.01,0.008-0.02,0.016-0.026,0.024c-0.33,0.479-0.732,0.896-1.199,1.246c-0.02,0.013-0.034,0.046-0.034,0.067
	c0.009,0.381-0.003,0.759-0.052,1.135c-0.057,0.461-0.156,0.913-0.301,1.355c-0.384,1.176-1.008,2.202-1.898,3.064
	c-0.342,0.329-0.711,0.619-1.115,0.871c-1.074,0.668-2.249,1-3.511,1.047C106.369,131.875,106.334,131.881,106.299,131.885z"/>

<g>
	<path d="M79.731,130.753c0,0.317,0.005,0.644-0.002,0.966c-0.005,0.192-0.177,0.283-0.387,0.215
		c-0.553-0.184-1.062-0.451-1.521-0.813c-1.101-0.857-1.775-1.979-1.983-3.361c-0.388-2.609,1.236-5.066,3.804-5.781
		c2.708-0.752,5.55,0.78,6.409,3.453c0.861,2.685-0.618,5.601-3.291,6.496c-0.262,0.09-0.414-0.021-0.413-0.297
		c0.001-0.391-0.003-0.781,0.004-1.172c0.007-0.415-0.027-0.816-0.341-1.148c0.195-0.035,0.375-0.063,0.552-0.102
		c0.567-0.129,1.067-0.37,1.411-0.863c0.248-0.357,0.366-0.764,0.396-1.191c0.018-0.26,0.02-0.525-0.01-0.782
		c-0.042-0.363-0.203-0.683-0.442-0.961c-0.047-0.058-0.054-0.104-0.032-0.177c0.12-0.409,0.087-0.814-0.064-1.209
		c-0.015-0.039-0.084-0.08-0.126-0.08c-0.252-0.006-0.483,0.076-0.704,0.185c-0.191,0.093-0.37,0.207-0.557,0.306
		c-0.046,0.024-0.11,0.041-0.158,0.029c-0.824-0.199-1.646-0.201-2.47-0.001c-0.05,0.013-0.122-0.005-0.168-0.034
		c-0.344-0.212-0.693-0.406-1.101-0.477c-0.033-0.004-0.066-0.005-0.099-0.012c-0.119-0.021-0.177,0.029-0.212,0.146
		c-0.116,0.391-0.146,0.78-0.027,1.178c0.012,0.034,0,0.092-0.023,0.118c-0.468,0.546-0.552,1.183-0.46,1.863
		c0.058,0.437,0.184,0.845,0.46,1.192c0.34,0.431,0.805,0.646,1.322,0.769c0.181,0.042,0.366,0.069,0.564,0.106
		c-0.176,0.188-0.27,0.406-0.313,0.647c-0.005,0.026-0.046,0.056-0.077,0.067c-0.582,0.25-1.11,0.084-1.448-0.446
		c-0.168-0.269-0.387-0.47-0.705-0.534c-0.076-0.016-0.158-0.018-0.234-0.003c-0.129,0.022-0.145,0.095-0.049,0.188
		c0.034,0.037,0.072,0.07,0.114,0.097c0.282,0.166,0.457,0.421,0.578,0.715c0.199,0.485,0.581,0.699,1.077,0.733
		C79.241,130.794,79.477,130.766,79.731,130.753z"/>
	<path d="M78.355,129.951c0.055,0.07,0.092,0.111,0.119,0.158c0.004,0.008-0.057,0.063-0.061,0.061
		c-0.044-0.027-0.085-0.063-0.117-0.105C78.289,130.055,78.321,130.014,78.355,129.951z"/>
	<path d="M78.748,130.4c-0.041-0.049-0.073-0.086-0.103-0.121c0.03-0.021,0.072-0.063,0.091-0.055
		c0.045,0.021,0.081,0.063,0.119,0.096C78.827,130.344,78.796,130.365,78.748,130.4z"/>
	<path d="M79.595,130.208c0.041,0.043,0.066,0.073,0.092,0.101c-0.04,0.029-0.08,0.069-0.123,0.08
		c-0.027,0.004-0.063-0.046-0.093-0.07C79.506,130.286,79.542,130.255,79.595,130.208z"/>
	<path d="M79.17,130.26c0.048,0.043,0.083,0.071,0.116,0.102c-0.037,0.027-0.074,0.074-0.11,0.074c-0.036,0-0.072-0.047-0.108-0.076
		C79.098,130.331,79.127,130.305,79.17,130.26z"/>
	<path d="M78.236,129.816c-0.048,0.026-0.085,0.06-0.092,0.054c-0.038-0.03-0.068-0.069-0.094-0.11
		c-0.004-0.005,0.056-0.062,0.061-0.058C78.149,129.73,78.183,129.768,78.236,129.816z"/>
	<path d="M78.021,129.529c-0.048,0.023-0.08,0.052-0.09,0.044c-0.034-0.022-0.062-0.056-0.085-0.091
		c-0.004-0.004,0.042-0.053,0.046-0.051C77.932,129.456,77.966,129.484,78.021,129.529z"/>
</g>
<rect x="10.551" y="8.919" fill="none" width="239.208" height="128.94"/>
<path d="M89.216,131.438c0-3.043,0-6.088,0-9.131c0.024-0.06,0.042-0.117,0.07-0.172c0.092-0.189,0.255-0.285,0.446-0.347
	c3.044,0,6.087,0,9.132,0c0.077,0.036,0.159,0.063,0.232,0.106c0.157,0.09,0.229,0.246,0.285,0.41c0,3.043,0,6.09,0,9.133
	c-0.036,0.078-0.063,0.158-0.106,0.229c-0.094,0.155-0.245,0.231-0.411,0.286c-3.045,0-6.088,0-9.132,0
	c-0.058-0.021-0.117-0.043-0.173-0.07C89.372,131.793,89.278,131.63,89.216,131.438z M97.924,130.023c0-0.047,0-0.09,0-0.133
	c0-0.721-0.001-1.441,0-2.162c0.001-0.396-0.023-0.787-0.168-1.16c-0.224-0.577-0.622-0.948-1.25-1.017
	c-0.593-0.063-1.089,0.123-1.434,0.634c-0.009,0.015-0.008,0.032-0.011,0.051c-0.012-0.01-0.023-0.019-0.034-0.025
	c0-0.188,0-0.375,0-0.563c-0.494,0-0.978,0-1.463,0c0,1.463,0,2.918,0,4.373c0.494,0,0.978,0,1.467,0c0-0.063,0-0.112,0-0.166
	c0-0.768,0-1.535,0.002-2.304c0.002-0.311,0.157-0.532,0.417-0.687c0.406-0.234,0.88-0.038,0.99,0.414
	c0.036,0.146,0.053,0.3,0.055,0.451c0.007,0.519,0.003,1.037,0.003,1.557c0,0.245,0,0.488,0,0.736
	C96.975,130.023,97.444,130.023,97.924,130.023z M92.598,130.025c0-1.461,0-2.909,0-4.36c-0.482,0-0.956,0-1.433,0
	c0,1.456,0,2.905,0,4.36C91.646,130.025,92.116,130.025,92.598,130.025z M91.801,125.191c0.426-0.006,0.724-0.305,0.719-0.729
	c-0.004-0.446-0.298-0.735-0.746-0.729c-0.4,0.006-0.697,0.314-0.693,0.725C91.086,124.898,91.376,125.195,91.801,125.191z"/>
<g>
	<path d="M15.381,15.964h2.336c0.713,0,1.385,0.033,2.016,0.098c0.63,0.065,1.211,0.179,1.742,0.34
		c0.531,0.162,1.008,0.38,1.43,0.656c0.422,0.276,0.78,0.625,1.074,1.047c0.294,0.422,0.52,0.928,0.676,1.516
		c0.156,0.589,0.234,1.273,0.234,2.055c0,0.859-0.145,1.638-0.434,2.336s-0.708,1.293-1.258,1.785
		c-0.55,0.492-1.22,0.872-2.012,1.141c-0.792,0.269-1.688,0.402-2.688,0.402h-3.164L15.381,15.964z M16.381,26.448h2.266
		c0.88,0,1.645-0.117,2.293-0.352s1.185-0.56,1.609-0.977c0.424-0.417,0.739-0.914,0.945-1.492c0.206-0.578,0.309-1.211,0.309-1.898
		c0-0.906-0.128-1.669-0.383-2.289c-0.255-0.619-0.633-1.121-1.133-1.504s-1.121-0.659-1.863-0.828
		c-0.742-0.169-1.598-0.254-2.566-0.254h-1.477V26.448z"/>
	<path d="M28.209,27.339h-0.969v-6.156l-0.078-1.859h1.016l0.031,1.938c0.083-0.375,0.204-0.696,0.363-0.965
		c0.159-0.269,0.34-0.488,0.543-0.66s0.432-0.298,0.688-0.379c0.255-0.08,0.531-0.123,0.828-0.129c0.151,0,0.282,0.004,0.395,0.012
		c0.112,0.008,0.204,0.022,0.277,0.043l0.008,0.891c-0.047-0.021-0.132-0.04-0.254-0.059c-0.123-0.019-0.283-0.027-0.48-0.027
		c-0.344,0-0.659,0.066-0.945,0.199c-0.287,0.133-0.533,0.324-0.738,0.574c-0.206,0.25-0.37,0.552-0.492,0.906
		c-0.123,0.354-0.187,0.75-0.191,1.188V27.339z"/>
	<path d="M39.131,25.761l0.281,0.75c-0.391,0.359-0.845,0.617-1.363,0.773c-0.519,0.156-1.103,0.234-1.754,0.234
		c-0.62,0-1.173-0.103-1.66-0.309c-0.487-0.206-0.898-0.492-1.234-0.859s-0.593-0.805-0.77-1.313
		c-0.177-0.508-0.266-1.063-0.266-1.668c0-0.578,0.088-1.125,0.266-1.641c0.177-0.516,0.432-0.966,0.766-1.352
		c0.333-0.386,0.741-0.69,1.223-0.914c0.481-0.224,1.027-0.336,1.637-0.336c0.604,0,1.129,0.102,1.574,0.305
		s0.813,0.485,1.102,0.848s0.504,0.796,0.645,1.301s0.211,1.063,0.211,1.672c0,0.042-0.001,0.087-0.004,0.137
		c-0.003,0.05-0.004,0.087-0.004,0.113h-6.391v0.148c0,0.464,0.069,0.886,0.207,1.266c0.138,0.38,0.337,0.706,0.598,0.977
		c0.26,0.271,0.575,0.481,0.945,0.633c0.37,0.151,0.789,0.227,1.258,0.227c0.583,0,1.106-0.086,1.57-0.258
		C38.431,26.323,38.819,26.078,39.131,25.761z M33.405,22.706h5.367V22.69v0.055c-0.016-0.422-0.074-0.806-0.176-1.152
		s-0.254-0.645-0.457-0.895s-0.462-0.444-0.777-0.582c-0.315-0.138-0.694-0.207-1.137-0.207c-0.433,0-0.815,0.074-1.148,0.223
		c-0.333,0.148-0.617,0.351-0.852,0.605s-0.421,0.552-0.559,0.891C33.528,21.967,33.441,22.326,33.405,22.706z"/>
	<path d="M46.78,19.323h1.055l1.969,5.875l0.438,1.508l0.422-1.484l1.914-5.898h1.008l-2.883,8.016h-1.008l-2.016-6.086
		l-0.391-1.289l-0.406,1.313l-2.188,6.063H43.67l-2.844-8.016h1.008l1.977,5.891l0.438,1.383l0.422-1.289L46.78,19.323z"/>
	<path d="M61.561,29.542h-7.742v-0.727h7.742V29.542z"/>
	<path d="M70.92,17.448c-0.688-0.531-1.615-0.797-2.781-0.797c-0.776,0-1.448,0.147-2.016,0.441
		c-0.568,0.294-1.039,0.683-1.414,1.164c-0.375,0.482-0.654,1.03-0.836,1.645c-0.183,0.614-0.273,1.242-0.273,1.883
		c0,0.646,0.084,1.261,0.254,1.844c0.169,0.583,0.432,1.098,0.789,1.543c0.356,0.445,0.81,0.8,1.359,1.063
		c0.549,0.263,1.204,0.395,1.965,0.395c0.692,0,1.321-0.079,1.887-0.238c0.565-0.159,1.032-0.402,1.402-0.73l0.328,0.758
		c-0.448,0.359-0.998,0.633-1.648,0.82c-0.651,0.188-1.391,0.281-2.219,0.281c-0.844,0-1.59-0.149-2.238-0.449
		s-1.191-0.708-1.629-1.227s-0.77-1.124-0.996-1.816s-0.34-1.435-0.34-2.227c0-0.813,0.125-1.583,0.375-2.313
		c0.25-0.729,0.612-1.371,1.086-1.926c0.474-0.555,1.051-0.995,1.73-1.32c0.68-0.325,1.449-0.488,2.309-0.488
		c0.688,0,1.293,0.087,1.816,0.262c0.523,0.175,1.012,0.457,1.465,0.848L70.92,17.448z"/>
	<path d="M79.67,19.323h0.969v6.164c0,0.083,0.002,0.278,0.008,0.586c0.005,0.308,0.016,0.729,0.031,1.266H79.67v-1.586
		c-0.292,0.614-0.683,1.063-1.172,1.344c-0.49,0.281-1.086,0.422-1.789,0.422c-0.578,0-1.054-0.099-1.426-0.297
		c-0.373-0.198-0.667-0.453-0.883-0.766c-0.216-0.313-0.366-0.663-0.449-1.051c-0.083-0.388-0.125-0.774-0.125-1.16v-4.922h0.969
		v4.852c0.016,0.422,0.057,0.793,0.125,1.113c0.067,0.32,0.191,0.589,0.371,0.805s0.413,0.38,0.699,0.492
		c0.286,0.112,0.638,0.168,1.055,0.168c0.422,0,0.795-0.069,1.121-0.207c0.325-0.138,0.599-0.328,0.82-0.57
		c0.221-0.242,0.391-0.527,0.508-0.855s0.176-0.685,0.176-1.07v-0.094V19.323z"/>
	<path d="M89.428,15.558h0.969v9.852c0,0.344,0.001,0.665,0.004,0.965c0.002,0.3,0.012,0.621,0.027,0.965h-0.961l-0.047-1.609
		c-0.354,0.625-0.787,1.079-1.297,1.363c-0.511,0.284-1.097,0.426-1.758,0.426c-0.609,0-1.137-0.108-1.582-0.324
		s-0.813-0.509-1.102-0.879s-0.504-0.805-0.645-1.305s-0.211-1.036-0.211-1.609c0-0.567,0.075-1.109,0.227-1.625
		c0.151-0.516,0.379-0.97,0.684-1.363s0.684-0.706,1.137-0.938s0.981-0.348,1.586-0.348c0.692,0,1.293,0.146,1.801,0.438
		c0.508,0.292,0.897,0.745,1.168,1.359V15.558z M86.592,26.753c0.479,0,0.897-0.09,1.254-0.27c0.356-0.18,0.652-0.429,0.887-0.746
		s0.409-0.695,0.523-1.133c0.114-0.438,0.172-0.914,0.172-1.43c0-0.5-0.065-0.95-0.195-1.352c-0.13-0.401-0.315-0.743-0.555-1.027
		c-0.24-0.284-0.53-0.503-0.871-0.656c-0.341-0.153-0.726-0.23-1.152-0.23c-0.495,0-0.919,0.094-1.273,0.281
		c-0.354,0.188-0.646,0.44-0.875,0.758c-0.229,0.317-0.398,0.687-0.508,1.105s-0.164,0.86-0.164,1.324
		c0,0.442,0.048,0.867,0.145,1.273c0.096,0.406,0.254,0.766,0.473,1.078s0.502,0.562,0.852,0.746
		C85.652,26.66,86.082,26.753,86.592,26.753z"/>
	<path d="M99.116,15.558h0.969v9.852c0,0.344,0.001,0.665,0.004,0.965c0.002,0.3,0.012,0.621,0.027,0.965h-0.961l-0.047-1.609
		c-0.354,0.625-0.787,1.079-1.297,1.363c-0.511,0.284-1.097,0.426-1.758,0.426c-0.609,0-1.137-0.108-1.582-0.324
		s-0.813-0.509-1.102-0.879s-0.504-0.805-0.645-1.305s-0.211-1.036-0.211-1.609c0-0.567,0.075-1.109,0.227-1.625
		c0.151-0.516,0.379-0.97,0.684-1.363s0.684-0.706,1.137-0.938s0.981-0.348,1.586-0.348c0.692,0,1.293,0.146,1.801,0.438
		c0.508,0.292,0.897,0.745,1.168,1.359V15.558z M96.28,26.753c0.479,0,0.897-0.09,1.254-0.27c0.356-0.18,0.652-0.429,0.887-0.746
		s0.409-0.695,0.523-1.133c0.114-0.438,0.172-0.914,0.172-1.43c0-0.5-0.065-0.95-0.195-1.352c-0.13-0.401-0.315-0.743-0.555-1.027
		c-0.24-0.284-0.53-0.503-0.871-0.656c-0.341-0.153-0.726-0.23-1.152-0.23c-0.495,0-0.919,0.094-1.273,0.281
		c-0.354,0.188-0.646,0.44-0.875,0.758c-0.229,0.317-0.398,0.687-0.508,1.105s-0.164,0.86-0.164,1.324
		c0,0.442,0.048,0.867,0.145,1.273c0.096,0.406,0.254,0.766,0.473,1.078s0.502,0.562,0.852,0.746
		C95.339,26.66,95.769,26.753,96.28,26.753z"/>
	<path d="M103.772,15.558v5.336c0.344-0.614,0.756-1.063,1.238-1.344c0.481-0.281,1.063-0.422,1.746-0.422
		c0.521,0,0.956,0.082,1.305,0.246c0.349,0.164,0.63,0.382,0.844,0.652c0.213,0.271,0.371,0.578,0.473,0.922
		s0.165,0.695,0.191,1.055l0.016,0.344v4.992h-0.969v-4.141c0-0.192-0.003-0.405-0.008-0.637c-0.005-0.231-0.008-0.351-0.008-0.355
		c-0.037-0.739-0.236-1.308-0.598-1.703c-0.362-0.396-0.902-0.594-1.621-0.594c-0.433,0-0.812,0.073-1.137,0.219
		c-0.326,0.146-0.598,0.347-0.816,0.602s-0.384,0.556-0.496,0.902c-0.112,0.347-0.166,0.718-0.16,1.113v4.594h-0.969V15.558H103.772
		z"/>
	<path d="M111.194,19.323h1.023l2.836,7.313l2.938-7.313h1l-3.617,8.672c-0.146,0.349-0.315,0.679-0.508,0.988
		c-0.193,0.31-0.41,0.586-0.652,0.828s-0.509,0.446-0.801,0.613c-0.292,0.167-0.609,0.281-0.953,0.344l-0.523-0.633
		c0.422-0.109,0.771-0.25,1.047-0.422c0.276-0.172,0.502-0.359,0.68-0.563c0.177-0.203,0.317-0.414,0.422-0.633
		c0.104-0.219,0.198-0.427,0.281-0.625l0.195-0.477L111.194,19.323z"/>
	<path d="M121.014,27.425h-1.352v-1.398h1.352V27.425z"/>
	<path d="M134.788,26.815l0.453-1.945l2.492-8.906h0.992l-3.32,11.375h-1.359l-3.266-10.352l-3.328,10.352h-1.422l-3.313-11.375
		h1.109l2.43,8.742l0.563,2.18l0.539-2.031l2.844-8.891h1.172l2.789,8.773L134.788,26.815z"/>
	<path d="M146.28,25.761l0.281,0.75c-0.391,0.359-0.846,0.617-1.363,0.773c-0.519,0.156-1.104,0.234-1.754,0.234
		c-0.62,0-1.174-0.103-1.66-0.309c-0.487-0.206-0.898-0.492-1.234-0.859s-0.593-0.805-0.77-1.313
		c-0.178-0.508-0.266-1.063-0.266-1.668c0-0.578,0.088-1.125,0.266-1.641c0.177-0.516,0.432-0.966,0.766-1.352
		c0.333-0.386,0.74-0.69,1.223-0.914c0.481-0.224,1.027-0.336,1.637-0.336c0.604,0,1.129,0.102,1.574,0.305s0.813,0.485,1.102,0.848
		s0.504,0.796,0.645,1.301s0.211,1.063,0.211,1.672c0,0.042-0.002,0.087-0.004,0.137c-0.003,0.05-0.004,0.087-0.004,0.113h-6.391
		v0.148c0,0.464,0.068,0.886,0.207,1.266c0.138,0.38,0.337,0.706,0.598,0.977c0.26,0.271,0.575,0.481,0.945,0.633
		c0.369,0.151,0.789,0.227,1.258,0.227c0.583,0,1.106-0.086,1.57-0.258C145.579,26.323,145.967,26.078,146.28,25.761z
		 M140.553,22.706h5.367V22.69v0.055c-0.016-0.422-0.074-0.806-0.176-1.152s-0.254-0.645-0.457-0.895s-0.463-0.444-0.777-0.582
		c-0.315-0.138-0.694-0.207-1.137-0.207c-0.433,0-0.815,0.074-1.148,0.223c-0.334,0.148-0.617,0.351-0.852,0.605
		s-0.421,0.552-0.559,0.891C140.676,21.967,140.589,22.326,140.553,22.706z"/>
	<path d="M149.913,27.339h-0.914V15.558h0.969v5.406c0.156-0.308,0.346-0.575,0.57-0.805c0.224-0.229,0.473-0.421,0.746-0.574
		s0.566-0.268,0.879-0.344c0.313-0.075,0.635-0.113,0.969-0.113c0.604,0,1.121,0.111,1.551,0.332c0.43,0.222,0.782,0.52,1.059,0.895
		c0.275,0.375,0.479,0.812,0.609,1.309c0.13,0.497,0.195,1.02,0.195,1.566c0,0.589-0.076,1.142-0.227,1.66
		c-0.151,0.519-0.377,0.973-0.676,1.363c-0.3,0.391-0.676,0.699-1.129,0.926s-0.979,0.34-1.578,0.34
		c-1.303,0-2.295-0.563-2.977-1.688L149.913,27.339z M152.811,19.909c-0.537,0-0.987,0.099-1.352,0.297
		c-0.365,0.198-0.659,0.464-0.883,0.797c-0.225,0.333-0.385,0.718-0.48,1.152c-0.097,0.435-0.145,0.887-0.145,1.355
		c0,0.464,0.061,0.894,0.184,1.289c0.122,0.396,0.302,0.738,0.539,1.027c0.236,0.289,0.531,0.516,0.883,0.68
		s0.756,0.246,1.215,0.246c0.516,0,0.951-0.105,1.309-0.316c0.356-0.211,0.645-0.485,0.863-0.824s0.377-0.72,0.477-1.145
		c0.099-0.425,0.148-0.851,0.148-1.277c0-0.453-0.055-0.879-0.164-1.277s-0.277-0.746-0.504-1.043s-0.514-0.531-0.859-0.703
		C153.695,19.995,153.285,19.909,152.811,19.909z"/>
	<path d="M165.147,29.542h-7.742v-0.727h7.742V29.542z"/>
	<path d="M166.795,15.964h2.336c0.713,0,1.385,0.033,2.016,0.098c0.63,0.065,1.211,0.179,1.742,0.34
		c0.531,0.162,1.008,0.38,1.43,0.656c0.422,0.276,0.779,0.625,1.074,1.047c0.294,0.422,0.52,0.928,0.676,1.516
		c0.156,0.589,0.234,1.273,0.234,2.055c0,0.859-0.145,1.638-0.434,2.336s-0.709,1.293-1.258,1.785
		c-0.55,0.492-1.221,0.872-2.012,1.141c-0.792,0.269-1.688,0.402-2.688,0.402h-3.164L166.795,15.964z M167.795,26.448h2.266
		c0.88,0,1.645-0.117,2.293-0.352s1.185-0.56,1.609-0.977c0.424-0.417,0.739-0.914,0.945-1.492c0.205-0.578,0.309-1.211,0.309-1.898
		c0-0.906-0.128-1.669-0.383-2.289c-0.256-0.619-0.633-1.121-1.133-1.504s-1.121-0.659-1.863-0.828
		c-0.742-0.169-1.598-0.254-2.566-0.254h-1.477V26.448z"/>
	<path d="M184.999,25.761l0.281,0.75c-0.391,0.359-0.846,0.617-1.363,0.773c-0.519,0.156-1.104,0.234-1.754,0.234
		c-0.62,0-1.174-0.103-1.66-0.309c-0.487-0.206-0.898-0.492-1.234-0.859s-0.593-0.805-0.77-1.313
		c-0.178-0.508-0.266-1.063-0.266-1.668c0-0.578,0.088-1.125,0.266-1.641c0.177-0.516,0.432-0.966,0.766-1.352
		c0.333-0.386,0.74-0.69,1.223-0.914c0.481-0.224,1.027-0.336,1.637-0.336c0.604,0,1.129,0.102,1.574,0.305s0.813,0.485,1.102,0.848
		s0.504,0.796,0.645,1.301s0.211,1.063,0.211,1.672c0,0.042-0.002,0.087-0.004,0.137c-0.003,0.05-0.004,0.087-0.004,0.113h-6.391
		v0.148c0,0.464,0.068,0.886,0.207,1.266c0.138,0.38,0.337,0.706,0.598,0.977c0.26,0.271,0.575,0.481,0.945,0.633
		c0.369,0.151,0.789,0.227,1.258,0.227c0.583,0,1.106-0.086,1.57-0.258C184.297,26.323,184.686,26.078,184.999,25.761z
		 M179.272,22.706h5.367V22.69v0.055c-0.016-0.422-0.074-0.806-0.176-1.152s-0.254-0.645-0.457-0.895s-0.463-0.444-0.777-0.582
		c-0.315-0.138-0.694-0.207-1.137-0.207c-0.433,0-0.815,0.074-1.148,0.223c-0.334,0.148-0.617,0.351-0.852,0.605
		s-0.421,0.552-0.559,0.891C179.395,21.967,179.308,22.326,179.272,22.706z"/>
	<path d="M193.467,19.323h1.016l-3.391,8.016h-1.07l-3.344-8.016h1.031l2.227,5.484l0.648,1.664l0.586-1.461L193.467,19.323z"/>
	<path d="M202.374,25.761l0.281,0.75c-0.391,0.359-0.846,0.617-1.363,0.773c-0.519,0.156-1.104,0.234-1.754,0.234
		c-0.62,0-1.174-0.103-1.66-0.309c-0.487-0.206-0.898-0.492-1.234-0.859s-0.593-0.805-0.77-1.313
		c-0.178-0.508-0.266-1.063-0.266-1.668c0-0.578,0.088-1.125,0.266-1.641c0.177-0.516,0.432-0.966,0.766-1.352
		c0.333-0.386,0.74-0.69,1.223-0.914c0.481-0.224,1.027-0.336,1.637-0.336c0.604,0,1.129,0.102,1.574,0.305s0.813,0.485,1.102,0.848
		s0.504,0.796,0.645,1.301s0.211,1.063,0.211,1.672c0,0.042-0.002,0.087-0.004,0.137c-0.003,0.05-0.004,0.087-0.004,0.113h-6.391
		v0.148c0,0.464,0.068,0.886,0.207,1.266c0.138,0.38,0.337,0.706,0.598,0.977c0.26,0.271,0.575,0.481,0.945,0.633
		c0.369,0.151,0.789,0.227,1.258,0.227c0.583,0,1.106-0.086,1.57-0.258C201.672,26.323,202.061,26.078,202.374,25.761z
		 M196.647,22.706h5.367V22.69v0.055c-0.016-0.422-0.074-0.806-0.176-1.152s-0.254-0.645-0.457-0.895s-0.463-0.444-0.777-0.582
		c-0.315-0.138-0.694-0.207-1.137-0.207c-0.433,0-0.815,0.074-1.148,0.223c-0.334,0.148-0.617,0.351-0.852,0.605
		s-0.421,0.552-0.559,0.891C196.77,21.967,196.683,22.326,196.647,22.706z"/>
	<path d="M206.186,15.558v11.781h-0.969V15.558H206.186z"/>
	<path d="M212.592,19.128c0.666,0,1.25,0.108,1.75,0.324s0.918,0.513,1.254,0.891s0.588,0.821,0.758,1.332
		c0.169,0.511,0.254,1.058,0.254,1.641c0,0.573-0.09,1.113-0.27,1.621s-0.441,0.953-0.785,1.336s-0.77,0.687-1.277,0.91
		s-1.09,0.336-1.746,0.336c-0.651,0-1.227-0.106-1.727-0.32s-0.921-0.508-1.262-0.883c-0.342-0.375-0.6-0.815-0.773-1.32
		c-0.175-0.505-0.262-1.05-0.262-1.633s0.09-1.133,0.27-1.648s0.442-0.965,0.789-1.348c0.346-0.383,0.773-0.685,1.281-0.906
		C211.354,19.239,211.936,19.128,212.592,19.128z M215.592,23.347c0-0.464-0.062-0.903-0.184-1.32
		c-0.123-0.417-0.309-0.781-0.559-1.094s-0.566-0.562-0.949-0.746s-0.838-0.277-1.363-0.277c-0.5,0-0.938,0.095-1.313,0.285
		s-0.69,0.445-0.945,0.766c-0.256,0.32-0.447,0.688-0.574,1.102c-0.128,0.414-0.191,0.845-0.191,1.293s0.063,0.878,0.191,1.289
		c0.127,0.411,0.32,0.773,0.578,1.086s0.578,0.562,0.961,0.746s0.829,0.277,1.34,0.277c0.5,0,0.938-0.094,1.316-0.281
		c0.377-0.188,0.691-0.438,0.941-0.75s0.438-0.675,0.563-1.086S215.592,23.795,215.592,23.347z"/>
	<path d="M219.655,30.8h-0.969v-9.453c0-0.146-0.003-0.387-0.008-0.723c-0.006-0.336-0.021-0.77-0.047-1.301h1.008l0.023,1.625
		c0.317-0.641,0.75-1.104,1.297-1.391s1.169-0.43,1.867-0.43c0.583,0,1.09,0.108,1.52,0.324s0.786,0.509,1.07,0.879
		c0.283,0.37,0.496,0.802,0.637,1.297s0.211,1.021,0.211,1.578c0,0.567-0.076,1.112-0.227,1.633
		c-0.151,0.521-0.377,0.979-0.676,1.375c-0.3,0.396-0.678,0.712-1.133,0.949c-0.456,0.237-0.988,0.355-1.598,0.355
		c-1.308,0-2.3-0.565-2.977-1.695V30.8z M219.647,23.479c0,0.469,0.063,0.902,0.188,1.301s0.307,0.745,0.547,1.039
		c0.239,0.294,0.535,0.523,0.887,0.688s0.751,0.246,1.199,0.246c0.489,0,0.908-0.095,1.258-0.285
		c0.349-0.19,0.635-0.445,0.859-0.766c0.224-0.32,0.389-0.69,0.496-1.109c0.106-0.419,0.16-0.86,0.16-1.324
		c0-0.433-0.047-0.851-0.141-1.254s-0.249-0.762-0.465-1.074c-0.217-0.313-0.499-0.563-0.848-0.75
		c-0.35-0.188-0.776-0.281-1.281-0.281c-0.537,0-0.987,0.099-1.352,0.297c-0.365,0.198-0.659,0.461-0.883,0.789
		c-0.225,0.328-0.385,0.707-0.48,1.137C219.695,22.562,219.647,23.011,219.647,23.479z"/>
	<path d="M234.819,25.761l0.281,0.75c-0.391,0.359-0.846,0.617-1.363,0.773c-0.519,0.156-1.104,0.234-1.754,0.234
		c-0.62,0-1.174-0.103-1.66-0.309c-0.487-0.206-0.898-0.492-1.234-0.859s-0.593-0.805-0.77-1.313
		c-0.178-0.508-0.266-1.063-0.266-1.668c0-0.578,0.088-1.125,0.266-1.641c0.177-0.516,0.432-0.966,0.766-1.352
		c0.333-0.386,0.74-0.69,1.223-0.914c0.481-0.224,1.027-0.336,1.637-0.336c0.604,0,1.129,0.102,1.574,0.305s0.813,0.485,1.102,0.848
		s0.504,0.796,0.645,1.301s0.211,1.063,0.211,1.672c0,0.042-0.002,0.087-0.004,0.137c-0.003,0.05-0.004,0.087-0.004,0.113h-6.391
		v0.148c0,0.464,0.068,0.886,0.207,1.266c0.138,0.38,0.337,0.706,0.598,0.977c0.26,0.271,0.575,0.481,0.945,0.633
		c0.369,0.151,0.789,0.227,1.258,0.227c0.583,0,1.106-0.086,1.57-0.258C234.118,26.323,234.506,26.078,234.819,25.761z
		 M229.092,22.706h5.367V22.69v0.055c-0.016-0.422-0.074-0.806-0.176-1.152s-0.254-0.645-0.457-0.895s-0.463-0.444-0.777-0.582
		c-0.315-0.138-0.694-0.207-1.137-0.207c-0.433,0-0.815,0.074-1.148,0.223c-0.334,0.148-0.617,0.351-0.852,0.605
		s-0.421,0.552-0.559,0.891C229.215,21.967,229.128,22.326,229.092,22.706z"/>
	<path d="M238.608,27.339h-0.969v-6.156l-0.078-1.859h1.016l0.031,1.938c0.083-0.375,0.204-0.696,0.363-0.965
		c0.158-0.269,0.34-0.488,0.543-0.66s0.432-0.298,0.688-0.379c0.255-0.08,0.531-0.123,0.828-0.129c0.15,0,0.282,0.004,0.395,0.012
		c0.111,0.008,0.204,0.022,0.277,0.043l0.008,0.891c-0.047-0.021-0.132-0.04-0.254-0.059c-0.123-0.019-0.283-0.027-0.48-0.027
		c-0.344,0-0.659,0.066-0.945,0.199c-0.287,0.133-0.533,0.324-0.738,0.574c-0.206,0.25-0.37,0.552-0.492,0.906
		c-0.123,0.354-0.187,0.75-0.191,1.188V27.339z"/>
	<path d="M128.694,32.903h0.727v7.389c0,0.258,0.001,0.499,0.003,0.724s0.009,0.466,0.021,0.724h-0.721l-0.035-1.207
		c-0.266,0.469-0.59,0.81-0.973,1.022s-0.822,0.319-1.318,0.319c-0.457,0-0.853-0.081-1.187-0.243s-0.609-0.382-0.826-0.659
		s-0.378-0.604-0.483-0.979s-0.158-0.777-0.158-1.207c0-0.426,0.057-0.832,0.17-1.219s0.284-0.728,0.513-1.022
		s0.513-0.529,0.853-0.703s0.736-0.261,1.189-0.261c0.52,0,0.97,0.109,1.351,0.328s0.673,0.559,0.876,1.02V32.903z M126.567,41.3
		c0.359,0,0.673-0.067,0.94-0.202s0.489-0.321,0.665-0.56s0.307-0.521,0.393-0.85s0.129-0.686,0.129-1.072
		c0-0.375-0.049-0.713-0.146-1.014s-0.236-0.558-0.416-0.771s-0.397-0.377-0.653-0.492s-0.544-0.173-0.864-0.173
		c-0.371,0-0.689,0.07-0.955,0.211s-0.484,0.33-0.656,0.568s-0.299,0.515-0.381,0.829s-0.123,0.646-0.123,0.993
		c0,0.332,0.036,0.65,0.108,0.955s0.19,0.574,0.354,0.809s0.377,0.421,0.639,0.56S126.184,41.3,126.567,41.3z"/>
	<path d="M135.643,36.771c-0.164-0.199-0.385-0.35-0.662-0.451s-0.588-0.152-0.932-0.152c-0.359,0-0.68,0.068-0.961,0.205
		s-0.521,0.322-0.718,0.557s-0.348,0.509-0.451,0.823s-0.155,0.649-0.155,1.005s0.044,0.688,0.132,0.999s0.225,0.58,0.41,0.809
		s0.422,0.408,0.709,0.539s0.63,0.196,1.028,0.196c0.727,0,1.316-0.195,1.77-0.586l0.176,0.568
		c-0.258,0.211-0.559,0.362-0.902,0.454s-0.723,0.138-1.137,0.138c-0.488,0-0.916-0.08-1.283-0.24s-0.674-0.379-0.92-0.656
		s-0.431-0.603-0.554-0.976s-0.185-0.771-0.185-1.192c0-0.441,0.066-0.857,0.199-1.248s0.325-0.732,0.577-1.025
		s0.563-0.525,0.932-0.697s0.792-0.258,1.269-0.258c0.457,0,0.851,0.065,1.181,0.196s0.593,0.313,0.788,0.548L135.643,36.771z"/>
	<path d="M141.901,35.728h0.727v4.623c0,0.063,0.002,0.209,0.006,0.439s0.012,0.547,0.023,0.949h-0.756V40.55
		c-0.219,0.461-0.512,0.797-0.879,1.008s-0.814,0.316-1.342,0.316c-0.434,0-0.79-0.074-1.069-0.223s-0.5-0.34-0.662-0.574
		s-0.274-0.497-0.337-0.788s-0.094-0.581-0.094-0.87v-3.691h0.727v3.639c0.012,0.316,0.043,0.595,0.094,0.835
		s0.144,0.441,0.278,0.604s0.31,0.285,0.524,0.369s0.479,0.126,0.791,0.126c0.316,0,0.597-0.052,0.841-0.155
		s0.449-0.246,0.615-0.428s0.293-0.396,0.381-0.642s0.132-0.514,0.132-0.803v-0.07V35.728z"/>
	<path d="M149.219,32.903h0.727v7.389c0,0.258,0.001,0.499,0.003,0.724s0.009,0.466,0.021,0.724h-0.721l-0.035-1.207
		c-0.266,0.469-0.59,0.81-0.973,1.022s-0.822,0.319-1.318,0.319c-0.457,0-0.853-0.081-1.187-0.243s-0.609-0.382-0.826-0.659
		s-0.378-0.604-0.483-0.979s-0.158-0.777-0.158-1.207c0-0.426,0.057-0.832,0.17-1.219s0.284-0.728,0.513-1.022
		s0.513-0.529,0.853-0.703s0.736-0.261,1.189-0.261c0.52,0,0.97,0.109,1.351,0.328s0.673,0.559,0.876,1.02V32.903z M147.092,41.3
		c0.359,0,0.673-0.067,0.94-0.202s0.489-0.321,0.665-0.56s0.307-0.521,0.393-0.85s0.129-0.686,0.129-1.072
		c0-0.375-0.049-0.713-0.146-1.014s-0.236-0.558-0.416-0.771s-0.397-0.377-0.653-0.492s-0.544-0.173-0.864-0.173
		c-0.371,0-0.689,0.07-0.955,0.211s-0.484,0.33-0.656,0.568s-0.299,0.515-0.381,0.829s-0.123,0.646-0.123,0.993
		c0,0.332,0.036,0.65,0.108,0.955s0.19,0.574,0.354,0.809s0.377,0.421,0.639,0.56S146.709,41.3,147.092,41.3z"/>
	<path d="M156.485,32.903h0.727v7.389c0,0.258,0.001,0.499,0.003,0.724s0.009,0.466,0.021,0.724h-0.721l-0.035-1.207
		c-0.266,0.469-0.59,0.81-0.973,1.022s-0.822,0.319-1.318,0.319c-0.457,0-0.853-0.081-1.187-0.243s-0.609-0.382-0.826-0.659
		s-0.378-0.604-0.483-0.979s-0.158-0.777-0.158-1.207c0-0.426,0.057-0.832,0.17-1.219s0.284-0.728,0.513-1.022
		s0.513-0.529,0.853-0.703s0.736-0.261,1.189-0.261c0.52,0,0.97,0.109,1.351,0.328s0.673,0.559,0.876,1.02V32.903z M154.358,41.3
		c0.359,0,0.673-0.067,0.94-0.202s0.489-0.321,0.665-0.56s0.307-0.521,0.393-0.85s0.129-0.686,0.129-1.072
		c0-0.375-0.049-0.713-0.146-1.014s-0.236-0.558-0.416-0.771s-0.397-0.377-0.653-0.492s-0.544-0.173-0.864-0.173
		c-0.371,0-0.689,0.07-0.955,0.211s-0.484,0.33-0.656,0.568s-0.299,0.515-0.381,0.829s-0.123,0.646-0.123,0.993
		c0,0.332,0.036,0.65,0.108,0.955s0.19,0.574,0.354,0.809s0.377,0.421,0.639,0.56S153.975,41.3,154.358,41.3z"/>
	<path d="M159.977,32.903v4.002c0.258-0.461,0.567-0.797,0.929-1.008s0.798-0.316,1.31-0.316c0.391,0,0.717,0.062,0.979,0.185
		s0.473,0.286,0.633,0.489s0.278,0.434,0.354,0.691s0.124,0.521,0.144,0.791l0.012,0.258v3.744h-0.727v-3.105
		c0-0.145-0.002-0.304-0.006-0.478s-0.006-0.263-0.006-0.267c-0.027-0.555-0.177-0.98-0.448-1.277s-0.677-0.445-1.216-0.445
		c-0.324,0-0.608,0.055-0.853,0.164s-0.448,0.26-0.612,0.451s-0.288,0.417-0.372,0.677s-0.124,0.538-0.12,0.835v3.445h-0.727v-8.836
		H159.977z"/>
	<path d="M165.543,35.728h0.768l2.127,5.484l2.203-5.484h0.75l-2.713,6.504c-0.109,0.262-0.236,0.509-0.381,0.741
		s-0.308,0.439-0.489,0.621s-0.382,0.335-0.601,0.46s-0.457,0.211-0.715,0.258l-0.393-0.475c0.316-0.082,0.578-0.188,0.785-0.316
		s0.377-0.27,0.51-0.422s0.238-0.311,0.316-0.475s0.148-0.32,0.211-0.469l0.146-0.357L165.543,35.728z"/>
	<path d="M178.803,36.026h0.012l0.193-0.814l0.691-0.053l-0.393,1.488c-0.09,0.336-0.17,0.638-0.24,0.905s-0.13,0.505-0.179,0.712
		s-0.086,0.386-0.111,0.536s-0.038,0.278-0.038,0.384c0,0.203,0.046,0.362,0.138,0.478s0.267,0.173,0.524,0.173
		s0.504-0.079,0.738-0.237s0.441-0.368,0.621-0.63s0.323-0.563,0.431-0.902s0.161-0.691,0.161-1.055
		c0-0.512-0.099-0.983-0.296-1.415s-0.475-0.803-0.832-1.113s-0.784-0.553-1.28-0.727s-1.041-0.261-1.635-0.261
		c-0.41,0-0.802,0.051-1.175,0.152s-0.719,0.245-1.037,0.431s-0.606,0.408-0.864,0.668s-0.479,0.547-0.662,0.861
		s-0.324,0.652-0.422,1.014s-0.146,0.735-0.146,1.122c0,0.395,0.047,0.771,0.141,1.128s0.229,0.689,0.407,0.996
		s0.394,0.584,0.647,0.832s0.542,0.46,0.864,0.636s0.675,0.312,1.058,0.407s0.791,0.144,1.225,0.144
		c0.625,0,1.206-0.088,1.743-0.264s1.001-0.434,1.392-0.773l0.293,0.27c-0.188,0.195-0.408,0.371-0.662,0.527
		s-0.53,0.29-0.829,0.401s-0.616,0.197-0.952,0.258s-0.68,0.091-1.031,0.091c-0.711,0-1.368-0.117-1.972-0.352
		s-1.124-0.56-1.562-0.976s-0.779-0.908-1.025-1.477s-0.369-1.187-0.369-1.854c0-0.445,0.059-0.872,0.176-1.28
		s0.283-0.787,0.498-1.137s0.473-0.668,0.773-0.955s0.636-0.531,1.005-0.732s0.767-0.357,1.192-0.469s0.871-0.167,1.336-0.167
		c0.645,0,1.249,0.101,1.813,0.302s1.055,0.481,1.471,0.841s0.744,0.785,0.984,1.277s0.36,1.031,0.36,1.617
		c0,0.469-0.079,0.905-0.237,1.31s-0.366,0.757-0.624,1.058s-0.551,0.537-0.879,0.709s-0.66,0.258-0.996,0.258
		c-0.34,0-0.619-0.104-0.838-0.313s-0.346-0.495-0.381-0.858c-0.102,0.164-0.215,0.308-0.34,0.431s-0.26,0.226-0.404,0.308
		s-0.294,0.144-0.448,0.185s-0.308,0.062-0.46,0.062c-0.223,0-0.44-0.043-0.653-0.129s-0.402-0.214-0.568-0.384
		s-0.299-0.381-0.398-0.633s-0.149-0.546-0.149-0.882c0-0.27,0.036-0.533,0.108-0.791s0.172-0.501,0.299-0.729
		s0.279-0.439,0.457-0.633s0.37-0.36,0.577-0.501s0.426-0.25,0.656-0.328s0.465-0.117,0.703-0.117c0.18,0,0.348,0.022,0.504,0.067
		s0.296,0.11,0.419,0.196s0.226,0.188,0.308,0.308S178.772,35.878,178.803,36.026z M175.264,38.306c0,0.195,0.027,0.374,0.082,0.536
		s0.135,0.302,0.24,0.419s0.233,0.208,0.384,0.272s0.323,0.097,0.519,0.097c0.285,0,0.552-0.08,0.8-0.24s0.463-0.37,0.645-0.63
		s0.324-0.556,0.428-0.888s0.155-0.67,0.155-1.014c0-0.18-0.021-0.346-0.062-0.498s-0.106-0.283-0.196-0.393
		s-0.207-0.194-0.352-0.255s-0.322-0.091-0.533-0.091c-0.305,0-0.586,0.083-0.844,0.249s-0.48,0.379-0.668,0.639
		s-0.334,0.548-0.439,0.864S175.264,38.001,175.264,38.306z"/>
	<path d="M188.278,35.728h0.727v1.43v3.791c0,0.293-0.018,0.57-0.053,0.832s-0.091,0.518-0.167,0.768s-0.185,0.481-0.325,0.694
		s-0.324,0.398-0.551,0.557s-0.504,0.282-0.832,0.372s-0.719,0.135-1.172,0.135c-0.379,0-0.743-0.036-1.093-0.108
		s-0.671-0.185-0.964-0.337l0.07-0.68c0.285,0.164,0.593,0.286,0.923,0.366s0.667,0.12,1.011,0.12c0.762,0,1.347-0.171,1.755-0.513
		s0.622-0.878,0.642-1.608l0.029-1.277c-0.223,0.496-0.535,0.865-0.938,1.107s-0.857,0.363-1.365,0.363
		c-0.422,0-0.799-0.072-1.131-0.217s-0.613-0.347-0.844-0.606s-0.406-0.573-0.527-0.94s-0.182-0.773-0.182-1.219
		c0-0.434,0.058-0.843,0.173-1.228s0.289-0.722,0.521-1.011s0.521-0.518,0.867-0.686s0.751-0.252,1.216-0.252
		c0.25,0,0.482,0.032,0.697,0.097s0.413,0.154,0.595,0.27s0.348,0.254,0.498,0.416s0.284,0.341,0.401,0.536L188.278,35.728z
		 M188.26,38.511c0-0.32-0.048-0.623-0.144-0.908s-0.233-0.534-0.413-0.747s-0.398-0.381-0.656-0.504s-0.547-0.185-0.867-0.185
		c-0.352,0-0.66,0.069-0.926,0.208s-0.487,0.325-0.665,0.56s-0.312,0.506-0.401,0.814s-0.135,0.631-0.135,0.967
		c0,0.371,0.036,0.705,0.108,1.002s0.191,0.55,0.357,0.759s0.384,0.37,0.653,0.483s0.602,0.17,0.996,0.17
		c0.262,0,0.495-0.034,0.7-0.103s0.385-0.162,0.539-0.281s0.285-0.261,0.393-0.425s0.195-0.343,0.264-0.536s0.118-0.398,0.149-0.615
		S188.26,38.733,188.26,38.511z"/>
	<path d="M191.688,35.728l0.029,1.154c0.09-0.223,0.209-0.416,0.357-0.58s0.317-0.299,0.507-0.404s0.394-0.185,0.612-0.237
		s0.443-0.079,0.674-0.079c0.25,0,0.484,0.035,0.703,0.105s0.414,0.169,0.586,0.296s0.315,0.279,0.431,0.457
		s0.196,0.372,0.243,0.583c0.086-0.246,0.202-0.46,0.349-0.642s0.317-0.331,0.513-0.448s0.413-0.205,0.653-0.264
		s0.499-0.088,0.776-0.088c0.316,0,0.588,0.041,0.814,0.123s0.417,0.189,0.571,0.322s0.277,0.285,0.369,0.457
		s0.161,0.348,0.208,0.527s0.077,0.355,0.091,0.527s0.021,0.324,0.021,0.457v3.744h-0.727v-3.287c0-0.367-0.023-0.693-0.07-0.979
		s-0.132-0.524-0.255-0.718s-0.291-0.34-0.504-0.439s-0.487-0.149-0.823-0.149c-0.305,0-0.573,0.057-0.806,0.17
		s-0.427,0.266-0.583,0.457s-0.277,0.416-0.363,0.674s-0.129,0.529-0.129,0.814v3.457h-0.727v-3.738
		c0-0.602-0.143-1.058-0.428-1.368s-0.697-0.466-1.236-0.466c-0.305,0-0.572,0.054-0.803,0.161s-0.422,0.257-0.574,0.448
		s-0.271,0.416-0.354,0.674s-0.126,0.535-0.126,0.832v3.457h-0.727v-4.512c0-0.066-0.001-0.225-0.003-0.475
		s-0.011-0.592-0.026-1.025H191.688z"/>
	<path d="M204.543,35.581c0.281,0,0.534,0.03,0.759,0.091s0.43,0.146,0.615,0.258s0.355,0.247,0.51,0.407s0.302,0.342,0.442,0.545
		l0.029-1.154h0.703v1.43v4.582h-0.738l0.012-1.283c-0.055,0.16-0.15,0.323-0.287,0.489s-0.307,0.318-0.51,0.457
		s-0.437,0.252-0.7,0.34s-0.548,0.132-0.853,0.132c-0.496,0-0.923-0.097-1.28-0.29s-0.651-0.443-0.882-0.75s-0.4-0.65-0.51-1.031
		s-0.164-0.759-0.164-1.134c0-0.387,0.059-0.766,0.176-1.137s0.295-0.701,0.533-0.99s0.535-0.521,0.891-0.697
		S204.063,35.581,204.543,35.581z M206.893,38.663c-0.023-0.316-0.077-0.624-0.161-0.923s-0.214-0.565-0.39-0.8
		s-0.405-0.422-0.688-0.563s-0.636-0.211-1.058-0.211c-0.395,0-0.731,0.076-1.011,0.229s-0.509,0.351-0.688,0.595
		s-0.311,0.517-0.393,0.817s-0.123,0.6-0.123,0.896s0.031,0.599,0.094,0.905s0.177,0.585,0.343,0.835s0.396,0.455,0.691,0.615
		s0.675,0.24,1.14,0.24c0.313,0,0.605-0.051,0.879-0.152s0.511-0.256,0.712-0.463s0.36-0.467,0.478-0.779s0.176-0.678,0.176-1.096
		V38.663z"/>
	<path d="M209.471,35.728h0.727v6.012h-0.727V35.728z M210.186,33.079v0.727h-0.674v-0.727H210.186z"/>
	<path d="M213.139,32.903v8.836h-0.727v-8.836H213.139z"/>
	<path d="M216.35,41.804h-1.014v-1.049h1.014V41.804z"/>
	<path d="M222.69,36.771c-0.164-0.199-0.385-0.35-0.662-0.451s-0.588-0.152-0.932-0.152c-0.359,0-0.68,0.068-0.961,0.205
		s-0.521,0.322-0.718,0.557s-0.348,0.509-0.451,0.823s-0.155,0.649-0.155,1.005s0.044,0.688,0.132,0.999s0.225,0.58,0.41,0.809
		s0.422,0.408,0.709,0.539s0.63,0.196,1.028,0.196c0.727,0,1.316-0.195,1.77-0.586l0.176,0.568
		c-0.258,0.211-0.559,0.362-0.902,0.454s-0.723,0.138-1.137,0.138c-0.488,0-0.916-0.08-1.283-0.24s-0.674-0.379-0.92-0.656
		s-0.431-0.603-0.554-0.976s-0.185-0.771-0.185-1.192c0-0.441,0.066-0.857,0.199-1.248s0.325-0.732,0.577-1.025
		s0.563-0.525,0.932-0.697s0.792-0.258,1.269-0.258c0.457,0,0.851,0.065,1.181,0.196s0.593,0.313,0.788,0.548L222.69,36.771z"/>
	<path d="M227.237,35.581c0.5,0,0.938,0.081,1.313,0.243s0.688,0.385,0.94,0.668s0.441,0.616,0.568,0.999s0.19,0.793,0.19,1.23
		c0,0.43-0.067,0.835-0.202,1.216s-0.331,0.715-0.589,1.002s-0.577,0.515-0.958,0.683s-0.817,0.252-1.31,0.252
		c-0.488,0-0.92-0.08-1.295-0.24s-0.69-0.381-0.946-0.662s-0.449-0.611-0.58-0.99s-0.196-0.787-0.196-1.225s0.067-0.85,0.202-1.236
		s0.332-0.724,0.592-1.011s0.58-0.514,0.961-0.68S226.745,35.581,227.237,35.581z M229.487,38.745c0-0.348-0.046-0.678-0.138-0.99
		s-0.231-0.586-0.419-0.82s-0.425-0.421-0.712-0.56s-0.628-0.208-1.022-0.208c-0.375,0-0.703,0.071-0.984,0.214
		s-0.518,0.334-0.709,0.574s-0.335,0.516-0.431,0.826s-0.144,0.634-0.144,0.97s0.048,0.658,0.144,0.967s0.24,0.58,0.434,0.814
		s0.434,0.421,0.721,0.56s0.622,0.208,1.005,0.208c0.375,0,0.704-0.07,0.987-0.211s0.519-0.328,0.706-0.563s0.328-0.506,0.422-0.814
		S229.487,39.081,229.487,38.745z"/>
	<path d="M232.557,35.728l0.029,1.154c0.09-0.223,0.209-0.416,0.357-0.58s0.317-0.299,0.507-0.404s0.394-0.185,0.612-0.237
		s0.443-0.079,0.674-0.079c0.25,0,0.484,0.035,0.703,0.105s0.414,0.169,0.586,0.296s0.315,0.279,0.431,0.457
		s0.196,0.372,0.243,0.583c0.086-0.246,0.202-0.46,0.349-0.642s0.317-0.331,0.513-0.448s0.413-0.205,0.653-0.264
		s0.499-0.088,0.776-0.088c0.316,0,0.588,0.041,0.814,0.123s0.417,0.189,0.571,0.322s0.277,0.285,0.369,0.457
		s0.161,0.348,0.208,0.527s0.077,0.355,0.091,0.527s0.021,0.324,0.021,0.457v3.744h-0.727v-3.287c0-0.367-0.023-0.693-0.07-0.979
		s-0.132-0.524-0.255-0.718s-0.291-0.34-0.504-0.439s-0.487-0.149-0.823-0.149c-0.305,0-0.573,0.057-0.806,0.17
		s-0.427,0.266-0.583,0.457s-0.277,0.416-0.363,0.674s-0.129,0.529-0.129,0.814v3.457h-0.727v-3.738
		c0-0.602-0.143-1.058-0.428-1.368s-0.697-0.466-1.236-0.466c-0.305,0-0.572,0.054-0.803,0.161s-0.422,0.257-0.574,0.448
		s-0.271,0.416-0.354,0.674s-0.126,0.535-0.126,0.832v3.457h-0.727v-4.512c0-0.066-0.001-0.225-0.003-0.475
		s-0.011-0.592-0.026-1.025H232.557z"/>
</g>
<g>
	<path d="M22.733,123.122h0.727v7.389c0,0.258,0.001,0.499,0.003,0.724s0.009,0.466,0.021,0.724h-0.721l-0.035-1.207
		c-0.266,0.469-0.59,0.81-0.973,1.022s-0.822,0.319-1.318,0.319c-0.457,0-0.853-0.081-1.187-0.243s-0.609-0.382-0.826-0.659
		s-0.378-0.604-0.483-0.979s-0.158-0.777-0.158-1.207c0-0.426,0.057-0.832,0.17-1.219s0.284-0.728,0.513-1.022
		s0.513-0.529,0.853-0.703s0.736-0.261,1.189-0.261c0.52,0,0.97,0.109,1.351,0.328s0.673,0.559,0.876,1.02V123.122z M20.606,131.519
		c0.359,0,0.673-0.067,0.94-0.202s0.489-0.321,0.665-0.56s0.307-0.521,0.393-0.85s0.129-0.686,0.129-1.072
		c0-0.375-0.049-0.713-0.146-1.014s-0.236-0.558-0.416-0.771s-0.397-0.377-0.653-0.492s-0.544-0.173-0.864-0.173
		c-0.371,0-0.689,0.07-0.955,0.211s-0.484,0.33-0.656,0.568s-0.299,0.515-0.381,0.829s-0.123,0.646-0.123,0.993
		c0,0.332,0.036,0.65,0.108,0.955s0.19,0.574,0.354,0.809s0.377,0.421,0.639,0.56S20.224,131.519,20.606,131.519z"/>
	<path d="M29.683,126.989c-0.164-0.199-0.385-0.35-0.662-0.451s-0.588-0.152-0.932-0.152c-0.359,0-0.68,0.068-0.961,0.205
		s-0.521,0.322-0.718,0.557s-0.348,0.509-0.451,0.823s-0.155,0.649-0.155,1.005s0.044,0.688,0.132,0.999s0.225,0.58,0.41,0.809
		s0.422,0.408,0.709,0.539s0.63,0.196,1.028,0.196c0.727,0,1.316-0.195,1.77-0.586l0.176,0.568
		c-0.258,0.211-0.559,0.362-0.902,0.454s-0.723,0.138-1.137,0.138c-0.488,0-0.916-0.08-1.283-0.24s-0.674-0.379-0.92-0.656
		s-0.431-0.603-0.554-0.976s-0.185-0.771-0.185-1.192c0-0.441,0.066-0.857,0.199-1.248s0.325-0.732,0.577-1.025
		s0.563-0.525,0.932-0.697s0.792-0.258,1.269-0.258c0.457,0,0.851,0.065,1.181,0.196s0.593,0.313,0.788,0.548L29.683,126.989z"/>
	<path d="M35.94,125.946h0.727v4.623c0,0.063,0.002,0.209,0.006,0.439s0.012,0.547,0.023,0.949H35.94v-1.189
		c-0.219,0.461-0.512,0.797-0.879,1.008s-0.814,0.316-1.342,0.316c-0.434,0-0.79-0.074-1.069-0.223s-0.5-0.34-0.662-0.574
		s-0.274-0.497-0.337-0.788s-0.094-0.581-0.094-0.87v-3.691h0.727v3.639c0.012,0.316,0.043,0.595,0.094,0.835
		s0.144,0.441,0.278,0.604s0.31,0.285,0.524,0.369s0.479,0.126,0.791,0.126c0.316,0,0.597-0.052,0.841-0.155
		s0.449-0.246,0.615-0.428s0.293-0.396,0.381-0.642s0.132-0.514,0.132-0.803v-0.07V125.946z"/>
	<path d="M43.259,123.122h0.727v7.389c0,0.258,0.001,0.499,0.003,0.724s0.009,0.466,0.021,0.724h-0.721l-0.035-1.207
		c-0.266,0.469-0.59,0.81-0.973,1.022s-0.822,0.319-1.318,0.319c-0.457,0-0.853-0.081-1.187-0.243s-0.609-0.382-0.826-0.659
		s-0.378-0.604-0.483-0.979s-0.158-0.777-0.158-1.207c0-0.426,0.057-0.832,0.17-1.219s0.284-0.728,0.513-1.022
		s0.513-0.529,0.853-0.703s0.736-0.261,1.189-0.261c0.52,0,0.97,0.109,1.351,0.328s0.673,0.559,0.876,1.02V123.122z M41.132,131.519
		c0.359,0,0.673-0.067,0.94-0.202s0.489-0.321,0.665-0.56s0.307-0.521,0.393-0.85s0.129-0.686,0.129-1.072
		c0-0.375-0.049-0.713-0.146-1.014s-0.236-0.558-0.416-0.771s-0.397-0.377-0.653-0.492s-0.544-0.173-0.864-0.173
		c-0.371,0-0.689,0.07-0.955,0.211s-0.484,0.33-0.656,0.568s-0.299,0.515-0.381,0.829s-0.123,0.646-0.123,0.993
		c0,0.332,0.036,0.65,0.108,0.955s0.19,0.574,0.354,0.809s0.377,0.421,0.639,0.56S40.749,131.519,41.132,131.519z"/>
	<path d="M50.524,123.122h0.727v7.389c0,0.258,0.001,0.499,0.003,0.724s0.009,0.466,0.021,0.724h-0.721l-0.035-1.207
		c-0.266,0.469-0.59,0.81-0.973,1.022s-0.822,0.319-1.318,0.319c-0.457,0-0.853-0.081-1.187-0.243s-0.609-0.382-0.826-0.659
		s-0.378-0.604-0.483-0.979s-0.158-0.777-0.158-1.207c0-0.426,0.057-0.832,0.17-1.219s0.284-0.728,0.513-1.022
		s0.513-0.529,0.853-0.703s0.736-0.261,1.189-0.261c0.52,0,0.97,0.109,1.351,0.328s0.673,0.559,0.876,1.02V123.122z M48.397,131.519
		c0.359,0,0.673-0.067,0.94-0.202s0.489-0.321,0.665-0.56s0.307-0.521,0.393-0.85s0.129-0.686,0.129-1.072
		c0-0.375-0.049-0.713-0.146-1.014s-0.236-0.558-0.416-0.771s-0.397-0.377-0.653-0.492s-0.544-0.173-0.864-0.173
		c-0.371,0-0.689,0.07-0.955,0.211s-0.484,0.33-0.656,0.568s-0.299,0.515-0.381,0.829s-0.123,0.646-0.123,0.993
		c0,0.332,0.036,0.65,0.108,0.955s0.19,0.574,0.354,0.809s0.377,0.421,0.639,0.56S48.015,131.519,48.397,131.519z"/>
	<path d="M54.017,123.122v4.002c0.258-0.461,0.567-0.797,0.929-1.008s0.798-0.316,1.31-0.316c0.391,0,0.717,0.062,0.979,0.185
		s0.473,0.286,0.633,0.489s0.278,0.434,0.354,0.691s0.124,0.521,0.144,0.791l0.012,0.258v3.744h-0.727v-3.105
		c0-0.145-0.002-0.304-0.006-0.478s-0.006-0.263-0.006-0.267c-0.027-0.555-0.177-0.98-0.448-1.277s-0.677-0.445-1.216-0.445
		c-0.324,0-0.608,0.055-0.853,0.164s-0.448,0.26-0.612,0.451s-0.288,0.417-0.372,0.677s-0.124,0.538-0.12,0.835v3.445H53.29v-8.836
		H54.017z"/>
	<path d="M59.583,125.946h0.768l2.127,5.484l2.203-5.484h0.75l-2.713,6.504c-0.109,0.262-0.236,0.509-0.381,0.741
		s-0.308,0.439-0.489,0.621s-0.382,0.335-0.601,0.46s-0.457,0.211-0.715,0.258l-0.393-0.475c0.316-0.082,0.578-0.188,0.785-0.316
		s0.377-0.27,0.51-0.422s0.238-0.311,0.316-0.475s0.148-0.32,0.211-0.469l0.146-0.357L59.583,125.946z"/>
	<path d="M70.229,134.946v-12.152h0.697v12.152H70.229z"/>
</g>
</svg>
