<?xml version="1.0" encoding="utf-8"?>
<!-- Generator: Adobe Illustrator 16.0.0, SVG Export Plug-In . SVG Version: 6.00 Build 0)  -->
<!DOCTYPE svg PUBLIC "-//W3C//DTD SVG 1.1//EN" "http://www.w3.org/Graphics/SVG/1.1/DTD/svg11.dtd">
<svg version="1.1" id="Layer_1" xmlns="http://www.w3.org/2000/svg" xmlns:xlink="http://www.w3.org/1999/xlink" x="0px" y="0px"
	 width="259.2px" height="144px" viewBox="0 0 259.2 144" enable-background="new 0 0 259.2 144" xml:space="preserve">
<rect x="1" y="0.396" fill="#FFFFFF" stroke="#000000" stroke-width="0.25" stroke-miterlimit="10" width="257.202" height="143.604"/>
<path d="M106.299,131.885c-0.137,0-0.274,0-0.412,0c-0.013-0.002-0.026-0.01-0.04-0.01c-0.37-0.009-0.736-0.052-1.099-0.119
	c-0.89-0.167-1.715-0.492-2.483-0.974c-0.012-0.009-0.023-0.019-0.046-0.034c0.676,0.078,1.33,0.023,1.972-0.155
	c0.64-0.179,1.223-0.478,1.751-0.886c-1.157-0.094-1.937-0.678-2.349-1.754c0.379,0.061,0.748,0.048,1.114-0.055
	c-1.39-0.317-2.043-1.561-1.997-2.49c0.18,0.064,0.359,0.141,0.545,0.199c0.186,0.062,0.378,0.086,0.573,0.088
	c-0.538-0.387-0.895-0.894-1.041-1.536c-0.144-0.644-0.049-1.257,0.274-1.831c1.371,1.613,3.103,2.499,5.218,2.646
	c-0.083-0.447-0.078-0.686-0.031-0.983c0.091-0.572,0.351-1.06,0.774-1.453c0.379-0.354,0.824-0.57,1.336-0.646
	c0.071-0.012,0.145-0.021,0.217-0.033c0.112,0,0.224,0,0.336,0c0.085,0.013,0.174,0.021,0.26,0.037
	c0.536,0.093,0.998,0.332,1.379,0.721c0.034,0.037,0.064,0.039,0.108,0.029c0.526-0.113,1.023-0.303,1.489-0.57
	c0.012-0.008,0.026-0.014,0.05-0.021c-0.204,0.596-0.568,1.049-1.102,1.387c0.027,0,0.037,0.002,0.045,0
	c0.261-0.056,0.526-0.102,0.785-0.17c0.208-0.058,0.409-0.145,0.613-0.222c0,0.005,0,0.009,0,0.013
	c-0.01,0.008-0.02,0.016-0.026,0.024c-0.33,0.479-0.732,0.896-1.199,1.246c-0.02,0.013-0.034,0.046-0.034,0.067
	c0.009,0.381-0.003,0.759-0.052,1.135c-0.057,0.461-0.156,0.913-0.301,1.355c-0.384,1.176-1.008,2.202-1.898,3.064
	c-0.342,0.329-0.711,0.619-1.115,0.871c-1.074,0.668-2.249,1-3.511,1.047C106.369,131.875,106.334,131.881,106.299,131.885z"/>
<g>
	<path d="M79.731,130.753c0,0.317,0.005,0.644-0.002,0.966c-0.005,0.192-0.177,0.283-0.387,0.215
		c-0.553-0.184-1.062-0.451-1.521-0.813c-1.101-0.857-1.775-1.979-1.983-3.361c-0.388-2.609,1.236-5.066,3.804-5.781
		c2.708-0.752,5.55,0.78,6.409,3.453c0.861,2.685-0.618,5.601-3.291,6.496c-0.262,0.09-0.414-0.021-0.413-0.297
		c0.001-0.391-0.003-0.781,0.004-1.172c0.007-0.415-0.027-0.816-0.341-1.148c0.195-0.035,0.375-0.063,0.552-0.102
		c0.567-0.129,1.067-0.37,1.411-0.863c0.248-0.357,0.366-0.764,0.396-1.191c0.018-0.26,0.02-0.525-0.01-0.782
		c-0.042-0.363-0.203-0.683-0.442-0.961c-0.047-0.058-0.054-0.104-0.032-0.177c0.12-0.409,0.087-0.814-0.064-1.209
		c-0.015-0.039-0.084-0.08-0.126-0.08c-0.252-0.006-0.483,0.076-0.704,0.185c-0.191,0.093-0.37,0.207-0.557,0.306
		c-0.046,0.024-0.11,0.041-0.158,0.029c-0.824-0.199-1.646-0.201-2.47-0.001c-0.05,0.013-0.122-0.005-0.168-0.034
		c-0.344-0.212-0.693-0.406-1.101-0.477c-0.033-0.004-0.066-0.005-0.099-0.012c-0.119-0.021-0.177,0.029-0.212,0.146
		c-0.116,0.391-0.146,0.78-0.027,1.178c0.012,0.034,0,0.092-0.023,0.118c-0.468,0.546-0.552,1.183-0.46,1.863
		c0.058,0.437,0.184,0.845,0.46,1.192c0.34,0.431,0.805,0.646,1.322,0.769c0.181,0.042,0.366,0.069,0.564,0.106
		c-0.176,0.188-0.27,0.406-0.313,0.647c-0.005,0.026-0.046,0.056-0.077,0.067c-0.582,0.25-1.11,0.084-1.448-0.446
		c-0.168-0.269-0.387-0.47-0.705-0.534c-0.076-0.016-0.158-0.018-0.234-0.003c-0.129,0.022-0.145,0.095-0.049,0.188
		c0.034,0.037,0.072,0.07,0.114,0.097c0.282,0.166,0.457,0.421,0.578,0.715c0.199,0.485,0.581,0.699,1.077,0.733
		C79.241,130.794,79.477,130.766,79.731,130.753z"/>
	<path d="M78.355,129.951c0.055,0.07,0.092,0.111,0.119,0.158c0.004,0.008-0.057,0.063-0.061,0.061
		c-0.044-0.027-0.085-0.063-0.117-0.105C78.289,130.055,78.321,130.014,78.355,129.951z"/>
	<path d="M78.748,130.4c-0.041-0.049-0.073-0.086-0.103-0.121c0.03-0.021,0.072-0.063,0.091-0.055
		c0.045,0.021,0.081,0.063,0.119,0.096C78.827,130.344,78.796,130.365,78.748,130.4z"/>
	<path d="M79.595,130.208c0.041,0.043,0.066,0.073,0.092,0.101c-0.04,0.029-0.08,0.069-0.123,0.08
		c-0.027,0.004-0.063-0.046-0.093-0.07C79.506,130.286,79.542,130.255,79.595,130.208z"/>
	<path d="M79.17,130.26c0.048,0.043,0.083,0.071,0.116,0.102c-0.037,0.027-0.074,0.074-0.11,0.074c-0.036,0-0.072-0.047-0.108-0.076
		C79.098,130.331,79.127,130.305,79.17,130.26z"/>
	<path d="M78.236,129.816c-0.048,0.026-0.085,0.06-0.092,0.054c-0.038-0.03-0.068-0.069-0.094-0.11
		c-0.004-0.005,0.056-0.062,0.061-0.058C78.149,129.73,78.183,129.768,78.236,129.816z"/>
	<path d="M78.021,129.529c-0.048,0.023-0.08,0.052-0.09,0.044c-0.034-0.022-0.062-0.056-0.085-0.091
		c-0.004-0.004,0.042-0.053,0.046-0.051C77.932,129.456,77.966,129.484,78.021,129.529z"/>
</g>
<rect x="10.551" y="8.919" fill="none" width="239.208" height="128.94"/>
<path d="M89.216,131.438c0-3.043,0-6.088,0-9.131c0.024-0.06,0.042-0.117,0.07-0.172c0.092-0.189,0.255-0.285,0.446-0.347
	c3.044,0,6.087,0,9.132,0c0.077,0.036,0.159,0.063,0.232,0.106c0.157,0.09,0.229,0.246,0.285,0.41c0,3.043,0,6.09,0,9.133
	c-0.036,0.078-0.063,0.158-0.106,0.229c-0.094,0.155-0.245,0.231-0.411,0.286c-3.045,0-6.088,0-9.132,0
	c-0.058-0.021-0.117-0.043-0.173-0.07C89.372,131.793,89.278,131.63,89.216,131.438z M97.924,130.023c0-0.047,0-0.09,0-0.133
	c0-0.721-0.001-1.441,0-2.162c0.001-0.396-0.023-0.787-0.168-1.16c-0.224-0.577-0.622-0.948-1.25-1.017
	c-0.593-0.063-1.089,0.123-1.434,0.634c-0.009,0.015-0.008,0.032-0.011,0.051c-0.012-0.01-0.023-0.019-0.034-0.025
	c0-0.188,0-0.375,0-0.563c-0.494,0-0.978,0-1.463,0c0,1.463,0,2.918,0,4.373c0.494,0,0.978,0,1.467,0c0-0.063,0-0.112,0-0.166
	c0-0.768,0-1.535,0.002-2.304c0.002-0.311,0.157-0.532,0.417-0.687c0.406-0.234,0.88-0.038,0.99,0.414
	c0.036,0.146,0.053,0.3,0.055,0.451c0.007,0.519,0.003,1.037,0.003,1.557c0,0.245,0,0.488,0,0.736
	C96.975,130.023,97.444,130.023,97.924,130.023z M92.598,130.025c0-1.461,0-2.909,0-4.36c-0.482,0-0.956,0-1.433,0
	c0,1.456,0,2.905,0,4.36C91.646,130.025,92.116,130.025,92.598,130.025z M91.801,125.191c0.426-0.006,0.724-0.305,0.719-0.729
	c-0.004-0.446-0.298-0.735-0.746-0.729c-0.4,0.006-0.697,0.314-0.693,0.725C91.086,124.898,91.376,125.195,91.801,125.191z"/>
<text transform="matrix(1 0 0 1 12.0063 27.3389)"><tspan x="0" y="0" font-family='mulilight' font-size="16">Drew_Cuddhy.Web_Developer</tspan><tspan x="111.08" y="14.4" font-family='mulilight' font-size="12">dcuddhy@gmail.com</tspan></text>
<text transform="matrix(1 0 0 1 17.126 131.958)" font-family='mulilight' font-size="12">dcuddhy |</text>
</svg>
