<?xml version="1.0" encoding="utf-8"?>
<!-- Generator: Adobe Illustrator 16.0.0, SVG Export Plug-In . SVG Version: 6.00 Build 0)  -->
<!DOCTYPE svg PUBLIC "-//W3C//DTD SVG 1.1//EN" "http://www.w3.org/Graphics/SVG/1.1/DTD/svg11.dtd">
<svg version="1.1" id="Layer_1" xmlns="http://www.w3.org/2000/svg" xmlns:xlink="http://www.w3.org/1999/xlink" x="0px" y="0px"
	 width="252px" height="144px" viewBox="0 0 252 144" style="enable-background:new 0 0 252 144;" xml:space="preserve">
<style type="text/css">
<![CDATA[
	.st0{fill-rule:evenodd;clip-rule:evenodd;fill:#A72D3A;}
	.st1{fill-rule:evenodd;clip-rule:evenodd;fill:#A93E38;}
	.st2{fill-rule:evenodd;clip-rule:evenodd;fill:#4972B8;}
	.st3{fill-rule:evenodd;clip-rule:evenodd;fill:#E0C2B2;}
	.st4{fill-rule:evenodd;clip-rule:evenodd;fill:#E34E32;}
	.st5{fill-rule:evenodd;clip-rule:evenodd;fill:#E44F26;}
	.st6{fill:#FFFFFF;stroke:#000000;stroke-width:0.25;stroke-miterlimit:10;}
	.st7{fill-rule:evenodd;clip-rule:evenodd;fill:#B3534F;}
	.st8{fill-rule:evenodd;clip-rule:evenodd;fill:#843F45;}
	.st9{fill-rule:evenodd;clip-rule:evenodd;fill:#B45F4B;}
	.st10{fill-rule:evenodd;clip-rule:evenodd;fill:#85595D;}
	.st11{fill-rule:evenodd;clip-rule:evenodd;fill:#EBE9E9;}
	.st12{fill-rule:evenodd;clip-rule:evenodd;fill:#EBEAEA;}
	.st13{fill-rule:evenodd;clip-rule:evenodd;fill:#5691CD;}
	.st14{fill-rule:evenodd;clip-rule:evenodd;fill:#56A3D9;}
	.st15{fill-rule:evenodd;clip-rule:evenodd;}
	.st16{fill-rule:evenodd;clip-rule:evenodd;fill:#BE7364;}
	.st17{fill-rule:evenodd;clip-rule:evenodd;fill:#F0672C;}
	.st18{fill-rule:evenodd;clip-rule:evenodd;fill:#F0DB4F;}
	.st19{fill-rule:evenodd;clip-rule:evenodd;fill:#F1662A;}
	.st20{fill:none;}
	.st21{fill-rule:evenodd;clip-rule:evenodd;fill:#5E0C15;}
	.st22{fill-rule:evenodd;clip-rule:evenodd;fill:#962933;}
	.st23{fill-rule:evenodd;clip-rule:evenodd;fill:#C68678;}
	.st24{font-family:'FZDX--GB1-4';}
	.st25{fill-rule:evenodd;clip-rule:evenodd;fill:#FDFBF0;}
	.st26{fill-rule:evenodd;clip-rule:evenodd;fill:#FDFBFA;}
	.st27{fill-rule:evenodd;clip-rule:evenodd;fill:#FEFEFF;}
	.st28{fill-rule:evenodd;clip-rule:evenodd;fill:#FFFEFE;}
	.st29{fill-rule:evenodd;clip-rule:evenodd;fill:#FFFFFF;}
	.st30{font-size:12;}
	.st31{font-size:16;}
	.st32{fill-rule:evenodd;clip-rule:evenodd;fill:#9B393C;}
	.st33{fill-rule:evenodd;clip-rule:evenodd;fill:#9F4246;}
	.st34{fill-rule:evenodd;clip-rule:evenodd;fill:#333431;}
	.st35{fill-rule:evenodd;clip-rule:evenodd;fill:#6B1D25;}
	.st36{fill-rule:evenodd;clip-rule:evenodd;fill:#D3A78E;}
]]>
</style>
<g>
	<rect y="2.672" class="st6" width="251.334" height="140.328"/>
	<text transform="matrix(1 0 0 1 14.3091 29.0005)"><tspan x="0" y="0" class="st24 st31">Drew_Cuddhy.Web_Developer</tspan><tspan x="105.41" y="14.4" class="st24 st30">dcuddhy@gmail.com</tspan><tspan x="150.849" y="28.8" class="st24 st30">609.408.5891</tspan></text>
	<text transform="matrix(1 0 0 1 15.3325 131)" class="st24 st30">dcuddhy | </text>
	<path class="st15" d="M102.897,131.162c-0.134,0-0.268,0-0.402,0c-0.013-0.002-0.025-0.01-0.039-0.01
		c-0.361-0.008-0.719-0.051-1.074-0.117c-0.869-0.162-1.676-0.482-2.426-0.951c-0.012-0.008-0.023-0.018-0.046-0.033
		c0.661,0.076,1.3,0.023,1.927-0.152c0.626-0.174,1.195-0.465,1.711-0.865c-1.131-0.09-1.893-0.662-2.295-1.715
		c0.37,0.061,0.73,0.049,1.089-0.051c-1.358-0.313-1.997-1.525-1.952-2.436c0.176,0.064,0.352,0.139,0.533,0.197
		s0.369,0.082,0.561,0.084c-0.525-0.377-0.875-0.871-1.018-1.502c-0.141-0.629-0.048-1.227,0.268-1.789
		c1.34,1.578,3.032,2.443,5.1,2.586c-0.082-0.436-0.076-0.668-0.03-0.961c0.089-0.559,0.343-1.035,0.757-1.42
		c0.37-0.346,0.805-0.557,1.306-0.631c0.069-0.012,0.142-0.021,0.212-0.031c0.109,0,0.219,0,0.328,0
		c0.084,0.012,0.17,0.02,0.254,0.035c0.523,0.092,0.975,0.324,1.348,0.705c0.033,0.035,0.063,0.037,0.105,0.027
		c0.514-0.109,1-0.295,1.455-0.557c0.012-0.008,0.025-0.014,0.049-0.021c-0.199,0.582-0.555,1.023-1.076,1.354
		c0.026,0,0.035,0.002,0.044,0c0.255-0.053,0.514-0.098,0.767-0.166c0.203-0.055,0.399-0.141,0.6-0.215c0,0.004,0,0.008,0,0.012
		c-0.01,0.008-0.02,0.014-0.025,0.023c-0.322,0.471-0.715,0.877-1.172,1.219c-0.02,0.012-0.033,0.045-0.033,0.066
		c0.009,0.371-0.003,0.74-0.051,1.107c-0.056,0.451-0.152,0.893-0.294,1.324c-0.375,1.15-0.985,2.154-1.854,2.996
		c-0.334,0.322-0.695,0.605-1.09,0.852c-1.049,0.652-2.197,0.977-3.431,1.023C102.966,131.152,102.932,131.158,102.897,131.162z"/>
	<g>
		<path class="st15" d="M76.936,130.057c0,0.311,0.005,0.627-0.002,0.943c-0.005,0.188-0.173,0.277-0.378,0.209
			c-0.54-0.18-1.037-0.441-1.485-0.793c-1.076-0.84-1.735-1.934-1.938-3.285c-0.379-2.551,1.208-4.951,3.717-5.65
			c2.646-0.734,5.424,0.764,6.263,3.375c0.841,2.623-0.604,5.473-3.216,6.348c-0.256,0.086-0.404-0.02-0.403-0.289
			c0.001-0.383-0.003-0.764,0.004-1.146c0.007-0.404-0.026-0.797-0.333-1.123c0.19-0.033,0.366-0.059,0.539-0.098
			c0.554-0.127,1.043-0.361,1.379-0.844c0.242-0.35,0.357-0.746,0.387-1.164c0.018-0.256,0.02-0.514-0.01-0.766
			c-0.041-0.355-0.198-0.666-0.432-0.939c-0.047-0.055-0.053-0.102-0.031-0.172c0.117-0.4,0.085-0.795-0.063-1.182
			c-0.015-0.037-0.082-0.078-0.123-0.078c-0.246-0.006-0.473,0.076-0.688,0.18c-0.187,0.092-0.361,0.203-0.544,0.299
			c-0.045,0.023-0.107,0.039-0.154,0.029c-0.805-0.195-1.608-0.197-2.414-0.002c-0.049,0.012-0.119-0.004-0.164-0.033
			c-0.336-0.207-0.678-0.396-1.076-0.465c-0.032-0.004-0.064-0.006-0.097-0.012c-0.116-0.02-0.173,0.029-0.207,0.145
			c-0.114,0.381-0.144,0.762-0.026,1.148c0.012,0.035,0,0.092-0.023,0.117c-0.457,0.533-0.539,1.156-0.449,1.822
			c0.057,0.424,0.18,0.824,0.449,1.166c0.332,0.42,0.787,0.631,1.292,0.748c0.177,0.043,0.357,0.068,0.552,0.105
			c-0.172,0.184-0.264,0.396-0.306,0.633c-0.005,0.027-0.045,0.055-0.075,0.066c-0.568,0.244-1.084,0.082-1.414-0.438
			c-0.165-0.262-0.379-0.457-0.689-0.521c-0.074-0.014-0.154-0.016-0.229-0.002c-0.127,0.023-0.142,0.092-0.049,0.186
			c0.033,0.035,0.07,0.068,0.112,0.092c0.275,0.164,0.446,0.412,0.564,0.699c0.194,0.475,0.567,0.684,1.053,0.717
			C76.456,130.096,76.687,130.066,76.936,130.057z"/>
		<path class="st15" d="M75.591,129.271c0.054,0.07,0.09,0.111,0.116,0.156c0.004,0.006-0.056,0.063-0.06,0.059
			c-0.043-0.029-0.084-0.063-0.114-0.104C75.526,129.373,75.558,129.332,75.591,129.271z"/>
		<path class="st15" d="M75.975,129.711c-0.04-0.047-0.071-0.084-0.101-0.117c0.029-0.021,0.07-0.061,0.089-0.055
			c0.044,0.021,0.079,0.063,0.116,0.094C76.052,129.656,76.021,129.678,75.975,129.711z"/>
		<path class="st15" d="M76.802,129.523c0.04,0.043,0.064,0.07,0.09,0.098c-0.039,0.029-0.078,0.068-0.12,0.078
			c-0.026,0.002-0.062-0.045-0.091-0.068C76.716,129.6,76.751,129.568,76.802,129.523z"/>
		<path class="st15" d="M76.388,129.574c0.047,0.041,0.08,0.068,0.113,0.098c-0.036,0.027-0.072,0.072-0.107,0.072
			c-0.035,0.002-0.07-0.045-0.105-0.074C76.316,129.643,76.345,129.617,76.388,129.574z"/>
		<path class="st15" d="M75.474,129.141c-0.047,0.027-0.083,0.059-0.09,0.053c-0.037-0.029-0.066-0.068-0.092-0.109
			c-0.004-0.004,0.055-0.059,0.06-0.055C75.39,129.057,75.422,129.092,75.474,129.141z"/>
		<path class="st15" d="M75.265,128.859c-0.047,0.025-0.078,0.051-0.088,0.043c-0.033-0.021-0.061-0.055-0.083-0.088
			c-0.004-0.004,0.041-0.051,0.045-0.049C75.177,128.787,75.21,128.816,75.265,128.859z"/>
	</g>
	<rect x="9.333" y="11" class="st20" width="233.751" height="126"/>
	<path class="st15" d="M86.204,130.727c0-2.975,0-5.951,0-8.924c0.023-0.059,0.041-0.115,0.068-0.168
		c0.09-0.186,0.25-0.279,0.437-0.338c2.975,0,5.948,0,8.924,0c0.075,0.035,0.155,0.061,0.227,0.104
		c0.153,0.09,0.224,0.24,0.278,0.402c0,2.973,0,5.949,0,8.924c-0.035,0.074-0.062,0.154-0.104,0.225
		c-0.092,0.152-0.239,0.227-0.401,0.279c-2.976,0-5.949,0-8.924,0c-0.057-0.021-0.114-0.043-0.169-0.068
		C86.356,131.072,86.265,130.912,86.204,130.727z M94.713,129.344c0-0.047,0-0.088,0-0.131c0-0.703-0.001-1.408,0-2.111
		c0.001-0.387-0.022-0.77-0.164-1.135c-0.219-0.564-0.607-0.926-1.222-0.992c-0.58-0.063-1.064,0.119-1.401,0.619
		c-0.009,0.012-0.008,0.031-0.011,0.049c-0.012-0.01-0.022-0.018-0.033-0.025c0-0.184,0-0.367,0-0.551c-0.482,0-0.956,0-1.43,0
		c0,1.43,0,2.854,0,4.273c0.482,0,0.955,0,1.434,0c0-0.061,0-0.109,0-0.162c0-0.75,0-1.5,0.002-2.25
		c0.002-0.303,0.153-0.521,0.407-0.67c0.396-0.23,0.86-0.039,0.968,0.402c0.035,0.145,0.052,0.293,0.054,0.441
		c0.007,0.508,0.003,1.014,0.003,1.521c0,0.24,0,0.477,0,0.721C93.786,129.344,94.244,129.344,94.713,129.344z M89.509,129.346
		c0-1.428,0-2.844,0-4.262c-0.471,0-0.934,0-1.4,0c0,1.424,0,2.84,0,4.262C88.578,129.346,89.038,129.346,89.509,129.346z
		 M88.729,124.621c0.416-0.004,0.707-0.299,0.703-0.713c-0.004-0.438-0.291-0.719-0.729-0.713c-0.392,0.006-0.682,0.307-0.678,0.707
		C88.031,124.336,88.314,124.625,88.729,124.621z"/>
</g>
<g>
	<path class="st5" d="M266.986,69.914c3.992,0,7.986,0,11.979,0c-0.02,0.215-0.039,0.43-0.059,0.646
		c-0.119,1.335-0.242,2.671-0.361,4.005c-0.109,1.24-0.217,2.479-0.328,3.717c-0.111,1.248-0.227,2.496-0.334,3.744
		c-0.008,0.082-0.037,0.111-0.111,0.131c-1.248,0.344-2.496,0.689-3.742,1.037c-0.334,0.094-0.674,0.17-1,0.289
		c-0.045,0-0.088,0-0.133,0c-0.01-0.025-0.033-0.023-0.053-0.029c-0.566-0.158-1.131-0.316-1.693-0.473
		c-0.99-0.275-1.98-0.549-2.969-0.822c-0.055-0.016-0.104-0.021-0.111-0.104c-0.094-1.08-0.191-2.162-0.287-3.242
		c-0.084-0.938-0.164-1.873-0.248-2.809c-0.084-0.945-0.17-1.889-0.256-2.834C267.182,72.084,267.084,71,266.986,69.914z
		 M272.977,79.318c-0.014,0-0.027,0.004-0.039,0.002c-0.518-0.141-1.035-0.283-1.557-0.42c-0.066-0.018-0.076-0.055-0.082-0.111
		c-0.029-0.33-0.064-0.658-0.088-0.988c-0.008-0.096-0.035-0.123-0.133-0.121c-0.418,0.006-0.838,0.008-1.258,0
		c-0.117-0.002-0.137,0.033-0.127,0.141c0.066,0.689,0.127,1.379,0.186,2.068c0.01,0.117,0.051,0.17,0.17,0.203
		c0.969,0.262,1.934,0.533,2.902,0.801c0.031,0.053,0.023,0.111,0.023,0.168c0.002,0.41,0.004,0.822,0,1.232
		c-0.002,0.113,0.008,0.156,0.145,0.117c0.695-0.199,1.395-0.387,2.09-0.58c0.537-0.146,1.07-0.297,1.605-0.447
		c0.064-0.018,0.131-0.027,0.137-0.119c0.016-0.213,0.035-0.428,0.053-0.643c0.027-0.342,0.055-0.684,0.086-1.025
		c0.031-0.355,0.068-0.709,0.1-1.064c0.021-0.24,0.039-0.482,0.061-0.723c0.033-0.359,0.066-0.719,0.1-1.078
		c0.02-0.232,0.039-0.465,0.059-0.695c0.033-0.352,0.068-0.701,0.1-1.051c0.029-0.328,0.057-0.658,0.086-0.986
		c0.033-0.373,0.064-0.744,0.1-1.117c0.023-0.254,0.049-0.508,0.07-0.762c0.031-0.35,0.057-0.7,0.09-1.051
		c0.01-0.119-0.037-0.15-0.15-0.15c-1.527,0.004-3.057,0.004-4.584,0c-0.109,0-0.146,0.034-0.145,0.145
		c0.004,0.445,0.002,0.891,0.002,1.338c-0.053,0.002-0.105,0.004-0.158,0.004c-1.154,0-2.311,0.002-3.467-0.002
		c-0.125-0.002-0.143,0.031-0.125,0.146c0.031,0.24,0.045,0.482,0.066,0.725c0.059,0.654,0.119,1.307,0.176,1.961
		c0.049,0.566,0.098,1.133,0.146,1.697c0.047,0.051,0.107,0.031,0.162,0.031c1.014,0.002,2.029,0.004,3.045-0.002
		c0.121,0,0.156,0.039,0.156,0.158C272.975,77.854,272.977,78.584,272.977,79.318z"/>
	<path class="st19" d="M272.977,72.4c0-0.447,0.002-0.893-0.002-1.338c-0.002-0.11,0.035-0.145,0.145-0.145
		c1.527,0.004,3.057,0.004,4.584,0c0.113,0,0.16,0.031,0.15,0.15c-0.033,0.351-0.059,0.701-0.09,1.051
		c-0.021,0.254-0.047,0.508-0.07,0.762c-0.035,0.373-0.066,0.744-0.1,1.117c-0.029,0.328-0.057,0.658-0.086,0.986
		c-0.031,0.35-0.066,0.699-0.1,1.051c-0.02,0.23-0.039,0.463-0.059,0.695c-0.033,0.359-0.066,0.719-0.1,1.078
		c-0.021,0.24-0.039,0.482-0.061,0.723c-0.031,0.355-0.068,0.709-0.1,1.064c-0.031,0.342-0.059,0.684-0.086,1.025
		c-0.018,0.215-0.037,0.43-0.053,0.643c-0.006,0.092-0.072,0.102-0.137,0.119c-0.535,0.15-1.068,0.301-1.605,0.447
		c-0.695,0.193-1.395,0.381-2.09,0.58c-0.137,0.039-0.146-0.004-0.145-0.117c0.004-0.41,0.002-0.822,0-1.232
		c0-0.057,0.008-0.115-0.023-0.168c0.008-0.002,0.018-0.006,0.025-0.01c0.031-0.004,0.061-0.006,0.09-0.014
		c0.895-0.248,1.791-0.496,2.686-0.744c0.307-0.086,0.299-0.086,0.324-0.406c0.053-0.641,0.111-1.283,0.17-1.924
		c0.066-0.738,0.131-1.477,0.203-2.213c0.01-0.117-0.018-0.148-0.137-0.148c-1.07,0.004-2.139,0.002-3.207,0.002
		c-0.045,0-0.088,0.008-0.131,0.01c0.002-0.006,0.002-0.012,0-0.018c0-0.504,0.002-1.006,0.002-1.51l-0.002-0.012
		c1.178,0.002,2.355,0.004,3.533,0.008c0.068,0,0.092-0.025,0.098-0.092c0.033-0.434,0.07-0.869,0.111-1.303
		c0.01-0.092-0.008-0.117-0.104-0.117c-0.502,0.006-1.006,0.002-1.508,0.002c-0.711,0.002-1.42,0.004-2.131,0.006L272.977,72.4z"/>
	<path class="st11" d="M269.615,76.932c-0.049-0.564-0.098-1.131-0.146-1.697c-0.057-0.654-0.117-1.307-0.176-1.961
		c-0.021-0.242-0.035-0.484-0.066-0.725c-0.018-0.115,0-0.148,0.125-0.146c1.156,0.004,2.313,0.002,3.467,0.002
		c0.053,0,0.105-0.002,0.158-0.004l-0.002,0.01c0,0.498,0,0.996,0,1.496l0.002,0.012c-0.68-0.002-1.359-0.004-2.039-0.008
		c-0.072,0-0.072,0.031-0.066,0.088c0.041,0.449,0.08,0.896,0.115,1.346c0.008,0.076,0.039,0.094,0.109,0.094
		c0.291-0.004,0.582,0,0.873-0.002c0.336-0.002,0.672-0.006,1.006-0.008c0.002,0.006,0.002,0.012,0,0.018
		c0,0.498,0,0.994,0.002,1.49c-0.031,0.002-0.063,0.004-0.092,0.004c-1.051,0-2.102,0-3.152,0
		C269.693,76.939,269.654,76.936,269.615,76.932z"/>
	<path class="st12" d="M272.977,80.883c-0.008,0.004-0.018,0.008-0.025,0.01c-0.969-0.268-1.934-0.539-2.902-0.801
		c-0.119-0.033-0.16-0.086-0.17-0.203c-0.059-0.689-0.119-1.379-0.186-2.068c-0.01-0.107,0.01-0.143,0.127-0.141
		c0.42,0.008,0.84,0.006,1.258,0c0.098-0.002,0.125,0.025,0.133,0.121c0.023,0.33,0.059,0.658,0.088,0.988
		c0.006,0.057,0.016,0.094,0.082,0.111c0.521,0.137,1.039,0.279,1.557,0.42c0.012,0.002,0.025-0.002,0.039-0.002l-0.002,0.01
		C272.975,79.846,272.975,80.365,272.977,80.883z"/>
	<path class="st17" d="M269.615,76.932c0.039,0.004,0.078,0.008,0.117,0.008c1.051,0,2.102,0,3.152,0
		c0.029,0,0.061-0.002,0.092-0.004c0.561,0.002,1.119,0.004,1.678,0.006c0.162,0,0.16,0,0.145,0.158
		c-0.051,0.553-0.104,1.105-0.148,1.658c-0.008,0.09-0.033,0.127-0.123,0.15c-0.518,0.137-1.035,0.279-1.553,0.42l0.002-0.01
		c0-0.734-0.002-1.465,0.002-2.199c0-0.119-0.035-0.158-0.156-0.158c-1.016,0.006-2.031,0.004-3.045,0.002
		C269.723,76.963,269.662,76.982,269.615,76.932z"/>
	<path class="st28" d="M272.975,79.328c0.518-0.141,1.035-0.283,1.553-0.42c0.09-0.023,0.115-0.061,0.123-0.15
		c0.045-0.553,0.098-1.105,0.148-1.658c0.016-0.158,0.018-0.158-0.145-0.158c-0.559-0.002-1.117-0.004-1.678-0.006
		c-0.002-0.496-0.002-0.992-0.002-1.49c0.043-0.002,0.086-0.01,0.131-0.01c1.068,0,2.137,0.002,3.207-0.002
		c0.119,0,0.146,0.031,0.137,0.148c-0.072,0.736-0.137,1.475-0.203,2.213c-0.059,0.641-0.117,1.283-0.17,1.924
		c-0.025,0.32-0.018,0.32-0.324,0.406c-0.895,0.248-1.791,0.496-2.686,0.744c-0.029,0.008-0.059,0.01-0.09,0.014
		C272.975,80.365,272.975,79.846,272.975,79.328z"/>
	<path class="st28" d="M272.975,73.906c0-0.5,0-0.998,0-1.496c0.711-0.002,1.42-0.004,2.131-0.006c0.502,0,1.006,0.004,1.508-0.002
		c0.096,0,0.113,0.025,0.104,0.117c-0.041,0.434-0.078,0.869-0.111,1.303c-0.006,0.066-0.029,0.092-0.098,0.092
		C275.33,73.91,274.152,73.908,272.975,73.906z"/>
	<path class="st5" d="M272.975,75.428c-0.334,0.002-0.67,0.006-1.006,0.008c-0.291,0.002-0.582-0.002-0.873,0.002
		c-0.07,0-0.102-0.018-0.109-0.094c-0.035-0.449-0.074-0.896-0.115-1.346c-0.006-0.057-0.006-0.088,0.066-0.088
		c0.68,0.004,1.359,0.006,2.039,0.008C272.977,74.422,272.975,74.924,272.975,75.428z"/>
</g>
<g>
	<path class="st18" d="M266.439,45.292c0-4.336,0-8.671,0-13.007c0.029,0,0.059,0,0.088,0c4.279,0,8.559,0,12.838,0
		c0.094,0,0.084-0.012,0.084,0.081c0,4.282,0,8.563,0,12.844c0,0.027-0.002,0.054-0.004,0.08c-4.322,0-8.645,0-12.969,0
		C266.465,45.291,266.453,45.292,266.439,45.292z M276.393,44.261c0.336-0.003,0.662-0.045,0.977-0.168
		c0.393-0.155,0.705-0.403,0.895-0.791c0.133-0.276,0.17-0.569,0.156-0.873c-0.023-0.494-0.215-0.903-0.602-1.217
		c-0.258-0.21-0.551-0.361-0.852-0.498c-0.258-0.118-0.523-0.217-0.777-0.347c-0.111-0.058-0.217-0.125-0.307-0.216
		c-0.207-0.213-0.219-0.721,0.207-0.863c0.291-0.097,0.564-0.046,0.797,0.17c0.082,0.079,0.146,0.172,0.203,0.27
		c0.018,0.028,0.029,0.039,0.061,0.018c0.295-0.19,0.59-0.379,0.885-0.567c0.025-0.017,0.027-0.03,0.012-0.054
		c-0.193-0.327-0.439-0.607-0.795-0.761c-0.557-0.241-1.129-0.249-1.699-0.042c-0.379,0.139-0.668,0.393-0.85,0.758
		c-0.139,0.277-0.176,0.573-0.156,0.878c0.029,0.438,0.191,0.813,0.52,1.114c0.23,0.213,0.5,0.365,0.785,0.495
		c0.285,0.131,0.58,0.243,0.861,0.385c0.123,0.062,0.24,0.129,0.336,0.23c0.139,0.146,0.18,0.321,0.139,0.514
		c-0.045,0.208-0.189,0.337-0.381,0.406c-0.371,0.132-0.734,0.105-1.08-0.082c-0.229-0.124-0.391-0.32-0.527-0.537
		c-0.023-0.037-0.039-0.04-0.076-0.019c-0.301,0.176-0.602,0.351-0.904,0.523c-0.039,0.022-0.039,0.039-0.02,0.075
		c0.182,0.333,0.428,0.604,0.746,0.809C275.389,44.152,275.877,44.256,276.393,44.261z M273.508,40.464c0.002,0,0.002,0,0.004,0
		c0-0.718,0-1.436,0-2.153c0-0.047-0.01-0.062-0.061-0.062c-0.357,0.002-0.717,0.001-1.076,0.001c-0.082,0-0.082,0-0.082,0.08
		c0,1.343,0,2.686,0,4.028c0,0.107-0.006,0.214-0.023,0.32c-0.043,0.232-0.15,0.408-0.398,0.467
		c-0.072,0.018-0.146,0.021-0.221,0.023c-0.219,0.006-0.4-0.076-0.545-0.241c-0.09-0.105-0.162-0.224-0.229-0.344
		c-0.018-0.03-0.027-0.042-0.064-0.02c-0.305,0.187-0.611,0.372-0.918,0.556c-0.031,0.018-0.033,0.032-0.018,0.063
		c0.205,0.41,0.504,0.729,0.932,0.906c0.553,0.227,1.115,0.231,1.678,0.038c0.393-0.134,0.674-0.398,0.846-0.775
		c0.111-0.241,0.172-0.497,0.174-0.76C273.512,41.883,273.508,41.173,273.508,40.464z"/>
	<path class="st25" d="M279.445,45.291c0.002-0.026,0.004-0.053,0.004-0.08c0-4.281,0-8.563,0-12.844
		c0-0.093,0.01-0.081-0.084-0.081c-4.279,0-8.559,0-12.838,0c-0.029,0-0.059,0-0.088,0c0.004-0.004-0.006-0.013,0.008-0.013
		c0.016,0.001,0.031,0,0.049,0c4.301,0,8.604,0,12.904-0.001c0.051,0,0.061,0.01,0.061,0.06c0,4.32,0,8.641,0,12.961
		C279.455,45.292,279.451,45.291,279.445,45.291z"/>
	<path class="st29" d="M279.445,45.291c0.006,0,0.01,0.001,0.016,0.001c-0.004,0.004,0.006,0.013-0.006,0.012
		c-0.018,0-0.035,0-0.051,0c-4.303,0-8.605,0-12.908,0c-0.018,0-0.043,0.014-0.057-0.012c0.014,0,0.025-0.001,0.037-0.001
		C270.801,45.291,275.123,45.291,279.445,45.291z"/>
	<path class="st34" d="M276.393,44.261c-0.516-0.005-1.004-0.109-1.447-0.391c-0.318-0.204-0.564-0.476-0.746-0.809
		c-0.02-0.036-0.02-0.052,0.02-0.075c0.303-0.173,0.604-0.347,0.904-0.523c0.037-0.021,0.053-0.018,0.076,0.019
		c0.137,0.217,0.299,0.413,0.527,0.537c0.346,0.187,0.709,0.214,1.08,0.082c0.191-0.069,0.336-0.197,0.381-0.406
		c0.041-0.193,0-0.368-0.139-0.514c-0.096-0.101-0.213-0.168-0.336-0.23c-0.281-0.142-0.576-0.254-0.861-0.385
		c-0.285-0.13-0.555-0.282-0.785-0.495c-0.328-0.3-0.49-0.676-0.52-1.114c-0.02-0.305,0.018-0.601,0.156-0.878
		c0.182-0.365,0.471-0.62,0.85-0.758c0.57-0.207,1.143-0.199,1.699,0.042c0.355,0.154,0.602,0.434,0.795,0.761
		c0.016,0.024,0.014,0.038-0.012,0.054c-0.295,0.188-0.59,0.377-0.885,0.567c-0.031,0.021-0.043,0.01-0.061-0.018
		c-0.057-0.098-0.121-0.191-0.203-0.27c-0.232-0.216-0.506-0.267-0.797-0.17c-0.426,0.142-0.414,0.649-0.207,0.863
		c0.09,0.092,0.195,0.158,0.307,0.216c0.254,0.13,0.52,0.229,0.777,0.347c0.301,0.137,0.594,0.288,0.852,0.498
		c0.387,0.314,0.578,0.724,0.602,1.217c0.014,0.303-0.023,0.597-0.156,0.873c-0.189,0.387-0.502,0.635-0.895,0.791
		C277.055,44.215,276.729,44.258,276.393,44.261z"/>
	<path class="st34" d="M273.508,40.464c0,0.709,0.004,1.419-0.002,2.128c-0.002,0.263-0.063,0.519-0.174,0.76
		c-0.172,0.377-0.453,0.641-0.846,0.775c-0.563,0.193-1.125,0.189-1.678-0.038c-0.428-0.177-0.727-0.496-0.932-0.906
		c-0.016-0.031-0.014-0.044,0.018-0.063c0.307-0.184,0.613-0.369,0.918-0.556c0.037-0.022,0.047-0.01,0.064,0.02
		c0.066,0.12,0.139,0.238,0.229,0.344c0.145,0.166,0.326,0.247,0.545,0.241c0.074-0.002,0.148-0.006,0.221-0.023
		c0.248-0.059,0.355-0.235,0.398-0.467c0.018-0.106,0.023-0.213,0.023-0.32c0-1.342,0-2.685,0-4.028c0-0.08,0-0.08,0.082-0.08
		c0.359,0,0.719,0.001,1.076-0.001c0.051,0,0.061,0.015,0.061,0.062c0,0.718,0,1.436,0,2.153
		C273.51,40.464,273.51,40.464,273.508,40.464z"/>
</g>
<g>
	<path class="st2" d="M272.977,103.143c-0.152-0.064-0.314-0.098-0.473-0.143c-1.334-0.375-2.67-0.748-4.008-1.121
		c-0.158-0.045-0.316-0.09-0.477-0.133c-0.053-0.014-0.072-0.037-0.076-0.094c-0.057-0.707-0.117-1.412-0.176-2.117
		c-0.041-0.504-0.078-1.01-0.121-1.516c-0.047-0.572-0.096-1.146-0.143-1.721c-0.041-0.5-0.08-1-0.121-1.5
		c-0.047-0.572-0.096-1.146-0.143-1.721c-0.037-0.434-0.07-0.867-0.105-1.301c-0.053-0.643-0.107-1.285-0.16-1.928
		c-0.012-0.141-0.021-0.279-0.035-0.42c-0.006-0.045,0.012-0.061,0.053-0.055c0.018,0.002,0.033,0,0.051,0c3.953,0,7.908,0,11.861,0
		c0.119,0,0.117,0,0.105,0.117c-0.037,0.408-0.072,0.816-0.109,1.225c-0.049,0.547-0.098,1.094-0.145,1.639
		c-0.041,0.467-0.082,0.934-0.121,1.4c-0.043,0.477-0.086,0.955-0.127,1.432c-0.035,0.398-0.068,0.797-0.104,1.193
		c-0.043,0.486-0.086,0.971-0.129,1.457c-0.035,0.398-0.068,0.797-0.104,1.193c-0.047,0.553-0.096,1.104-0.145,1.654
		c-0.027,0.322-0.059,0.643-0.082,0.965c-0.006,0.061-0.029,0.082-0.084,0.098c-0.965,0.277-1.932,0.555-2.896,0.832
		c-0.621,0.178-1.242,0.357-1.863,0.537c-0.02,0.004-0.045,0.002-0.059,0.025C273.02,103.143,272.998,103.143,272.977,103.143z
		 M273.012,96.492c0,0.756,0,1.51,0,2.266c-0.002,0.01-0.004,0.02-0.004,0.029c-0.072,0.012-0.143,0.035-0.221,0.016
		c-0.484-0.123-0.969-0.246-1.455-0.367c-0.053-0.014-0.076-0.031-0.082-0.09c-0.035-0.322-0.076-0.645-0.111-0.967
		c-0.008-0.084-0.031-0.113-0.121-0.111c-0.436,0.006-0.871,0.004-1.309,0c-0.063,0-0.074,0.018-0.07,0.08
		c0.064,0.738,0.131,1.475,0.193,2.213c0.004,0.057,0.02,0.08,0.074,0.094c0.359,0.096,0.717,0.197,1.074,0.295
		c0.678,0.189,1.352,0.377,2.027,0.564c0,0.449,0.002,0.898,0,1.348c0,0.063,0.014,0.082,0.082,0.063
		c0.428-0.125,0.854-0.246,1.281-0.369c0.467-0.133,0.93-0.266,1.395-0.398c0.414-0.119,0.826-0.24,1.242-0.357
		c0.064-0.02,0.088-0.055,0.09-0.119c0.002-0.098,0.008-0.197,0.018-0.297c0.02-0.223,0.043-0.447,0.063-0.67
		c0.02-0.215,0.033-0.432,0.053-0.648c0.02-0.238,0.043-0.479,0.064-0.719c0.012-0.143,0.023-0.285,0.035-0.426
		c0.021-0.223,0.043-0.443,0.063-0.664c0.014-0.158,0.023-0.318,0.037-0.475c0.02-0.236,0.043-0.469,0.063-0.705
		c0.014-0.141,0.025-0.283,0.035-0.426c0.023-0.227,0.045-0.453,0.064-0.68c0.018-0.213,0.033-0.426,0.053-0.639
		c0.02-0.238,0.043-0.475,0.064-0.711c0.012-0.146,0.023-0.291,0.035-0.436c0.02-0.229,0.043-0.459,0.064-0.688
		c0.012-0.15,0.021-0.301,0.033-0.451c0.027-0.297,0.055-0.594,0.082-0.893c0.014-0.158,0.029-0.316,0.047-0.473
		c0.012-0.104,0.006-0.113-0.1-0.113c-0.879,0-1.758,0-2.639,0c-0.729,0-1.459,0-2.191,0.002c-0.041,0.004-0.031,0.039-0.031,0.064
		c0,0.445,0,0.893,0.002,1.34c-0.029,0.029-0.068,0.016-0.104,0.016c-1.23,0.002-2.459,0-3.689,0.002
		c-0.033,0-0.066-0.01-0.098,0.012c-0.043,0.041-0.014,0.09-0.006,0.135c0.055,0.422,0.115,0.846,0.168,1.268
		c0.01,0.072,0.031,0.09,0.102,0.09c1.029-0.002,2.061-0.002,3.092-0.002c0.141,0,0.279,0,0.418,0
		c-0.008,0.018-0.018,0.021-0.025,0.025c-0.449,0.195-0.898,0.391-1.348,0.586c-0.691,0.301-1.385,0.602-2.076,0.898
		c-0.066,0.027-0.08,0.061-0.068,0.129c0.063,0.412,0.119,0.824,0.176,1.236c0.008,0.07,0.031,0.092,0.105,0.092
		c1.084-0.002,2.166-0.002,3.25-0.002c0.033,0,0.066,0.002,0.1,0.004C273.008,96.473,273.01,96.482,273.012,96.492z"/>
	<path class="st27" d="M273.008,96.463c-0.033-0.002-0.066-0.004-0.1-0.004c-1.084,0-2.166,0-3.25,0.002
		c-0.074,0-0.098-0.021-0.105-0.092c-0.057-0.412-0.113-0.824-0.176-1.236c-0.012-0.068,0.002-0.102,0.068-0.129
		c0.691-0.297,1.385-0.598,2.076-0.898c0.449-0.195,0.898-0.391,1.348-0.586c0.008-0.004,0.018-0.008,0.025-0.025
		c-0.139,0-0.277,0-0.418,0c-1.031,0-2.063,0-3.092,0.002c-0.07,0-0.092-0.018-0.102-0.09c-0.053-0.422-0.113-0.846-0.168-1.268
		c-0.008-0.045-0.037-0.094,0.006-0.135c0.031,0,0.061,0.004,0.092,0.004c0.422,0,0.844,0,1.264,0
		c2.051-0.002,4.104-0.002,6.154-0.004c0.086,0,0.104,0.023,0.104,0.104c-0.006,0.432-0.004,0.861-0.002,1.291
		c0,0.055-0.012,0.082-0.066,0.104c-1.125,0.459-2.25,0.92-3.373,1.379c-0.018,0.008-0.043,0.008-0.049,0.037
		c1.031,0,2.064,0,3.094,0c0.123,0,0.121-0.002,0.109,0.123c-0.033,0.342-0.064,0.686-0.094,1.027
		c-0.043,0.477-0.08,0.955-0.121,1.432c-0.059,0.664-0.119,1.328-0.176,1.99c-0.006,0.057-0.02,0.08-0.074,0.098
		c-0.992,0.307-1.984,0.617-2.975,0.926c-0.676-0.188-1.35-0.375-2.027-0.564c-0.357-0.098-0.715-0.199-1.074-0.295
		c-0.055-0.014-0.07-0.037-0.074-0.094c-0.063-0.738-0.129-1.475-0.193-2.213c-0.004-0.063,0.008-0.08,0.07-0.08
		c0.438,0.004,0.873,0.006,1.309,0c0.09-0.002,0.113,0.027,0.121,0.111c0.035,0.322,0.076,0.645,0.111,0.967
		c0.006,0.059,0.029,0.076,0.082,0.09c0.486,0.121,0.971,0.244,1.455,0.367c0.078,0.02,0.148-0.004,0.221-0.016
		c0.492-0.092,0.984-0.184,1.477-0.277c0.152-0.027,0.148-0.029,0.162-0.184c0.029-0.313,0.063-0.623,0.094-0.936
		c0.029-0.289,0.057-0.576,0.088-0.863c0.004-0.047-0.002-0.068-0.059-0.068C274.182,96.461,273.596,96.461,273.008,96.463z"/>
	<path class="st13" d="M273.008,100.514c0.99-0.309,1.982-0.619,2.975-0.926c0.055-0.018,0.068-0.041,0.074-0.098
		c0.057-0.662,0.117-1.326,0.176-1.99c0.041-0.477,0.078-0.955,0.121-1.432c0.029-0.342,0.061-0.686,0.094-1.027
		c0.012-0.125,0.014-0.123-0.109-0.123c-1.029,0-2.063,0-3.094,0c0.006-0.029,0.031-0.029,0.049-0.037
		c1.123-0.459,2.248-0.92,3.373-1.379c0.055-0.021,0.066-0.049,0.066-0.104c-0.002-0.43-0.004-0.859,0.002-1.291
		c0-0.08-0.018-0.104-0.104-0.104c-2.051,0.002-4.104,0.002-6.154,0.004c-0.42,0-0.842,0-1.264,0c-0.031,0-0.061-0.004-0.092-0.004
		c0.031-0.021,0.064-0.012,0.098-0.012c1.23-0.002,2.459,0,3.689-0.002c0.035,0,0.074,0.014,0.104-0.016c1.232,0,2.465,0,3.699,0
		c0-0.006,0-0.012,0-0.016c-0.031,0-0.061,0-0.09,0c-1.16,0-2.32-0.002-3.48,0c-0.08,0-0.102-0.021-0.1-0.1
		c0.004-0.43,0.002-0.859,0-1.289c0.732-0.002,1.463-0.002,2.191-0.002c0.881,0,1.76,0,2.639,0c0.105,0,0.111,0.01,0.1,0.113
		c-0.018,0.156-0.033,0.314-0.047,0.473c-0.027,0.299-0.055,0.596-0.082,0.893c-0.012,0.15-0.021,0.301-0.033,0.451
		c-0.021,0.229-0.045,0.459-0.064,0.688c-0.012,0.145-0.023,0.289-0.035,0.436c-0.021,0.236-0.045,0.473-0.064,0.711
		c-0.02,0.213-0.035,0.426-0.053,0.639c-0.02,0.227-0.041,0.453-0.064,0.68c-0.01,0.143-0.021,0.285-0.035,0.426
		c-0.02,0.236-0.043,0.469-0.063,0.705c-0.014,0.156-0.023,0.316-0.037,0.475c-0.02,0.221-0.041,0.441-0.063,0.664
		c-0.012,0.141-0.023,0.283-0.035,0.426c-0.021,0.24-0.045,0.48-0.064,0.719c-0.02,0.217-0.033,0.434-0.053,0.648
		c-0.02,0.223-0.043,0.447-0.063,0.67c-0.01,0.1-0.016,0.199-0.018,0.297c-0.002,0.064-0.025,0.1-0.09,0.119
		c-0.416,0.117-0.828,0.238-1.242,0.357c-0.465,0.133-0.928,0.266-1.395,0.398c-0.428,0.123-0.854,0.244-1.281,0.369
		c-0.068,0.02-0.082,0-0.082-0.063C273.01,101.412,273.008,100.963,273.008,100.514z M276.43,94.883c0-0.004,0.002-0.01,0.002-0.014
		c-1.02,0-2.037,0-3.057,0c0,0.004,0,0.01,0,0.014C274.393,94.883,275.41,94.883,276.43,94.883z"/>
	<path class="st13" d="M273.008,96.463c0.588-0.002,1.174-0.002,1.762-0.004c0.057,0,0.063,0.021,0.059,0.068
		c-0.031,0.287-0.059,0.574-0.088,0.863c-0.031,0.313-0.064,0.623-0.094,0.936c-0.014,0.154-0.01,0.156-0.162,0.184
		c-0.492,0.094-0.984,0.186-1.477,0.277c0-0.01,0.002-0.02,0.004-0.029c0.02-0.002,0.039,0.006,0.035-0.029
		c-0.006-0.029-0.004-0.061-0.004-0.09c0-0.686,0-1.371-0.002-2.057c0-0.029,0.025-0.074-0.029-0.09
		C273.01,96.482,273.008,96.473,273.008,96.463z M273.08,96.49c-0.002,0.006-0.002,0.012-0.002,0.018c0.025,0,0.055,0,0.08,0
		c0.502,0,1.002,0,1.504,0c0.033,0,0.07-0.006,0.098,0.006c0.039,0.016,0.006,0.066,0.029,0.094c0.012-0.117,0.012-0.117-0.1-0.117
		c-0.303,0-0.605,0-0.91,0C273.549,96.49,273.314,96.49,273.08,96.49z"/>
	<path class="st14" d="M273.041,90.57c0.002,0.43,0.004,0.859,0,1.289c-0.002,0.078,0.02,0.1,0.1,0.1c1.16-0.002,2.32,0,3.48,0
		c0.029,0,0.059,0,0.09,0c0,0.004,0,0.01,0,0.016c-1.234,0-2.467,0-3.699,0c-0.002-0.447-0.002-0.895-0.002-1.34
		C273.01,90.609,273,90.574,273.041,90.57z"/>
	<path class="st14" d="M273.012,96.492c0.055,0.016,0.029,0.061,0.029,0.09c0.002,0.686,0.002,1.371,0.002,2.057
		c0,0.029-0.002,0.061,0.004,0.09c0.004,0.035-0.016,0.027-0.035,0.029C273.012,98.002,273.012,97.248,273.012,96.492z"/>
	<path class="st14" d="M276.43,94.883c-1.02,0-2.037,0-3.055,0c0-0.004,0-0.01,0-0.014c1.02,0,2.037,0,3.057,0
		C276.432,94.873,276.43,94.879,276.43,94.883z"/>
	<path class="st14" d="M273.08,96.49c0.234,0,0.469,0,0.699,0c0.305,0,0.607,0,0.91,0c0.111,0,0.111,0,0.1,0.117
		c-0.023-0.027,0.01-0.078-0.029-0.094c-0.027-0.012-0.064-0.006-0.098-0.006c-0.502,0-1.002,0-1.504,0c-0.025,0-0.055,0-0.08,0
		C273.078,96.502,273.078,96.496,273.08,96.49z"/>
</g>
<g>
	<path class="st21" d="M270.744,12.714c2.902,0,5.805,0,8.707-0.001c0.051,0,0.063,0.011,0.063,0.062
		c-0.002,4.037-0.002,8.074-0.002,12.111c-0.037,0.095-0.041,0.198-0.066,0.297c-0.105,0.416-0.318,0.755-0.699,0.973
		c-0.336,0.192-0.707,0.265-1.086,0.31c-0.342,0.041-0.686,0.042-1.031,0.042c-2.049,0.003-4.1-0.011-6.15-0.018
		c-0.52-0.002-1.039-0.007-1.559-0.011c-0.021,0-0.053,0.014-0.055-0.026c0.002-0.47,0.004-0.941,0.008-1.411
		c0.002-0.704,0.006-1.409,0.01-2.113c0-0.022-0.002-0.045-0.004-0.067c0.004-1.503,0.01-3.007,0-4.511
		c-0.008-1.2-0.063-2.399-0.01-3.599c0.014-0.33,0.045-0.659,0.135-0.979c0.117-0.432,0.361-0.752,0.799-0.901
		c0.223-0.076,0.453-0.109,0.686-0.129C270.574,12.733,270.662,12.742,270.744,12.714z M279.268,17.078c0-0.18,0-0.358-0.002-0.538
		c0.002-0.025,0.004-0.049,0.004-0.074c0-0.431,0-0.863,0-1.294c0-0.704,0-1.407,0-2.111c0-0.083-0.004-0.087-0.088-0.087
		c-0.068,0-0.139,0-0.209,0c-0.104,0-0.209,0-0.314,0c-0.439,0-0.879,0-1.318,0c-0.014,0-0.029,0-0.045-0.001
		c-0.262,0-0.525,0-0.789,0c-1.672,0-3.344,0-5.016,0c-0.006,0.003-0.012,0.006-0.016,0.01c-0.004,0.001-0.008,0.002-0.012,0.003
		c-0.258,0.005-0.516-0.009-0.775,0.01c-0.201,0.015-0.402,0.031-0.6,0.07c-0.396,0.08-0.676,0.292-0.801,0.69
		c-0.072,0.229-0.113,0.462-0.135,0.698c-0.021,0.266-0.035,0.532-0.041,0.799c-0.012,0.544,0.006,1.088,0.014,1.632
		c0,0.002,0,0.004,0,0.007c-0.002,0.049-0.004,0.098,0.012,0.146c-0.02,0.021-0.012,0.047-0.012,0.071
		c0,0.108,0.006,0.215,0.01,0.323c0.01,0.38,0.014,0.76,0.014,1.14c-0.002,1.697,0.016,3.394-0.01,5.091
		c-0.012,0.822-0.002,1.644-0.002,2.465c0,0.087,0.01,0.097,0.098,0.097c0.639,0,1.277,0,1.918,0
		c0.094,0.002,0.188,0.034,0.281,0.001c0.154,0.004,0.309,0.012,0.465,0.012c0.535,0.001,1.07-0.002,1.605,0.002
		c0.699,0.005,1.398-0.006,2.098,0.009c0.545,0.012,1.092,0.007,1.639-0.01c0.023-0.001,0.049,0,0.072-0.014
		c0.063,0.002,0.127,0.009,0.188-0.012c0.305-0.016,0.602-0.07,0.887-0.177c0.414-0.153,0.674-0.442,0.789-0.866
		c0.098-0.364,0.104-0.737,0.117-1.108c0.008-0.187,0.002-0.373-0.006-0.56c-0.016-0.299-0.008-0.598-0.014-0.897
		c-0.012-0.459-0.006-0.918-0.006-1.378c0-0.014,0-0.027,0-0.042c0-0.125,0-0.25,0-0.376c0-0.006,0.002-0.013,0.002-0.02
		c0-0.754-0.002-1.508-0.002-2.263C279.268,18.042,279.268,17.56,279.268,17.078z"/>
	<path class="st23" d="M268.826,24.751c0.016,0.007,0.021-0.001,0.023-0.014c0.002-0.022,0.002-0.045,0.002-0.067
		c0.008-0.576,0.014-1.152,0.021-1.728c0-0.027,0.004-0.054,0.006-0.081c0.002,0.022,0.004,0.045,0.004,0.067
		c-0.004,0.704-0.008,1.409-0.01,2.113c-0.004,0.47-0.006,0.941-0.008,1.411c-0.014,0-0.027,0-0.039,0c0-0.185,0-0.37,0-0.554
		c0.027-0.098,0.012-0.199,0.012-0.298c0.004-0.256,0.006-0.512,0.008-0.768c0-0.019,0.016-0.046-0.02-0.056
		C268.826,24.769,268.826,24.76,268.826,24.751z"/>
	<path class="st26" d="M268.826,24.778c0.035,0.009,0.02,0.037,0.02,0.056c-0.002,0.256-0.004,0.512-0.008,0.768
		c-0.004,0-0.008,0-0.012,0C268.826,25.327,268.826,25.053,268.826,24.778z"/>
	<path class="st3" d="M268.826,25.602c0.004,0,0.008,0,0.012,0c0,0.099,0.016,0.2-0.012,0.298
		C268.826,25.8,268.826,25.701,268.826,25.602z"/>
	<path class="st0" d="M269.137,17.037c-0.016-0.048-0.014-0.097-0.012-0.146c0.02-0.012,0.025-0.032,0.037-0.048
		c0.291-0.49,0.584-0.979,0.877-1.469c0.363-0.608,0.729-1.218,1.094-1.826c0.084-0.14,0.16-0.286,0.258-0.417
		c0.018,0.029,0.047,0.042,0.074,0.058c0.443,0.287,0.895,0.564,1.348,0.836c0.156,0.093,0.311,0.188,0.473,0.27
		c0.137,0.081,0.275,0.159,0.412,0.241c0.051,0.03,0.115,0.041,0.145,0.102c-0.004,0.003-0.006,0.007-0.01,0.01
		c-0.553,0.371-0.998,0.849-1.371,1.398c-0.313,0.46-0.555,0.959-0.805,1.455c-0.357,0.712-0.652,1.448-0.85,2.221
		c-0.057,0.217-0.105,0.436-0.158,0.654c-0.01-0.018-0.021-0.034-0.029-0.052c-0.211-0.469-0.422-0.939-0.631-1.408
		c-0.238-0.529-0.475-1.058-0.713-1.585C269.23,17.231,269.195,17.128,269.137,17.037z M271.207,17.769
		c0.002-0.038-0.031-0.035-0.049-0.042c-0.229-0.09-0.455-0.177-0.682-0.269c-0.047-0.018-0.059-0.006-0.074,0.037
		c-0.07,0.203-0.143,0.406-0.217,0.607c-0.016,0.044-0.014,0.063,0.037,0.079c0.232,0.071,0.465,0.146,0.697,0.223
		c0.047,0.016,0.061,0.002,0.074-0.04c0.064-0.188,0.133-0.376,0.201-0.563C271.199,17.79,271.203,17.78,271.207,17.769z
		 M271.471,15.707c0.199,0.133,0.393,0.262,0.586,0.393c0.023,0.015,0.037,0.017,0.055-0.006c0.146-0.174,0.293-0.347,0.441-0.524
		c-0.193-0.128-0.385-0.253-0.576-0.379c-0.021-0.014-0.033-0.007-0.049,0.01C271.777,15.367,271.627,15.534,271.471,15.707z"/>
	<path class="st35" d="M269.137,17.037c0.059,0.091,0.094,0.194,0.139,0.292c0.238,0.528,0.475,1.057,0.713,1.585
		c0.209,0.469,0.42,0.939,0.631,1.408c0.008,0.019,0.02,0.035,0.029,0.052c0.002,0.007,0.002,0.014,0.002,0.021
		c-0.088,0.426-0.152,0.856-0.184,1.292c-0.021,0.305-0.033,0.61,0.008,0.915c0.02,0.024,0.047,0.014,0.07,0.014
		c0.158,0.001,0.318,0.002,0.477,0c0.053,0,0.066,0.014,0.057,0.067c-0.033,0.169-0.055,0.34-0.051,0.514
		c-0.324-0.025-0.652-0.011-0.977-0.016c-0.039,0-0.061,0.002-0.061,0.053c0.002,0.642,0.002,1.283,0,1.923
		c0,0.041,0.012,0.054,0.053,0.054c0.135-0.002,0.27-0.004,0.404,0c0.057,0.002,0.068-0.017,0.066-0.068
		c-0.002-0.147,0-0.294,0-0.465c0.141,0.144,0.27,0.271,0.395,0.402c0.047,0.048,0.092,0.084,0.16,0.076
		c0.006,0.083,0.01,0.166,0.018,0.249c0.021,0.273,0.043,0.546,0.066,0.818c-0.641,0-1.279,0.001-1.918,0
		c-0.088,0-0.098-0.01-0.098-0.097c0-0.821-0.01-1.643,0.002-2.465c0.025-1.697,0.008-3.394,0.01-5.091
		c0-0.38-0.004-0.76-0.014-1.14c-0.004-0.107-0.01-0.215-0.01-0.323C269.125,17.084,269.117,17.058,269.137,17.037z M269.604,20.308
		c-0.031-0.01-0.043,0.007-0.045,0.042c-0.002,0.022-0.004,0.045-0.006,0.067c-0.029,0.236-0.059,0.472-0.088,0.708
		c-0.004,0.023-0.004,0.042,0.029,0.046c0.256,0.03,0.514,0.061,0.77,0.093c0.029,0.004,0.043-0.003,0.049-0.036
		c0.045-0.27,0.09-0.54,0.139-0.809c0.006-0.036,0-0.045-0.035-0.048C270.146,20.352,269.877,20.33,269.604,20.308z"/>
	<path class="st8" d="M277.313,26.222c-0.023,0.014-0.049,0.013-0.072,0.014c-0.547,0.017-1.094,0.022-1.639,0.01
		c-0.699-0.016-1.398-0.004-2.098-0.009c-0.535-0.004-1.07,0-1.605-0.002c-0.156,0-0.311-0.008-0.465-0.012
		c0.008-0.021,0.014-0.042,0.025-0.062c0.1-0.19,0.205-0.377,0.318-0.56c0.1-0.161,0.201-0.322,0.316-0.472
		c0.004,0.036,0.029,0.026,0.051,0.026c0.146,0,0.291-0.001,0.438,0.001c0.041,0.001,0.051-0.012,0.051-0.05
		c-0.004-0.081,0-0.162-0.002-0.243c-0.002-0.035,0.006-0.053,0.047-0.052c0.139,0.002,0.279,0.002,0.418,0
		c0.041-0.001,0.049,0.017,0.047,0.052c-0.002,0.074,0.002,0.148-0.002,0.222c0,0.047,0.014,0.063,0.061,0.061
		c0.137-0.002,0.275-0.003,0.412,0.001c0.055,0.001,0.064-0.017,0.064-0.068c-0.002-0.436,0-0.872,0-1.309
		c0-0.083,0.002-0.166-0.016-0.248c0-0.026,0.02-0.037,0.039-0.051c0.164-0.122,0.342-0.225,0.523-0.32
		c0.021-0.012,0.053-0.016,0.059-0.049c0.004,0,0.01-0.001,0.014-0.001c0,0.034,0.043,0.047,0.043,0.081
		c-0.025,0.001-0.049,0.005-0.074,0.003c-0.041-0.003-0.059,0.008-0.059,0.055c0,0.612,0,1.223,0,1.835
		c0,0.042,0.012,0.053,0.053,0.053c0.146-0.002,0.293-0.003,0.438,0c0.055,0.001,0.063-0.017,0.063-0.064
		c-0.002-0.412-0.002-0.823-0.002-1.234c0.002-0.207,0.002-0.414,0.002-0.621c0.021,0.104,0.006,0.21,0.01,0.315
		c0.002,0.025-0.004,0.05,0.018,0.07c0.053,0.057,0.107,0.113,0.16,0.169c0.006,0.003,0.008,0.007,0.012,0.011l0.002,0.002
		c0.004,0.004,0.008,0.008,0.012,0.012l0.002,0.001c0.004,0.004,0.008,0.008,0.012,0.012l0.002,0.001
		c0.004,0.004,0.008,0.009,0.012,0.013l0.002,0c0.004,0.004,0.008,0.009,0.012,0.013v0c0.006,0.005,0.01,0.009,0.014,0.013v0
		c0.006,0.004,0.01,0.009,0.014,0.013l0,0c0.004,0.005,0.01,0.009,0.014,0.014l0,0c0.004,0.005,0.01,0.009,0.014,0.014v0
		c0.004,0.005,0.008,0.009,0.014,0.014v0c0.004,0.005,0.01,0.009,0.014,0.014l0,0c0.008,0.004,0.018,0.009,0.027,0.014
		c0.063,0.061,0.125,0.123,0.188,0.184c0.002,0.021,0.008,0.041,0.021,0.057c0,0.326,0,0.651,0.002,0.976
		c-0.002,0.001-0.004,0.003-0.004,0.004c0.002,0.001,0.004,0.003,0.008,0.005c0.035,0,0.07,0.002,0.107,0.002
		c0.283,0.001,0.568,0.002,0.852,0.003c0.146,0.152,0.293,0.304,0.439,0.456c0.18,0.187,0.361,0.372,0.543,0.558
		C277.293,26.187,277.309,26.2,277.313,26.222z"/>
	<path class="st22" d="M279.268,21.225c0,0.459-0.006,0.919,0.006,1.378c0.006,0.299-0.002,0.598,0.014,0.897
		c0.008,0.187,0.014,0.373,0.006,0.56c-0.014,0.372-0.02,0.745-0.117,1.108c-0.115,0.423-0.375,0.713-0.789,0.866
		c-0.285,0.107-0.582,0.162-0.887,0.177c-0.035-0.054-0.092-0.085-0.137-0.129c-0.213-0.211-0.432-0.419-0.646-0.629
		c0-0.035,0.029-0.043,0.053-0.056c0.086-0.052,0.166-0.112,0.246-0.176c0.033-0.028,0.066-0.038,0.107-0.037
		c0.195,0.001,0.393,0,0.588,0c0.023,0,0.051,0.006,0.072-0.011c0.018,0,0.035,0,0.055,0c0.004,0.006,0.008,0.005,0.012,0
		c0.068-0.006,0.135-0.01,0.201-0.017c0.24-0.026,0.377-0.134,0.43-0.343c0.033-0.129,0.039-0.262,0.027-0.395
		c-0.021-0.221-0.1-0.405-0.334-0.48c0-0.026,0.014-0.046,0.021-0.068c0.02-0.047,0.049-0.09,0.047-0.143
		c0.053-0.001,0.107-0.002,0.16-0.002c0.027-0.026,0.012-0.06,0.016-0.089c0.014-0.141-0.021-0.281,0.047-0.422
		c0.107-0.224,0.193-0.458,0.283-0.691c0.16-0.415,0.342-0.821,0.471-1.247C279.227,21.25,279.238,21.227,279.268,21.225z"/>
	<path class="st35" d="M271.391,13.131c-0.098,0.131-0.174,0.277-0.258,0.417c-0.365,0.608-0.73,1.217-1.094,1.826
		c-0.293,0.49-0.586,0.979-0.877,1.469c-0.012,0.017-0.018,0.037-0.037,0.048c0-0.002,0-0.005,0-0.007
		c-0.008-0.544-0.025-1.088-0.014-1.632c0.006-0.267,0.02-0.533,0.041-0.799c0.021-0.236,0.063-0.47,0.135-0.698
		c0.125-0.397,0.404-0.61,0.801-0.69c0.197-0.039,0.398-0.055,0.6-0.07c0.26-0.019,0.518-0.005,0.775-0.01
		C271.439,13.034,271.414,13.083,271.391,13.131z"/>
	<path class="st1" d="M271.391,13.131c0.023-0.048,0.049-0.097,0.072-0.145c0.004-0.001,0.008-0.002,0.012-0.003
		c0.004-0.003,0.01-0.007,0.016-0.01c1.672,0,3.344,0,5.016,0c0.264,0,0.527,0,0.789,0c0.01,0.004,0.02,0.008,0.029,0.012
		c-0.139,0.101-0.289,0.186-0.434,0.278c-0.121,0.078-0.248,0.148-0.365,0.234c-0.084,0.032-0.15,0.093-0.229,0.136
		c-0.072-0.035-0.145-0.073-0.225-0.082c-0.014-0.033,0.008-0.09-0.049-0.093c-0.236-0.013-0.473-0.03-0.713-0.028
		c0.002,0.026,0.02,0.045,0.016,0.067c-0.066-0.002-0.135,0.01-0.199,0.013c-0.281,0.008-0.545,0.079-0.805,0.179
		c-0.109,0.043-0.215,0.098-0.322,0.147c-0.033-0.038-0.068-0.076-0.104-0.114c-0.012-0.013-0.021-0.025-0.045-0.014
		c-0.184,0.094-0.363,0.192-0.555,0.277c0.043,0.052,0.084,0.1,0.123,0.146c-0.002,0.027-0.021,0.041-0.041,0.056
		c-0.041,0.027-0.074,0.061-0.094,0.107c-0.162-0.082-0.316-0.177-0.473-0.27c-0.453-0.272-0.904-0.549-1.348-0.836
		C271.438,13.172,271.408,13.16,271.391,13.131z"/>
	<path class="st10" d="M272.094,25.129c-0.115,0.15-0.217,0.311-0.316,0.472c-0.113,0.182-0.219,0.369-0.318,0.56
		c-0.012,0.02-0.018,0.042-0.025,0.062c-0.094,0.033-0.188,0.001-0.281-0.001c-0.023-0.272-0.045-0.545-0.066-0.818
		c-0.008-0.083-0.012-0.166-0.018-0.249c0.23,0,0.459,0,0.689,0c0.002-0.007,0.002-0.014,0.004-0.021
		c-0.203-0.201-0.404-0.402-0.607-0.605c0.238-0.073,0.348-0.169,0.422-0.365c0.031-0.089,0.053-0.182,0.055-0.276
		c0.014-0.333-0.115-0.569-0.453-0.656c-0.051-0.013-0.1-0.024-0.15-0.036c-0.004-0.173,0.018-0.344,0.051-0.514
		c0.01-0.053-0.004-0.067-0.057-0.067c-0.158,0.002-0.318,0.001-0.477,0c-0.023,0-0.051,0.01-0.07-0.014
		c0.262,0.001,0.521,0.004,0.783,0.004c1.26,0,2.52-0.001,3.779-0.001c-0.023,0.02-0.053,0.01-0.078,0.01
		c-0.602,0.001-1.205,0-1.809,0.001c-0.021,0-0.045,0.001-0.082,0.003c0.021,0.012,0.029,0.017,0.037,0.02
		c0.307,0.114,0.615,0.226,0.922,0.341c0.08,0.03,0.166,0.044,0.23,0.106c0.004,0.012,0.014,0.016,0.025,0.015v0.002
		c-0.006,0.033-0.037,0.037-0.059,0.049c-0.182,0.095-0.359,0.198-0.523,0.32c-0.02,0.014-0.039,0.025-0.039,0.051
		c-0.064-0.175-0.203-0.26-0.373-0.297c-0.248-0.055-0.5-0.055-0.75-0.024c-0.246,0.031-0.379,0.155-0.424,0.37
		c-0.016,0.066-0.02,0.133-0.02,0.201C272.096,24.226,272.094,24.677,272.094,25.129z"/>
	<path class="st1" d="M278.973,12.973c0.07,0,0.141,0,0.209,0c0.084,0,0.088,0.004,0.088,0.087c0,0.704,0,1.407,0,2.111
		c0,0.432,0,0.863,0,1.294c0,0.025-0.002,0.049-0.004,0.074c-0.016-0.019-0.033-0.038-0.051-0.056
		c-0.029-0.088-0.09-0.159-0.137-0.237c-0.152-0.251-0.305-0.5-0.459-0.75c0.051-0.077,0.096-0.158,0.154-0.229
		c0.049-0.061,0.031-0.092-0.02-0.139c-0.219-0.198-0.457-0.369-0.703-0.533c0.004-0.027-0.02-0.042-0.027-0.064
		c-0.014-0.036-0.055-0.059-0.045-0.104c0.023,0.011,0.049,0.022,0.072,0.035c0.117,0.063,0.117,0.062,0.191-0.049
		c0.025-0.035,0.021-0.052-0.014-0.077c-0.16-0.114-0.318-0.231-0.479-0.346c-0.014-0.009-0.025-0.035-0.049-0.019
		c-0.023,0-0.033-0.018-0.045-0.036c-0.029-0.05-0.063-0.099-0.092-0.149c-0.088-0.151-0.189-0.293-0.268-0.45v0
		c0.018,0,0.027,0.01,0.039,0.023c0.148,0.182,0.297,0.364,0.445,0.546c0.027,0.035,0.051,0.047,0.092,0.01
		c0.107-0.095,0.219-0.185,0.33-0.275c0.242-0.199,0.484-0.396,0.729-0.596c0.018-0.015,0.039-0.03,0.039-0.059
		C278.971,12.981,278.973,12.977,278.973,12.973z"/>
	<path class="st9" d="M277.979,14.426c-0.01,0.045,0.031,0.069,0.045,0.104c0.008,0.022,0.031,0.038,0.027,0.064
		c-0.289-0.17-0.586-0.325-0.902-0.437c-0.004-0.025-0.016-0.045-0.033-0.065c-0.148-0.177-0.307-0.349-0.471-0.511
		c-0.035-0.035-0.072-0.067-0.119-0.085c0.117-0.086,0.244-0.157,0.365-0.234c0.145-0.093,0.295-0.178,0.434-0.278
		c0.006-0.003,0.012-0.007,0.016-0.011c0.439,0,0.879,0,1.318,0c0.104,0.024,0.209,0.004,0.313,0.013
		c0,0.029-0.021,0.044-0.039,0.059c-0.244,0.199-0.486,0.397-0.729,0.596c-0.111,0.091-0.223,0.181-0.33,0.275
		c-0.041,0.037-0.064,0.025-0.092-0.01c-0.148-0.182-0.297-0.364-0.445-0.546c-0.012-0.013-0.021-0.023-0.039-0.023
		c-0.002-0.005-0.004-0.011-0.006-0.016c0,0.001-0.002,0.001-0.004,0.003c0.004,0.004,0.006,0.009,0.01,0.014
		c0.078,0.156,0.18,0.299,0.268,0.45c0.029,0.05,0.063,0.099,0.092,0.149c0.012,0.018,0.021,0.036,0.045,0.036
		c-0.004,0.083-0.006,0.166-0.014,0.248c-0.004,0.038,0.012,0.056,0.043,0.072c0.076,0.04,0.152,0.083,0.229,0.125
		c0.006,0.004,0.012,0.008,0.018,0.012L277.979,14.426z"/>
	<path class="st32" d="M279.268,21.225c-0.029,0.002-0.041,0.025-0.049,0.049c-0.129,0.426-0.311,0.833-0.471,1.247
		c-0.09,0.232-0.176,0.467-0.283,0.691c-0.068,0.142-0.033,0.282-0.047,0.422c-0.004,0.029,0.012,0.063-0.016,0.089
		c0.002-0.155,0.002-0.31,0.006-0.464c0.002-0.05-0.012-0.063-0.063-0.063c-0.25-0.001-0.498-0.007-0.746-0.011
		c-0.109-0.007-0.107-0.006-0.051-0.102s0.113-0.193,0.166-0.292c0.133-0.245,0.238-0.503,0.334-0.764
		c0.057-0.155,0.109-0.313,0.141-0.477c0.053-0.019,0.105-0.038,0.158-0.056c0.303-0.104,0.605-0.208,0.91-0.313l0.006,0h0.004
		C279.268,21.197,279.268,21.211,279.268,21.225z"/>
	<path class="st23" d="M279.268,21.183h-0.004l-0.006,0c-0.115-0.282-0.23-0.564-0.346-0.846c-0.102-0.249-0.203-0.499-0.309-0.746
		c-0.059-0.141-0.105-0.286-0.18-0.42c0.004-0.011,0.006-0.021,0.008-0.032c0.092-0.268,0.209-0.526,0.309-0.791
		c0.01-0.014,0.02-0.027,0.029-0.041c0.045,0.115,0.068,0.236,0.098,0.355c0.068,0.269,0.127,0.54,0.178,0.813
		c0.078,0.413,0.139,0.828,0.186,1.246c0.002,0.03-0.002,0.07,0.037,0.086C279.268,20.932,279.268,21.058,279.268,21.183z"/>
	<path class="st16" d="M279.268,20.807c-0.039-0.017-0.035-0.056-0.037-0.086c-0.047-0.417-0.107-0.833-0.186-1.246
		c-0.051-0.272-0.109-0.543-0.178-0.813c-0.029-0.119-0.053-0.24-0.098-0.355c0.049-0.13,0.096-0.261,0.152-0.388
		c0.029-0.069,0.039-0.147,0.088-0.208c0.088,0.229,0.143,0.466,0.205,0.703c0.012,0.039,0.01,0.085,0.053,0.11
		c0,0.754,0.002,1.509,0.002,2.263C279.27,20.793,279.268,20.8,279.268,20.807z"/>
	<path class="st9" d="M279.268,18.524c-0.043-0.024-0.041-0.071-0.053-0.11c-0.063-0.236-0.117-0.474-0.205-0.703
		c0.016-0.045,0.029-0.09,0.045-0.134c0.066-0.14,0.123-0.285,0.174-0.432c0.014-0.023,0.025-0.045,0.039-0.068
		C279.268,17.56,279.268,18.042,279.268,18.524z"/>
	<path class="st16" d="M279.268,17.078c-0.014,0.022-0.025,0.045-0.039,0.068c-0.014-0.007-0.023-0.02-0.031-0.034
		c-0.076-0.144-0.154-0.289-0.23-0.434c-0.049-0.095-0.096-0.192-0.145-0.288c0.018,0.003,0.035,0.006,0.051,0.009
		c0.117,0.023,0.223,0.076,0.342,0.085c0.018,0.019,0.035,0.038,0.051,0.056C279.268,16.719,279.268,16.898,279.268,17.078z"/>
	<path class="st7" d="M276.717,25.452c0.215,0.209,0.434,0.418,0.646,0.629c0.045,0.044,0.102,0.076,0.137,0.129
		c-0.061,0.021-0.125,0.014-0.188,0.012c-0.004-0.022-0.02-0.035-0.033-0.05c-0.182-0.186-0.363-0.372-0.543-0.558
		c-0.146-0.151-0.293-0.304-0.439-0.456c0.041,0,0.082,0,0.121,0C276.514,25.26,276.611,25.361,276.717,25.452z"/>
	<path class="st35" d="M278.971,12.986c-0.104-0.009-0.209,0.011-0.313-0.013c0.105,0,0.211,0,0.314,0
		C278.973,12.977,278.971,12.981,278.971,12.986z"/>
	<path class="st35" d="M277.34,12.974c-0.004,0.004-0.01,0.007-0.016,0.011c-0.01-0.004-0.02-0.008-0.029-0.012
		C277.311,12.973,277.326,12.973,277.34,12.974z"/>
	<path class="st35" d="M271.49,12.973c-0.006,0.003-0.012,0.006-0.016,0.01C271.479,12.979,271.484,12.976,271.49,12.973z"/>
	<path class="st26" d="M277.148,14.158c0.316,0.112,0.613,0.267,0.902,0.437c0.246,0.164,0.484,0.334,0.703,0.533
		c0.051,0.046,0.068,0.078,0.02,0.139c-0.059,0.071-0.104,0.152-0.154,0.229c-0.006-0.003-0.012-0.004-0.018-0.008
		c-0.168-0.158-0.361-0.273-0.574-0.356c-0.021-0.009-0.041-0.02-0.063-0.027c-0.275-0.089-0.557-0.118-0.844-0.077
		c-0.145,0.015-0.283,0.052-0.42,0.099c-0.314,0.096-0.6,0.247-0.865,0.436c-0.145,0.093-0.277,0.203-0.4,0.32
		c-0.709,0.669-1.074,1.502-1.164,2.464c-0.049,0.527-0.025,1.052,0.043,1.575c0.09,0.685,0.256,1.353,0.475,2.009
		c0.076,0.228,0.164,0.45,0.248,0.675c-1.26,0-2.52,0.001-3.779,0.001c-0.262,0-0.521-0.003-0.783-0.004
		c-0.041-0.305-0.029-0.61-0.008-0.915c0.031-0.435,0.096-0.865,0.184-1.292c0-0.007,0-0.014-0.002-0.021
		c0.053-0.218,0.102-0.437,0.158-0.654c0.197-0.773,0.492-1.509,0.85-2.221c0.25-0.495,0.492-0.994,0.805-1.455
		c0.373-0.549,0.818-1.027,1.371-1.398c0.004-0.002,0.006-0.006,0.01-0.01c0.01-0.005,0.02-0.01,0.029-0.016
		c0.313-0.204,0.645-0.362,1-0.476c0.301-0.096,0.611-0.147,0.924-0.181c0.205-0.011,0.408,0.001,0.611,0.017
		c0.045,0.008,0.092,0.016,0.139,0.023C276.75,14.039,276.949,14.098,277.148,14.158z"/>
	<path class="st7" d="M275.795,13.966c-0.313,0.033-0.623,0.084-0.924,0.181c-0.355,0.113-0.688,0.272-1,0.476
		c-0.01,0.005-0.02,0.01-0.029,0.016c-0.029-0.061-0.094-0.071-0.145-0.102c-0.137-0.083-0.275-0.161-0.412-0.241
		c0.02-0.046,0.053-0.08,0.094-0.107c0.02-0.015,0.039-0.028,0.041-0.056c0.09,0.106,0.18,0.212,0.268,0.319
		c0.021,0.026,0.037,0.037,0.07,0.017c0.162-0.096,0.326-0.19,0.49-0.282c0.039-0.022,0.029-0.036,0.006-0.063
		c-0.086-0.095-0.17-0.191-0.254-0.288c0.107-0.049,0.213-0.104,0.322-0.147c0.26-0.1,0.523-0.17,0.805-0.179
		c0.064-0.002,0.133-0.015,0.199-0.013c0.037,0.118,0.055,0.239,0.078,0.36c0.01,0.055,0.031,0.067,0.084,0.064
		c0.115-0.005,0.232-0.004,0.35-0.005C275.824,13.933,275.809,13.949,275.795,13.966z"/>
	<path class="st26" d="M271.207,17.769c-0.004,0.011-0.008,0.021-0.012,0.031c-0.068,0.188-0.137,0.375-0.201,0.563
		c-0.014,0.042-0.027,0.056-0.074,0.04c-0.232-0.077-0.465-0.151-0.697-0.223c-0.051-0.016-0.053-0.035-0.037-0.079
		c0.074-0.202,0.146-0.404,0.217-0.607c0.016-0.043,0.027-0.055,0.074-0.037c0.227,0.092,0.453,0.179,0.682,0.269
		C271.176,17.734,271.209,17.731,271.207,17.769z"/>
	<path class="st26" d="M271.471,15.707c0.156-0.173,0.307-0.34,0.457-0.507c0.016-0.017,0.027-0.024,0.049-0.01
		c0.191,0.126,0.383,0.251,0.576,0.379c-0.148,0.177-0.295,0.35-0.441,0.524c-0.018,0.023-0.031,0.021-0.055,0.006
		C271.863,15.969,271.67,15.84,271.471,15.707z"/>
	<path class="st26" d="M271.027,23.196c0.051,0.012,0.1,0.023,0.15,0.036c0.338,0.086,0.467,0.323,0.453,0.656
		c-0.002,0.094-0.023,0.187-0.055,0.276c-0.074,0.196-0.184,0.292-0.422,0.365c0.203,0.203,0.404,0.404,0.607,0.605
		c-0.002,0.007-0.002,0.014-0.004,0.021c-0.23,0-0.459,0-0.689,0c-0.068,0.008-0.113-0.028-0.16-0.076
		c-0.125-0.131-0.254-0.258-0.395-0.402c0,0.17-0.002,0.317,0,0.465c0.002,0.051-0.01,0.07-0.066,0.068
		c-0.135-0.004-0.27-0.002-0.404,0c-0.041,0-0.053-0.013-0.053-0.054c0.002-0.641,0.002-1.282,0-1.923
		c0-0.05,0.021-0.053,0.061-0.053C270.375,23.185,270.703,23.171,271.027,23.196z M270.752,24.09c0.061,0,0.121-0.002,0.182,0.001
		c0.039,0.002,0.049-0.013,0.047-0.05c-0.002-0.087-0.002-0.175,0-0.263c0.002-0.033-0.006-0.048-0.043-0.047
		c-0.119,0.002-0.238,0.002-0.357,0c-0.037-0.001-0.045,0.015-0.043,0.048c0,0.087,0,0.175-0.002,0.262
		c0,0.037,0.008,0.052,0.049,0.05C270.639,24.087,270.695,24.09,270.752,24.09z"/>
	<path class="st26" d="M269.604,20.308c0.273,0.022,0.543,0.043,0.813,0.063c0.035,0.003,0.041,0.013,0.035,0.048
		c-0.049,0.269-0.094,0.539-0.139,0.809c-0.006,0.033-0.02,0.04-0.049,0.036c-0.256-0.032-0.514-0.063-0.77-0.093
		c-0.033-0.004-0.033-0.022-0.029-0.046c0.029-0.236,0.059-0.472,0.088-0.708c0.002-0.022,0.004-0.045,0.006-0.067
		C269.561,20.315,269.572,20.298,269.604,20.308z"/>
	<path class="st0" d="M275.037,22.605c-0.084-0.225-0.172-0.447-0.248-0.675c-0.219-0.656-0.385-1.324-0.475-2.009
		c-0.068-0.523-0.092-1.048-0.043-1.575c0.09-0.962,0.455-1.795,1.164-2.464c0.123-0.118,0.256-0.227,0.4-0.32
		c0.023,0.006,0.047,0.01,0.07,0.017c0.098,0.028,0.195,0.065,0.297,0.08c0.037,0.067,0.08,0.133,0.113,0.203
		c0.023,0.05,0.043,0.047,0.08,0.015c0.045-0.04,0.094-0.074,0.143-0.111c0.031,0,0.061,0.008,0.092,0.016
		c0.137,0.037,0.273,0.072,0.408,0.107c0.008,0.01,0.016,0.021,0.021,0.03c0.123,0.284,0.248,0.566,0.369,0.851
		c0.32,0.765,0.639,1.53,0.959,2.295c0.012,0.026,0.016,0.058,0.043,0.074c-0.002,0.01-0.004,0.021-0.008,0.032
		c-0.063,0.09-0.096,0.193-0.129,0.297c-0.045,0.085-0.076,0.176-0.111,0.266c-0.215,0.525-0.432,1.05-0.645,1.577
		c-0.074,0.183-0.156,0.362-0.217,0.55c-0.006,0.005-0.01,0.009-0.014,0.014c-0.041,0.001-0.078,0.019-0.115,0.033
		c-0.48,0.182-0.961,0.363-1.436,0.559c-0.463,0.19-0.924,0.387-1.373,0.607c-0.027,0.014-0.053,0.033-0.088,0.031
		c-0.004,0-0.01,0.001-0.014,0.001c0,0,0-0.002,0-0.001c-0.01-0.005-0.018-0.01-0.025-0.016c-0.064-0.062-0.15-0.077-0.23-0.106
		c-0.307-0.115-0.615-0.227-0.922-0.341c-0.008-0.003-0.016-0.008-0.037-0.02c0.037-0.002,0.061-0.003,0.082-0.003
		c0.604,0,1.207,0,1.809-0.001C274.984,22.615,275.014,22.625,275.037,22.605z M275.771,21.817c0-0.008,0.002-0.013,0-0.017
		c-0.102-0.209-0.203-0.419-0.305-0.629c-0.012-0.022-0.027-0.026-0.049-0.026c-0.225,0.001-0.449,0.001-0.674,0
		c-0.039,0-0.045,0.01-0.035,0.046c0.051,0.177,0.1,0.354,0.148,0.531c0.01,0.034,0.023,0.045,0.059,0.046
		c0.105,0.004,0.211,0.012,0.316,0.018C275.412,21.797,275.592,21.807,275.771,21.817z M275.18,19.93
		c-0.01-0.176-0.021-0.342-0.029-0.508c-0.002-0.043-0.014-0.067-0.055-0.087c-0.17-0.088-0.342-0.18-0.512-0.268
		c-0.029-0.015-0.055-0.036-0.092-0.04c-0.012,0.187-0.021,0.371-0.033,0.554c-0.002,0.027,0.004,0.043,0.035,0.055
		C274.719,19.73,274.941,19.828,275.18,19.93z M275.094,18.401c0.045-0.186,0.09-0.366,0.133-0.545
		c0.006-0.019-0.006-0.029-0.018-0.039c-0.158-0.119-0.314-0.238-0.477-0.361c-0.072,0.145-0.141,0.285-0.211,0.424
		c-0.012,0.022-0.002,0.034,0.012,0.045C274.719,18.083,274.902,18.24,275.094,18.401z M275.557,16.91
		c0.066-0.115,0.127-0.223,0.189-0.33c0.012-0.022,0.014-0.039-0.002-0.062c-0.102-0.151-0.201-0.302-0.301-0.455
		c-0.018-0.024-0.027-0.029-0.051-0.007c-0.102,0.093-0.203,0.185-0.307,0.276c-0.021,0.02-0.021,0.033-0.002,0.054
		C275.24,16.558,275.395,16.73,275.557,16.91z"/>
	<path class="st22" d="M274.297,23.103c0.035,0.002,0.061-0.017,0.088-0.031c0.449-0.22,0.91-0.417,1.373-0.607
		c0.475-0.196,0.955-0.376,1.436-0.559c0.037-0.014,0.074-0.032,0.115-0.033c-0.057,0.139-0.115,0.277-0.172,0.417
		c-0.164,0.402-0.326,0.803-0.49,1.205c-0.111,0.279-0.225,0.558-0.336,0.836c-0.033,0.079-0.066,0.157-0.098,0.236
		c-0.018,0.042-0.039,0.065-0.09,0.063c-0.08-0.005-0.162-0.001-0.242-0.001c-0.002-0.024-0.004-0.049-0.004-0.073
		c0-0.43-0.002-0.858,0.002-1.288c0-0.045-0.01-0.062-0.059-0.061c-0.162,0.005-0.32,0.005-0.48,0.007
		c-0.027,0.02-0.014,0.049-0.014,0.074c-0.002,0.251,0,0.502-0.002,0.753c0,0.023,0.01,0.05-0.014,0.069
		c-0.063-0.062-0.125-0.123-0.188-0.184c-0.01-0.004-0.02-0.009-0.027-0.014l0,0c-0.004-0.004-0.01-0.009-0.014-0.014v0
		c-0.006-0.005-0.01-0.009-0.014-0.014v0c-0.004-0.004-0.01-0.009-0.014-0.014l0,0c-0.004-0.004-0.01-0.009-0.014-0.014l0,0
		c-0.004-0.004-0.008-0.009-0.014-0.013v0c-0.004-0.004-0.008-0.008-0.014-0.013v0c-0.004-0.004-0.008-0.008-0.012-0.013l-0.002,0
		c-0.004-0.004-0.008-0.009-0.012-0.013l-0.002-0.001c-0.004-0.004-0.008-0.008-0.012-0.012l-0.002-0.001
		c-0.004-0.004-0.008-0.008-0.012-0.012l-0.002-0.002c-0.004-0.003-0.006-0.007-0.012-0.011c-0.053-0.057-0.107-0.113-0.16-0.169
		c-0.021-0.021-0.016-0.045-0.018-0.07c-0.004-0.105,0.012-0.21-0.01-0.315c-0.008-0.037-0.037-0.022-0.059-0.022
		c-0.121-0.003-0.242-0.004-0.361-0.005C274.34,23.15,274.297,23.137,274.297,23.103z"/>
	<path class="st26" d="M272.094,25.129c0-0.452,0.002-0.904,0.002-1.356c0-0.068,0.004-0.135,0.02-0.201
		c0.045-0.214,0.178-0.339,0.424-0.37c0.25-0.031,0.502-0.031,0.75,0.024c0.17,0.038,0.309,0.123,0.373,0.297
		c0.018,0.082,0.016,0.165,0.016,0.248c0,0.437-0.002,0.873,0,1.309c0,0.051-0.01,0.069-0.064,0.068
		c-0.137-0.004-0.275-0.003-0.412-0.001c-0.047,0.002-0.061-0.014-0.061-0.061c0.004-0.074,0-0.148,0.002-0.222
		c0.002-0.035-0.006-0.053-0.047-0.052c-0.139,0.002-0.279,0.002-0.418,0c-0.041-0.001-0.049,0.017-0.047,0.052
		c0.002,0.081-0.002,0.162,0.002,0.243c0,0.038-0.01,0.051-0.051,0.05c-0.146-0.002-0.291,0-0.438-0.001
		C272.123,25.156,272.098,25.165,272.094,25.129z M272.813,24.249c0.094,0.001,0.188,0,0.283,0.003
		c0.031,0.001,0.041-0.011,0.041-0.042c-0.002-0.09-0.002-0.18-0.004-0.27c0.002-0.068,0-0.135,0.004-0.203
		c0-0.033-0.012-0.042-0.043-0.041c-0.137,0.001-0.275,0.001-0.412,0c-0.035,0-0.045,0.011-0.045,0.046c0.002,0.115,0,0.229,0,0.345
		C272.637,24.259,272.637,24.259,272.813,24.249z"/>
	<path class="st26" d="M275.34,23.214c0.16-0.002,0.318-0.002,0.48-0.007c0.049-0.001,0.059,0.015,0.059,0.061
		c-0.004,0.429-0.002,0.858-0.002,1.288c0,0.024,0.002,0.049,0.004,0.073c0.016,0.024,0.041,0.012,0.061,0.012
		c0.221,0.001,0.441,0.001,0.662-0.001c0.037,0,0.057,0.004,0.057,0.05c-0.004,0.14-0.004,0.279-0.002,0.419
		c0.002,0.041-0.014,0.049-0.051,0.047c-0.063-0.002-0.125,0.001-0.189,0.002c-0.039,0-0.08,0-0.121,0
		c-0.283-0.001-0.568-0.002-0.852-0.003c-0.037,0-0.072-0.001-0.107-0.002c0-0.004-0.002-0.007-0.004-0.01
		c-0.002-0.325-0.002-0.65-0.002-0.976c0.002-0.04,0.006-0.081,0.006-0.121C275.34,23.77,275.34,23.492,275.34,23.214z"/>
	<path class="st26" d="M274.34,23.184c0.119,0.001,0.24,0.002,0.361,0.005c0.021,0,0.051-0.015,0.059,0.022
		c0,0.207,0,0.414-0.002,0.621c0,0.412,0,0.823,0.002,1.234c0,0.048-0.008,0.066-0.063,0.064c-0.145-0.004-0.291-0.003-0.438,0
		c-0.041,0-0.053-0.011-0.053-0.053c0-0.612,0-1.223,0-1.835c0-0.047,0.018-0.059,0.059-0.055
		C274.291,23.189,274.314,23.186,274.34,23.184z"/>
	<path class="st16" d="M275.34,23.214c0,0.278,0,0.555-0.002,0.833c0,0.04-0.004,0.081-0.006,0.121
		c-0.014-0.017-0.02-0.036-0.021-0.058c0.023-0.019,0.014-0.046,0.014-0.069c0.002-0.251,0-0.502,0.002-0.753
		C275.326,23.264,275.313,23.234,275.34,23.214z"/>
	<path class="st16" d="M275.096,23.913c0.008,0.004,0.018,0.009,0.027,0.014C275.113,23.922,275.104,23.917,275.096,23.913z"/>
	<path class="st16" d="M275.041,23.859c0.004,0.005,0.01,0.009,0.014,0.014C275.051,23.868,275.045,23.864,275.041,23.859z"/>
	<path class="st16" d="M275.055,23.873c0.004,0.005,0.01,0.009,0.014,0.014C275.064,23.882,275.059,23.877,275.055,23.873z"/>
	<path class="st16" d="M275.068,23.886c0.004,0.005,0.008,0.009,0.014,0.014C275.076,23.895,275.072,23.891,275.068,23.886z"/>
	<path class="st16" d="M275.082,23.899c0.004,0.005,0.01,0.009,0.014,0.014C275.092,23.909,275.086,23.904,275.082,23.899z"/>
	<path class="st16" d="M274.947,23.766c0.006,0.003,0.008,0.007,0.012,0.011C274.955,23.773,274.953,23.77,274.947,23.766z"/>
	<path class="st16" d="M274.975,23.792c0.004,0.004,0.008,0.008,0.012,0.012C274.982,23.8,274.979,23.796,274.975,23.792z"/>
	<path class="st16" d="M274.988,23.805c0.004,0.004,0.008,0.009,0.012,0.013C274.996,23.814,274.992,23.81,274.988,23.805z"/>
	<path class="st16" d="M275.002,23.819c0.004,0.004,0.008,0.009,0.012,0.013C275.01,23.828,275.006,23.823,275.002,23.819z"/>
	<polygon class="st16" points="275.334,25.144 275.338,25.154 275.33,25.148 	"/>
	<path class="st16" d="M275.014,23.832c0.006,0.005,0.01,0.009,0.014,0.013C275.023,23.841,275.02,23.837,275.014,23.832z"/>
	<path class="st16" d="M275.027,23.846c0.006,0.004,0.01,0.009,0.014,0.013C275.037,23.854,275.033,23.85,275.027,23.846z"/>
	<path class="st16" d="M274.961,23.779c0.004,0.004,0.008,0.008,0.012,0.012C274.969,23.787,274.965,23.783,274.961,23.779z"/>
	<path class="st26" d="M277.6,23.185c0.248,0.004,0.496,0.01,0.746,0.011c0.051,0,0.064,0.013,0.063,0.063
		c-0.004,0.155-0.004,0.31-0.006,0.464c-0.053,0-0.107,0.001-0.16,0.002c-0.225-0.001-0.449-0.003-0.674-0.002
		c-0.086,0-0.033,0.066-0.041,0.102c-0.018,0.067,0.012,0.087,0.082,0.087c0.189,0,0.379-0.02,0.564,0.024
		c0.234,0.075,0.313,0.259,0.334,0.48c0.012,0.133,0.006,0.265-0.027,0.395c-0.053,0.209-0.189,0.316-0.43,0.343
		c-0.066,0.007-0.133,0.011-0.201,0.017c-0.004,0-0.008,0-0.012,0c-0.02,0-0.037,0-0.055,0c-0.258,0-0.514-0.001-0.77,0
		c-0.043,0-0.059-0.009-0.057-0.055c0.002-0.12,0.004-0.239,0-0.358c-0.004-0.053,0.016-0.063,0.064-0.062
		c0.258,0.002,0.518,0,0.775,0c0.041,0,0.082-0.005,0.119-0.017c0.059-0.017,0.094-0.057,0.092-0.119
		c0-0.058-0.047-0.071-0.092-0.082c-0.102-0.025-0.205-0.026-0.309-0.027c-0.363-0.004-0.596-0.184-0.688-0.53
		c0-0.076,0.004-0.152,0.012-0.228c0.025-0.244,0.16-0.404,0.395-0.471C277.416,23.2,277.51,23.201,277.6,23.185z"/>
	<path class="st32" d="M276.92,23.923c0.092,0.346,0.324,0.526,0.688,0.53c0.104,0.001,0.207,0.002,0.309,0.027
		c0.045,0.011,0.092,0.024,0.092,0.082c0.002,0.062-0.033,0.102-0.092,0.119c-0.037,0.012-0.078,0.017-0.119,0.017
		c-0.258,0-0.518,0.002-0.775,0c-0.049-0.001-0.068,0.008-0.064,0.062c0.004,0.119,0.002,0.238,0,0.358
		c-0.002,0.045,0.014,0.055,0.057,0.055c0.256-0.001,0.512,0,0.77,0c-0.021,0.017-0.049,0.011-0.072,0.011
		c-0.195,0-0.393,0.001-0.588,0c-0.041,0-0.074,0.009-0.107,0.037c-0.08,0.063-0.16,0.124-0.246,0.176
		c-0.023,0.013-0.053,0.021-0.053,0.056c-0.105-0.091-0.203-0.192-0.299-0.294c0.064-0.001,0.127-0.004,0.189-0.002
		c0.037,0.001,0.053-0.007,0.051-0.047c-0.002-0.14-0.002-0.279,0.002-0.419c0-0.046-0.02-0.051-0.057-0.05
		c-0.221,0.002-0.441,0.002-0.662,0.001c-0.02,0-0.045,0.013-0.061-0.012c0.08,0,0.162-0.003,0.242,0.001
		c0.051,0.002,0.072-0.021,0.09-0.063c0.031-0.079,0.064-0.157,0.098-0.236c0.051,0.006,0.09-0.017,0.131-0.042
		C276.615,24.185,276.764,24.047,276.92,23.923z"/>
	<path class="st32" d="M278.174,23.937c-0.186-0.043-0.375-0.024-0.564-0.024c-0.07,0-0.1-0.02-0.082-0.087
		c0.008-0.035-0.045-0.101,0.041-0.102c0.225-0.001,0.449,0.001,0.674,0.002c0.002,0.053-0.027,0.096-0.047,0.143
		C278.188,23.891,278.174,23.911,278.174,23.937z"/>
	<path class="st32" d="M277.838,25.172c0.004,0,0.008,0,0.012,0C277.846,25.177,277.842,25.178,277.838,25.172z"/>
	<path class="st26" d="M274,13.836c0.084,0.096,0.168,0.192,0.254,0.288c0.023,0.026,0.033,0.04-0.006,0.063
		c-0.164,0.092-0.328,0.187-0.49,0.282c-0.033,0.021-0.049,0.009-0.07-0.017c-0.088-0.107-0.178-0.213-0.268-0.319
		c-0.039-0.047-0.08-0.095-0.123-0.146c0.191-0.085,0.371-0.184,0.555-0.277c0.023-0.012,0.033,0,0.045,0.014
		C273.932,13.76,273.967,13.798,274,13.836z"/>
	<path class="st26" d="M275.838,13.917c-0.117,0.001-0.234,0-0.35,0.005c-0.053,0.002-0.074-0.01-0.084-0.064
		c-0.023-0.121-0.041-0.242-0.078-0.36c0.004-0.022-0.014-0.041-0.016-0.067c0.24-0.002,0.477,0.015,0.713,0.028
		c0.057,0.003,0.035,0.061,0.049,0.093c0.008,0.059,0.016,0.117,0.023,0.176c-0.002,0.011-0.002,0.021,0.01,0.029v0.001
		c0.004,0.031,0.004,0.063,0.012,0.092c0.008,0.041,0,0.057-0.045,0.057C275.994,13.907,275.916,13.913,275.838,13.917z"/>
	<path class="st16" d="M277.148,14.158c-0.199-0.061-0.398-0.12-0.604-0.153c-0.047-0.007-0.094-0.015-0.139-0.023
		c-0.006-0.032-0.033-0.045-0.053-0.065c-0.066-0.061-0.143-0.112-0.191-0.188c0.045-0.032,0.09-0.064,0.135-0.096
		c0.078-0.042,0.145-0.104,0.229-0.136c0.047,0.018,0.084,0.05,0.119,0.085c0.164,0.163,0.322,0.334,0.471,0.511
		C277.133,14.113,277.145,14.133,277.148,14.158z"/>
	<path class="st7" d="M276.297,13.633c-0.045,0.032-0.09,0.064-0.135,0.096c-0.02,0.009-0.037,0.019-0.057,0.028v-0.001
		c0.002-0.012,0-0.021-0.01-0.029c-0.008-0.059-0.016-0.118-0.023-0.176C276.152,13.56,276.225,13.598,276.297,13.633z"/>
	<path class="st8" d="M274.258,23.087c0.008,0.005,0.016,0.01,0.025,0.016C274.271,23.103,274.262,23.099,274.258,23.087z"/>
	<path class="st9" d="M278.027,15.131c0.213,0.083,0.406,0.199,0.574,0.356c0.006,0.004,0.012,0.005,0.018,0.008
		c0.154,0.25,0.307,0.499,0.459,0.75c0.047,0.078,0.107,0.149,0.137,0.237c-0.119-0.009-0.225-0.062-0.342-0.085
		c-0.016-0.003-0.033-0.006-0.051-0.009c-0.076-0.022-0.152-0.046-0.229-0.069c0.002-0.032-0.008-0.063-0.021-0.091
		c-0.158-0.343-0.326-0.684-0.521-1.01C278.035,15.191,278.023,15.165,278.027,15.131z"/>
	<path class="st26" d="M277.959,14.416c-0.076-0.042-0.152-0.085-0.229-0.125c-0.031-0.017-0.047-0.035-0.043-0.072
		c0.008-0.083,0.01-0.165,0.014-0.248c0.023-0.017,0.035,0.009,0.049,0.019c0.16,0.114,0.318,0.232,0.479,0.346
		c0.035,0.025,0.039,0.042,0.014,0.077c-0.074,0.111-0.074,0.112-0.191,0.049c-0.023-0.012-0.049-0.023-0.072-0.035l-0.002,0.002
		C277.975,14.418,277.967,14.417,277.959,14.416z"/>
	<path class="st1" d="M277.297,13.336c-0.004-0.005-0.006-0.009-0.01-0.014c0.002-0.001,0.004-0.002,0.004-0.003
		C277.293,13.325,277.295,13.331,277.297,13.336L277.297,13.336z"/>
	<path class="st1" d="M277.959,14.416c0.008,0,0.016,0.002,0.018,0.012C277.971,14.424,277.965,14.42,277.959,14.416z"/>
	<path class="st33" d="M276.92,23.923c-0.156,0.125-0.305,0.262-0.479,0.367c-0.041,0.025-0.08,0.048-0.131,0.042
		c0.111-0.279,0.225-0.558,0.336-0.836c0.164-0.401,0.326-0.803,0.49-1.205c0.057-0.14,0.115-0.278,0.172-0.417
		c0.004-0.004,0.008-0.009,0.014-0.014c0.242-0.09,0.486-0.18,0.732-0.27c0.047-0.004,0.09-0.026,0.135-0.04
		c-0.031,0.163-0.084,0.321-0.141,0.477c-0.096,0.261-0.201,0.519-0.334,0.764c-0.053,0.099-0.109,0.196-0.166,0.292
		s-0.059,0.095,0.051,0.102c-0.09,0.016-0.184,0.014-0.273,0.039c-0.234,0.067-0.369,0.227-0.395,0.471
		C276.924,23.771,276.92,23.847,276.92,23.923z"/>
	<path class="st7" d="M278.189,21.551c-0.045,0.013-0.088,0.036-0.135,0.04c-0.004-0.023,0.004-0.044,0.01-0.066
		c0.072-0.293,0.141-0.587,0.182-0.887c0.051-0.363,0.08-0.725,0.078-1.09c0-0.031-0.004-0.058-0.029-0.079
		c0.033-0.104,0.066-0.207,0.129-0.297c0.074,0.134,0.121,0.279,0.18,0.42c0.105,0.248,0.207,0.497,0.309,0.746
		c0.115,0.281,0.23,0.563,0.346,0.846c-0.305,0.104-0.607,0.208-0.91,0.313C278.295,21.513,278.242,21.532,278.189,21.551z"/>
	<path class="st3" d="M278.432,19.139c-0.027-0.017-0.031-0.048-0.043-0.074c-0.32-0.765-0.639-1.53-0.959-2.295
		c-0.121-0.285-0.246-0.567-0.369-0.851c0.02-0.025,0.041-0.011,0.063-0.005c0.133,0.038,0.268,0.075,0.402,0.112
		c0,0.033,0.018,0.061,0.031,0.088c0.23,0.437,0.461,0.873,0.689,1.311c0.133,0.254,0.264,0.51,0.396,0.765
		c0.029,0.055,0.055,0.114,0.098,0.159C278.641,18.613,278.523,18.871,278.432,19.139z"/>
	<path class="st36" d="M278.74,18.348c-0.043-0.045-0.068-0.104-0.098-0.159c-0.133-0.254-0.264-0.51-0.396-0.765
		c-0.229-0.438-0.459-0.874-0.689-1.311c-0.014-0.027-0.031-0.055-0.031-0.088c0.078,0.013,0.148,0.053,0.23,0.054
		c0.021,0.009,0.043,0.02,0.068,0.026c0.174,0.05,0.35,0.1,0.525,0.15c0.016,0.083,0.068,0.15,0.105,0.223
		c0.18,0.342,0.355,0.685,0.535,1.027c0.014,0.028,0.025,0.064,0.064,0.071c-0.016,0.044-0.029,0.089-0.045,0.134
		c-0.049,0.061-0.059,0.139-0.088,0.208c-0.057,0.127-0.104,0.258-0.152,0.388C278.76,18.321,278.75,18.334,278.74,18.348z"/>
	<path class="st23" d="M279.055,17.577c-0.039-0.007-0.051-0.043-0.064-0.071c-0.18-0.342-0.355-0.685-0.535-1.027
		c-0.037-0.073-0.09-0.14-0.105-0.223c0.082,0.021,0.164,0.043,0.244,0.065c0.076,0.023,0.152,0.047,0.229,0.069
		c0.049,0.096,0.096,0.193,0.145,0.288c0.076,0.145,0.154,0.29,0.23,0.434c0.008,0.014,0.018,0.027,0.031,0.034
		C279.178,17.292,279.121,17.437,279.055,17.577z"/>
	<path class="st16" d="M278.594,16.32c-0.08-0.021-0.162-0.043-0.244-0.065c-0.176-0.05-0.352-0.1-0.525-0.15
		c-0.025-0.006-0.047-0.017-0.068-0.026c-0.006-0.077-0.061-0.129-0.096-0.19c-0.143-0.244-0.279-0.49-0.457-0.712
		c-0.035-0.043-0.086-0.083-0.082-0.15c0.287-0.041,0.568-0.012,0.844,0.077c0.021,0.007,0.041,0.018,0.063,0.027
		c-0.004,0.033,0.008,0.06,0.023,0.088c0.195,0.326,0.363,0.667,0.521,1.01C278.586,16.257,278.596,16.288,278.594,16.32z
		 M277.598,15.41c0,0.018,0.002,0.036-0.002,0.054c-0.008,0.057,0.014,0.079,0.072,0.082c0.086,0.005,0.174,0.017,0.26,0.028
		c0.139,0.018,0.139,0.019,0.137-0.122c0-0.007,0-0.014,0-0.021c0.008-0.04-0.014-0.055-0.049-0.062
		c-0.098-0.02-0.193-0.042-0.289-0.063C277.598,15.276,277.598,15.276,277.598,15.41z"/>
	<path class="st23" d="M277.121,15.027c-0.004,0.067,0.047,0.106,0.082,0.15c0.178,0.222,0.314,0.468,0.457,0.712
		c0.035,0.061,0.09,0.113,0.096,0.19c-0.082,0-0.152-0.041-0.23-0.054c-0.135-0.037-0.27-0.075-0.402-0.112
		c-0.021-0.005-0.043-0.02-0.063,0.005c-0.006-0.01-0.014-0.021-0.021-0.03c-0.01-0.03-0.018-0.06-0.031-0.089
		c-0.102-0.225-0.205-0.449-0.307-0.673C276.838,15.079,276.977,15.042,277.121,15.027z"/>
	<path class="st16" d="M276.701,15.126c0.102,0.224,0.205,0.449,0.307,0.673c0.014,0.029,0.021,0.059,0.031,0.089
		c-0.135-0.036-0.271-0.071-0.408-0.107c-0.031-0.008-0.061-0.017-0.092-0.016c0.133-0.066,0.146-0.169,0.088-0.294
		c-0.004-0.01-0.006-0.022-0.008-0.033c-0.004-0.044-0.029-0.055-0.068-0.045c-0.129,0.032-0.256,0.064-0.385,0.096
		c-0.029,0.007-0.041,0.019-0.023,0.051c0.023,0.039,0.041,0.08,0.061,0.119c-0.102-0.015-0.199-0.052-0.297-0.08
		c-0.023-0.007-0.047-0.011-0.07-0.017C276.102,15.373,276.387,15.222,276.701,15.126z"/>
	<path class="st23" d="M276.105,13.757c0.02-0.01,0.037-0.019,0.057-0.028c0.049,0.076,0.125,0.127,0.191,0.188
		c0.02,0.02,0.047,0.033,0.053,0.065c-0.203-0.016-0.406-0.028-0.611-0.017c0.014-0.017,0.029-0.033,0.043-0.049
		c0.078-0.004,0.156-0.01,0.234-0.011c0.045,0,0.053-0.016,0.045-0.057C276.109,13.82,276.109,13.788,276.105,13.757z"/>
	<path class="st35" d="M270.752,24.09c-0.057,0-0.113-0.002-0.168,0.001c-0.041,0.002-0.049-0.013-0.049-0.05
		c0.002-0.087,0.002-0.175,0.002-0.262c-0.002-0.033,0.006-0.049,0.043-0.048c0.119,0.002,0.238,0.002,0.357,0
		c0.037-0.001,0.045,0.015,0.043,0.047c-0.002,0.087-0.002,0.175,0,0.263c0.002,0.037-0.008,0.052-0.047,0.05
		C270.873,24.088,270.813,24.09,270.752,24.09z"/>
	<path class="st16" d="M278.295,19.467c0.025,0.021,0.029,0.048,0.029,0.079c0.002,0.366-0.027,0.728-0.078,1.09
		c-0.041,0.3-0.109,0.594-0.182,0.887c-0.006,0.022-0.014,0.043-0.01,0.066c-0.246,0.09-0.49,0.18-0.732,0.27
		c0.061-0.188,0.143-0.367,0.217-0.55c0.213-0.526,0.43-1.051,0.645-1.577C278.219,19.644,278.25,19.553,278.295,19.467z"/>
	<path class="st26" d="M275.771,21.817c-0.18-0.01-0.359-0.02-0.539-0.03c-0.105-0.006-0.211-0.014-0.316-0.018
		c-0.035-0.001-0.049-0.012-0.059-0.046c-0.049-0.177-0.098-0.354-0.148-0.531c-0.01-0.036-0.004-0.047,0.035-0.046
		c0.225,0.001,0.449,0.001,0.674,0c0.021,0,0.037,0.004,0.049,0.026c0.102,0.21,0.203,0.42,0.305,0.629
		C275.773,21.804,275.771,21.809,275.771,21.817z"/>
	<path class="st26" d="M275.18,19.93c-0.238-0.103-0.461-0.2-0.686-0.294c-0.031-0.012-0.037-0.028-0.035-0.055
		c0.012-0.183,0.021-0.368,0.033-0.554c0.037,0.004,0.063,0.025,0.092,0.04c0.17,0.088,0.342,0.18,0.512,0.268
		c0.041,0.02,0.053,0.044,0.055,0.087C275.158,19.588,275.17,19.754,275.18,19.93z"/>
	<path class="st26" d="M275.094,18.401c-0.191-0.162-0.375-0.319-0.561-0.476c-0.014-0.012-0.023-0.023-0.012-0.045
		c0.07-0.139,0.139-0.279,0.211-0.424c0.162,0.123,0.318,0.242,0.477,0.361c0.012,0.01,0.023,0.021,0.018,0.039
		C275.184,18.036,275.139,18.216,275.094,18.401z"/>
	<path class="st26" d="M275.557,16.91c-0.162-0.179-0.316-0.352-0.473-0.522c-0.02-0.021-0.02-0.034,0.002-0.054
		c0.104-0.091,0.205-0.183,0.307-0.276c0.023-0.022,0.033-0.017,0.051,0.007c0.1,0.152,0.199,0.304,0.301,0.455
		c0.016,0.022,0.014,0.04,0.002,0.062C275.684,16.687,275.623,16.794,275.557,16.91z"/>
	<path class="st26" d="M276.203,15.658c-0.02-0.04-0.037-0.081-0.061-0.119c-0.018-0.032-0.006-0.043,0.023-0.051
		c0.129-0.031,0.256-0.063,0.385-0.096c0.039-0.01,0.064,0.001,0.068,0.045c0.002,0.011,0.004,0.022,0.008,0.033
		c0.059,0.125,0.045,0.228-0.088,0.294c-0.049,0.037-0.098,0.071-0.143,0.111c-0.037,0.033-0.057,0.036-0.08-0.015
		C276.283,15.791,276.24,15.726,276.203,15.658z"/>
	<path class="st10" d="M272.813,24.249c-0.176,0.01-0.176,0.01-0.176-0.162c0-0.115,0.002-0.23,0-0.345
		c0-0.035,0.01-0.046,0.045-0.046c0.137,0.001,0.275,0.001,0.412,0c0.031-0.001,0.043,0.008,0.043,0.041
		c-0.004,0.067-0.002,0.135-0.004,0.203c-0.01,0.004-0.021,0.006-0.029,0.013C273.006,24.052,272.91,24.15,272.813,24.249z"/>
	<path class="st8" d="M272.813,24.249c0.098-0.099,0.193-0.197,0.291-0.295c0.008-0.007,0.02-0.009,0.029-0.013
		c0.002,0.09,0.002,0.18,0.004,0.27c0,0.031-0.01,0.043-0.041,0.042C273,24.25,272.906,24.25,272.813,24.249z"/>
	<path class="st23" d="M276.096,13.728c0.01,0.008,0.012,0.017,0.01,0.029C276.094,13.749,276.094,13.739,276.096,13.728z"/>
	<path class="st26" d="M277.598,15.41c0-0.134,0-0.134,0.129-0.104c0.096,0.021,0.191,0.044,0.289,0.063
		c0.035,0.007,0.057,0.022,0.049,0.062c0,0.007,0,0.014,0,0.021c0.002,0.141,0.002,0.14-0.137,0.122
		c-0.086-0.011-0.174-0.023-0.26-0.028c-0.059-0.003-0.08-0.024-0.072-0.082C277.6,15.446,277.598,15.427,277.598,15.41z"/>
</g>
<path class="st4" d="M273.059,63.663c-2.418,0.144-3.791-1.689-4.271-3.228c-0.133-0.427-0.336-0.577-0.729-0.62
	c-0.746-0.081-1.471-0.257-2.18-0.502c-0.578-0.2-0.729-0.51-0.545-1.103c0.068-0.223,0.174-0.441,0.295-0.641
	c0.305-0.497,0.602-0.568,1.086-0.237c0.375,0.257,0.775,0.346,1.225,0.393c0.576,0.06,0.725-0.194,0.801-0.704
	c0.26-1.726,0.85-3.318,2.08-4.605c1.123-1.176,2.512-1.585,4.092-1.243c1.879,0.406,2.832,2.236,2.207,4.161
	c-0.389,1.201-1.221,2.054-2.203,2.781c-0.824,0.61-1.723,1.097-2.682,1.459c-0.34,0.128-0.352,0.294-0.223,0.576
	c0.262,0.571,0.779,0.672,1.314,0.721c0.746,0.068,1.447-0.16,2.119-0.444c1.041-0.439,2.035-0.976,2.939-1.663
	c0.482-0.365,0.695-0.291,0.949,0.258c0.5,1.077,0.129,2.23-0.813,2.801C276.811,62.863,275.045,63.651,273.059,63.663z
	 M271.611,57.196c0.012,0.169-0.084,0.402,0.262,0.391c1.111-0.036,2.768-1.428,3.012-2.543c0.139-0.644-0.055-1.274-0.465-1.511
	c-0.371-0.215-0.904-0.062-1.418,0.42C272.072,54.827,271.756,55.969,271.611,57.196z"/>
</svg>
