<?xml version="1.0" encoding="utf-8"?>
<!-- Generator: Adobe Illustrator 16.0.0, SVG Export Plug-In . SVG Version: 6.00 Build 0)  -->
<!DOCTYPE svg PUBLIC "-//W3C//DTD SVG 1.1//EN" "http://www.w3.org/Graphics/SVG/1.1/DTD/svg11.dtd">
<svg version="1.1" id="Layer_1" xmlns="http://www.w3.org/2000/svg" xmlns:xlink="http://www.w3.org/1999/xlink" x="0px" y="0px"
	 width="259.2px" height="144px" viewBox="0 0 259.2 144" style="enable-background:new 0 0 259.2 144;" xml:space="preserve">
<style type="text/css">
<![CDATA[
	.st0{fill:#FFFFFF;stroke:#000000;stroke-width:0.25;stroke-miterlimit:10;}
	.st1{fill-rule:evenodd;clip-rule:evenodd;}
	.st2{fill:none;}
]]>
</style>
<g>
	<rect x="1" y="0.396" class="st0" width="257.201" height="143.604"/>
	<g>
		<path d="M17.242,27.34V14.956h3.142c2.079,0,3.655,0.511,4.729,1.531c1.074,1.021,1.611,2.517,1.611,4.489
			c0,1.263-0.267,2.378-0.8,3.346c-0.533,0.967-1.295,1.712-2.287,2.234c-0.991,0.522-2.132,0.784-3.421,0.784H17.242z
			 M18.193,15.835v10.641h1.927c1.796,0,3.181-0.472,4.153-1.415c0.973-0.944,1.459-2.295,1.459-4.054
			c0-3.448-1.82-5.172-5.46-5.172H18.193z"/>
		<path d="M33.295,19.425c-0.256-0.192-0.575-0.288-0.959-0.288c-0.736,0-1.321,0.362-1.755,1.087
			c-0.435,0.725-0.652,1.695-0.652,2.91v4.205H29.05v-8.842h0.879v1.935h0.04c0.208-0.677,0.53-1.198,0.967-1.563
			c0.437-0.365,0.933-0.547,1.487-0.547c0.325,0,0.615,0.053,0.871,0.16V19.425z"/>
		<path d="M41.738,22.999h-6.5c0,1.162,0.273,2.078,0.82,2.746c0.546,0.669,1.31,1.003,2.291,1.003c0.991,0,1.948-0.357,2.87-1.071
			v0.919c-0.896,0.64-1.917,0.959-3.062,0.959c-1.189,0-2.128-0.418-2.818-1.255c-0.69-0.836-1.035-1.975-1.035-3.414
			c0-0.848,0.17-1.625,0.512-2.334c0.341-0.709,0.816-1.265,1.427-1.667s1.291-0.604,2.043-0.604c1.092,0,1.941,0.382,2.546,1.147
			c0.604,0.765,0.907,1.819,0.907,3.162V22.999z M40.802,22.207c-0.027-0.997-0.261-1.766-0.704-2.307
			c-0.442-0.541-1.058-0.811-1.847-0.811c-0.815,0-1.484,0.271-2.007,0.815c-0.522,0.543-0.847,1.311-0.975,2.302H40.802z"/>
		<path d="M54.297,18.498l-2.726,8.842h-0.855l-1.911-6.612c-0.054-0.165-0.099-0.418-0.136-0.759h-0.048
			c-0.016,0.203-0.072,0.45-0.168,0.743l-2.126,6.628h-0.855l-2.67-8.842h0.976l2.022,6.987c0.053,0.182,0.093,0.432,0.12,0.751
			h0.064c0.026-0.24,0.08-0.49,0.16-0.751l2.215-6.987h0.664l1.982,6.987c0.027,0.08,0.067,0.331,0.12,0.751h0.072
			c0-0.17,0.048-0.421,0.144-0.751l2.047-6.987H54.297z"/>
		<path d="M61.933,29.69h-7.339v-0.815h7.339V29.69z"/>
		<path d="M71.791,26.916c-0.997,0.426-2.058,0.64-3.182,0.64c-1.109,0-2.103-0.258-2.982-0.775
			c-0.88-0.517-1.562-1.246-2.047-2.187c-0.485-0.941-0.728-2.005-0.728-3.194c0-1.264,0.258-2.404,0.775-3.422
			s1.247-1.811,2.191-2.378c0.943-0.568,2.015-0.852,3.214-0.852c0.997,0,1.916,0.157,2.758,0.472v1.007
			c-0.875-0.405-1.799-0.608-2.774-0.608c-1.007,0-1.907,0.237-2.698,0.712c-0.792,0.474-1.403,1.143-1.835,2.006
			c-0.432,0.864-0.647,1.855-0.647,2.974c0,1.061,0.203,2,0.607,2.818c0.405,0.818,0.979,1.448,1.723,1.891
			c0.743,0.443,1.587,0.664,2.53,0.664c1.156,0,2.188-0.229,3.094-0.688V26.916z"/>
		<path d="M81.048,27.34h-0.903v-1.575h-0.032c-0.608,1.194-1.551,1.791-2.831,1.791c-2.095,0-3.142-1.306-3.142-3.917v-5.141h0.903
			v4.941c0,1.135,0.192,1.971,0.576,2.506s0.994,0.803,1.831,0.803c0.815,0,1.468-0.297,1.959-0.891
			c0.49-0.594,0.735-1.374,0.735-2.339v-5.021h0.903V27.34z"/>
		<path d="M91.034,27.34h-0.903v-1.591h-0.032c-0.299,0.57-0.725,1.014-1.279,1.331s-1.183,0.476-1.887,0.476
			c-0.725,0-1.366-0.18-1.923-0.54c-0.557-0.36-0.99-0.882-1.299-1.567c-0.309-0.685-0.463-1.475-0.463-2.371
			c0-0.922,0.17-1.751,0.512-2.486c0.341-0.736,0.82-1.305,1.439-1.707c0.618-0.402,1.319-0.604,2.103-0.604
			c1.306,0,2.239,0.533,2.798,1.599h0.032v-5.628h0.903V27.34z M90.131,23.566v-1.591c0-0.82-0.261-1.507-0.783-2.059
			c-0.522-0.552-1.199-0.827-2.031-0.827c-0.938,0-1.695,0.357-2.271,1.071c-0.576,0.714-0.864,1.666-0.864,2.854
			c0,1.135,0.256,2.042,0.768,2.718s1.212,1.015,2.103,1.015c0.922,0,1.666-0.295,2.231-0.887
			C89.848,25.269,90.131,24.504,90.131,23.566z"/>
		<path d="M101.02,27.34h-0.903v-1.591h-0.032c-0.299,0.57-0.725,1.014-1.279,1.331s-1.183,0.476-1.887,0.476
			c-0.725,0-1.366-0.18-1.923-0.54c-0.557-0.36-0.99-0.882-1.299-1.567c-0.309-0.685-0.463-1.475-0.463-2.371
			c0-0.922,0.17-1.751,0.512-2.486c0.341-0.736,0.82-1.305,1.439-1.707c0.618-0.402,1.319-0.604,2.103-0.604
			c1.306,0,2.239,0.533,2.798,1.599h0.032v-5.628h0.903V27.34z M100.116,23.566v-1.591c0-0.82-0.261-1.507-0.783-2.059
			c-0.522-0.552-1.199-0.827-2.031-0.827c-0.938,0-1.695,0.357-2.271,1.071c-0.576,0.714-0.864,1.666-0.864,2.854
			c0,1.135,0.256,2.042,0.768,2.718s1.212,1.015,2.103,1.015c0.922,0,1.666-0.295,2.231-0.887
			C99.833,25.269,100.116,24.504,100.116,23.566z"/>
		<path d="M110.741,27.34h-0.887v-5.269c0-1.029-0.188-1.783-0.564-2.263c-0.375-0.479-0.955-0.719-1.739-0.719
			c-0.554,0-1.043,0.141-1.467,0.423c-0.423,0.283-0.752,0.681-0.987,1.195c-0.234,0.515-0.352,1.089-0.352,1.723v4.909h-0.896
			V14.252h0.896v5.82h0.04c0.693-1.194,1.697-1.791,3.014-1.791c0.97,0,1.703,0.305,2.198,0.916s0.744,1.499,0.744,2.666V27.34z"/>
		<path d="M119.968,18.498l-4.27,10.585c-0.341,0.858-0.722,1.474-1.143,1.847c-0.421,0.373-0.927,0.56-1.519,0.56
			c-0.277,0-0.52-0.04-0.728-0.12v-0.863c0.224,0.08,0.474,0.12,0.751,0.12c0.704,0,1.255-0.478,1.655-1.431l0.808-1.919
			l-3.366-8.778h1l2.814,7.787h0.04l0.2-0.608l2.798-7.179H119.968z"/>
		<path d="M122.038,27.5c-0.208,0-0.381-0.075-0.52-0.224s-0.208-0.322-0.208-0.52c0-0.208,0.068-0.382,0.204-0.524
			c0.136-0.141,0.31-0.212,0.523-0.212c0.208,0,0.386,0.071,0.536,0.212c0.149,0.142,0.224,0.316,0.224,0.524
			c0,0.197-0.072,0.371-0.216,0.52C122.438,27.425,122.257,27.5,122.038,27.5z"/>
		<path d="M139.531,14.956l-3.605,12.384h-0.872l-2.718-9.274c-0.134-0.453-0.208-0.848-0.224-1.184h-0.04
			c-0.017,0.272-0.102,0.661-0.256,1.167l-2.878,9.29h-0.864l-3.669-12.384h1.063l2.79,9.85c0.106,0.405,0.192,0.794,0.256,1.167
			h0.04c0.032-0.224,0.13-0.613,0.296-1.167l2.998-9.85h0.592l2.774,9.866c0.106,0.374,0.194,0.754,0.264,1.144h0.032
			c0.011-0.112,0.062-0.344,0.151-0.696l2.839-10.313H139.531z"/>
		<path d="M148.157,22.999h-6.5c0,1.162,0.273,2.078,0.819,2.746c0.547,0.669,1.311,1.003,2.291,1.003
			c0.991,0,1.948-0.357,2.87-1.071v0.919c-0.896,0.64-1.916,0.959-3.063,0.959c-1.188,0-2.128-0.418-2.818-1.255
			c-0.689-0.836-1.035-1.975-1.035-3.414c0-0.848,0.171-1.625,0.512-2.334s0.817-1.265,1.428-1.667
			c0.609-0.402,1.291-0.604,2.042-0.604c1.093,0,1.941,0.382,2.547,1.147c0.604,0.765,0.907,1.819,0.907,3.162V22.999z
			 M147.222,22.207c-0.026-0.997-0.261-1.766-0.703-2.307c-0.442-0.541-1.059-0.811-1.847-0.811c-0.815,0-1.484,0.271-2.007,0.815
			c-0.522,0.543-0.848,1.311-0.976,2.302H147.222z"/>
		<path d="M151.268,25.813h-0.04v1.527h-0.896V14.252h0.896v6.02h0.04c0.304-0.618,0.743-1.104,1.319-1.459
			c0.575-0.354,1.223-0.532,1.942-0.532c1.104,0,1.978,0.388,2.622,1.163c0.646,0.775,0.968,1.83,0.968,3.162
			c0,0.965-0.165,1.824-0.496,2.578c-0.33,0.754-0.799,1.338-1.407,1.751c-0.607,0.413-1.295,0.62-2.063,0.62
			C152.854,27.556,151.891,26.975,151.268,25.813z M151.228,22.479v1.135c0,0.57,0.128,1.099,0.384,1.587s0.61,0.868,1.063,1.139
			c0.453,0.272,0.956,0.408,1.511,0.408c0.581,0,1.101-0.17,1.559-0.512c0.459-0.341,0.813-0.826,1.063-1.455
			c0.251-0.628,0.376-1.351,0.376-2.167c0-1.055-0.252-1.907-0.756-2.554c-0.503-0.647-1.185-0.971-2.042-0.971
			c-0.613,0-1.159,0.145-1.64,0.436c-0.479,0.291-0.853,0.695-1.119,1.215C151.36,21.26,151.228,21.839,151.228,22.479z"/>
		<path d="M166.241,29.69h-7.339v-0.815h7.339V29.69z"/>
		<path d="M167.841,27.34V14.956h3.143c2.078,0,3.654,0.511,4.729,1.531s1.611,2.517,1.611,4.489c0,1.263-0.267,2.378-0.8,3.346
			s-1.295,1.712-2.286,2.234c-0.991,0.522-2.132,0.784-3.422,0.784H167.841z M168.793,15.835v10.641h1.927
			c1.796,0,3.18-0.472,4.153-1.415c0.973-0.944,1.459-2.295,1.459-4.054c0-3.448-1.82-5.172-5.461-5.172H168.793z"/>
		<path d="M186.453,22.999h-6.5c0,1.162,0.273,2.078,0.819,2.746c0.547,0.669,1.311,1.003,2.291,1.003
			c0.991,0,1.948-0.357,2.87-1.071v0.919c-0.896,0.64-1.916,0.959-3.063,0.959c-1.188,0-2.128-0.418-2.818-1.255
			c-0.689-0.836-1.035-1.975-1.035-3.414c0-0.848,0.171-1.625,0.512-2.334s0.817-1.265,1.428-1.667
			c0.609-0.402,1.291-0.604,2.042-0.604c1.093,0,1.941,0.382,2.547,1.147c0.604,0.765,0.907,1.819,0.907,3.162V22.999z
			 M185.518,22.207c-0.026-0.997-0.261-1.766-0.703-2.307c-0.442-0.541-1.059-0.811-1.847-0.811c-0.815,0-1.484,0.271-2.007,0.815
			c-0.522,0.543-0.848,1.311-0.976,2.302H185.518z"/>
		<path d="M195.135,18.498l-3.518,8.842h-0.832l-3.405-8.842h0.991l2.574,6.939c0.134,0.373,0.224,0.698,0.272,0.976h0.039
			c0.064-0.357,0.147-0.669,0.248-0.936l2.662-6.979H195.135z"/>
		<path d="M203.514,22.999h-6.5c0,1.162,0.273,2.078,0.819,2.746c0.547,0.669,1.311,1.003,2.291,1.003
			c0.991,0,1.948-0.357,2.87-1.071v0.919c-0.896,0.64-1.916,0.959-3.063,0.959c-1.188,0-2.128-0.418-2.818-1.255
			c-0.689-0.836-1.035-1.975-1.035-3.414c0-0.848,0.171-1.625,0.512-2.334s0.817-1.265,1.428-1.667
			c0.609-0.402,1.291-0.604,2.042-0.604c1.093,0,1.941,0.382,2.547,1.147c0.604,0.765,0.907,1.819,0.907,3.162V22.999z
			 M202.578,22.207c-0.026-0.997-0.261-1.766-0.703-2.307c-0.442-0.541-1.059-0.811-1.847-0.811c-0.815,0-1.484,0.271-2.007,0.815
			c-0.522,0.543-0.848,1.311-0.976,2.302H202.578z"/>
		<path d="M206.584,27.34h-0.896V14.252h0.896V27.34z"/>
		<path d="M212.996,27.556c-1.264,0-2.28-0.418-3.051-1.255c-0.77-0.836-1.155-1.942-1.155-3.318c0-1.45,0.392-2.595,1.176-3.438
			c0.783-0.842,1.833-1.263,3.149-1.263c1.274,0,2.276,0.416,3.007,1.247c0.729,0.832,1.095,1.964,1.095,3.398
			c0,1.38-0.38,2.497-1.139,3.35C215.318,27.129,214.291,27.556,212.996,27.556z M213.067,19.089c-1.034,0-1.85,0.349-2.446,1.047
			c-0.597,0.699-0.896,1.65-0.896,2.854c0,1.151,0.3,2.065,0.899,2.742s1.403,1.015,2.41,1.015c1.029,0,1.827-0.335,2.395-1.007
			c0.568-0.671,0.852-1.612,0.852-2.822c0-1.231-0.281-2.177-0.843-2.838C214.876,19.42,214.086,19.089,213.067,19.089z"/>
		<path d="M220.352,25.813h-0.04v5.596h-0.896V18.498h0.896v1.775h0.04c0.304-0.618,0.743-1.104,1.319-1.459
			c0.575-0.354,1.223-0.532,1.942-0.532c1.104,0,1.978,0.388,2.622,1.163c0.646,0.775,0.968,1.83,0.968,3.162
			c0,0.965-0.167,1.827-0.5,2.586c-0.333,0.759-0.799,1.343-1.398,1.751c-0.6,0.408-1.289,0.611-2.067,0.611
			C221.947,27.556,220.985,26.975,220.352,25.813z M220.312,22.479v1.135c0,0.57,0.128,1.099,0.384,1.587s0.61,0.868,1.063,1.139
			c0.453,0.272,0.956,0.408,1.511,0.408c0.581,0,1.101-0.17,1.559-0.512c0.459-0.341,0.813-0.826,1.063-1.455
			c0.251-0.628,0.376-1.351,0.376-2.167c0-1.055-0.252-1.907-0.756-2.554c-0.503-0.647-1.185-0.971-2.042-0.971
			c-0.613,0-1.159,0.145-1.64,0.436c-0.479,0.291-0.853,0.695-1.119,1.215C220.444,21.26,220.312,21.839,220.312,22.479z"/>
		<path d="M236.205,22.999h-6.5c0,1.162,0.273,2.078,0.819,2.746c0.547,0.669,1.311,1.003,2.291,1.003
			c0.991,0,1.948-0.357,2.87-1.071v0.919c-0.896,0.64-1.916,0.959-3.063,0.959c-1.188,0-2.128-0.418-2.818-1.255
			c-0.689-0.836-1.035-1.975-1.035-3.414c0-0.848,0.171-1.625,0.512-2.334s0.817-1.265,1.428-1.667
			c0.609-0.402,1.291-0.604,2.042-0.604c1.093,0,1.941,0.382,2.547,1.147c0.604,0.765,0.907,1.819,0.907,3.162V22.999z
			 M235.27,22.207c-0.026-0.997-0.261-1.766-0.703-2.307c-0.442-0.541-1.059-0.811-1.847-0.811c-0.815,0-1.484,0.271-2.007,0.815
			c-0.522,0.543-0.848,1.311-0.976,2.302H235.27z"/>
		<path d="M242.624,19.425c-0.256-0.192-0.575-0.288-0.959-0.288c-0.735,0-1.32,0.362-1.755,1.087
			c-0.435,0.725-0.651,1.695-0.651,2.91v4.205h-0.88v-8.842h0.88v1.935h0.04c0.207-0.677,0.53-1.198,0.967-1.563
			c0.438-0.365,0.933-0.547,1.487-0.547c0.325,0,0.615,0.053,0.871,0.16V19.425z"/>
		<path d="M129.941,42.076h-0.677v-1.193h-0.024c-0.224,0.428-0.544,0.761-0.959,0.999c-0.416,0.238-0.888,0.357-1.415,0.357
			c-0.544,0-1.024-0.135-1.442-0.405c-0.417-0.27-0.743-0.662-0.974-1.175c-0.232-0.514-0.348-1.106-0.348-1.778
			c0-0.692,0.128-1.313,0.384-1.865c0.256-0.552,0.616-0.979,1.08-1.28c0.463-0.302,0.989-0.453,1.577-0.453
			c0.979,0,1.679,0.399,2.099,1.199h0.024V32.26h0.677V42.076z M129.265,39.246v-1.193c0-0.616-0.197-1.13-0.588-1.544
			s-0.899-0.621-1.523-0.621c-0.704,0-1.271,0.268-1.703,0.803c-0.432,0.536-0.647,1.25-0.647,2.141
			c0,0.852,0.192,1.531,0.576,2.039c0.384,0.507,0.909,0.761,1.577,0.761c0.691,0,1.249-0.222,1.673-0.666
			S129.265,39.95,129.265,39.246z"/>
		<path d="M136.394,41.782c-0.488,0.304-1.077,0.456-1.769,0.456c-0.588,0-1.113-0.141-1.577-0.423s-0.822-0.678-1.076-1.188
			c-0.254-0.509-0.381-1.092-0.381-1.748c0-0.684,0.141-1.301,0.423-1.853c0.281-0.552,0.678-0.98,1.189-1.286
			s1.09-0.458,1.733-0.458c0.523,0,1.018,0.104,1.48,0.312v0.744c-0.472-0.3-0.991-0.45-1.559-0.45
			c-0.764,0-1.382,0.277-1.855,0.831s-0.711,1.26-0.711,2.12c0,0.839,0.218,1.515,0.653,2.026c0.436,0.512,1.014,0.768,1.733,0.768
			c0.655,0,1.227-0.178,1.715-0.534V41.782z"/>
		<path d="M143.031,42.076h-0.678v-1.181h-0.024c-0.455,0.896-1.163,1.343-2.122,1.343c-1.571,0-2.356-0.979-2.356-2.938v-3.855
			h0.677v3.706c0,0.852,0.145,1.478,0.432,1.88c0.288,0.402,0.746,0.603,1.374,0.603c0.611,0,1.101-0.223,1.469-0.668
			c0.367-0.446,0.552-1.03,0.552-1.754v-3.766h0.678V42.076z"/>
		<path d="M150.521,42.076h-0.678v-1.193h-0.023c-0.225,0.428-0.544,0.761-0.96,0.999c-0.415,0.238-0.887,0.357-1.415,0.357
			c-0.543,0-1.024-0.135-1.441-0.405c-0.418-0.27-0.743-0.662-0.975-1.175c-0.232-0.514-0.348-1.106-0.348-1.778
			c0-0.692,0.128-1.313,0.384-1.865c0.256-0.552,0.615-0.979,1.079-1.28s0.989-0.453,1.577-0.453c0.979,0,1.679,0.399,2.099,1.199
			h0.023V32.26h0.678V42.076z M149.843,39.246v-1.193c0-0.616-0.195-1.13-0.587-1.544c-0.393-0.414-0.899-0.621-1.523-0.621
			c-0.703,0-1.271,0.268-1.703,0.803c-0.432,0.536-0.647,1.25-0.647,2.141c0,0.852,0.192,1.531,0.576,2.039
			c0.384,0.507,0.909,0.761,1.576,0.761c0.692,0,1.25-0.222,1.673-0.666C149.631,40.523,149.843,39.95,149.843,39.246z"/>
		<path d="M158.01,42.076h-0.678v-1.193h-0.023c-0.225,0.428-0.544,0.761-0.96,0.999c-0.415,0.238-0.887,0.357-1.415,0.357
			c-0.543,0-1.024-0.135-1.441-0.405c-0.418-0.27-0.743-0.662-0.975-1.175c-0.232-0.514-0.348-1.106-0.348-1.778
			c0-0.692,0.128-1.313,0.384-1.865c0.256-0.552,0.615-0.979,1.079-1.28s0.989-0.453,1.577-0.453c0.979,0,1.679,0.399,2.099,1.199
			h0.023V32.26h0.678V42.076z M157.332,39.246v-1.193c0-0.616-0.195-1.13-0.587-1.544c-0.393-0.414-0.899-0.621-1.523-0.621
			c-0.703,0-1.271,0.268-1.703,0.803c-0.432,0.536-0.647,1.25-0.647,2.141c0,0.852,0.192,1.531,0.576,2.039
			c0.384,0.507,0.909,0.761,1.576,0.761c0.692,0,1.25-0.222,1.673-0.666C157.12,40.523,157.332,39.95,157.332,39.246z"/>
		<path d="M165.301,42.076h-0.666v-3.952c0-0.771-0.141-1.337-0.423-1.697c-0.281-0.36-0.717-0.54-1.304-0.54
			c-0.416,0-0.783,0.106-1.101,0.318s-0.564,0.511-0.74,0.896c-0.177,0.386-0.265,0.816-0.265,1.292v3.682h-0.671V32.26h0.671v4.365
			h0.03c0.52-0.895,1.273-1.343,2.261-1.343c0.728,0,1.277,0.229,1.648,0.687c0.372,0.458,0.559,1.124,0.559,2V42.076z"/>
		<path d="M172.221,35.444l-3.202,7.939c-0.256,0.644-0.542,1.105-0.857,1.385s-0.695,0.419-1.14,0.419
			c-0.208,0-0.39-0.03-0.545-0.09v-0.647c0.168,0.06,0.355,0.09,0.563,0.09c0.527,0,0.941-0.358,1.241-1.073l0.605-1.439
			l-2.524-6.584h0.749l2.111,5.84h0.029l0.15-0.456l2.099-5.385H172.221z"/>
		<path d="M179.788,39.324h-0.024c-0.38,1.028-1.012,1.541-1.895,1.541c-0.6,0-1.076-0.217-1.431-0.65
			c-0.354-0.434-0.53-1.016-0.53-1.748c0-0.644,0.114-1.228,0.342-1.754c0.228-0.525,0.546-0.935,0.953-1.229
			c0.408-0.294,0.872-0.441,1.392-0.441c0.308,0,0.593,0.081,0.854,0.243c0.262,0.162,0.437,0.369,0.524,0.621h0.024l0.065-0.773
			h0.605l-0.323,3.759c0,0.932,0.317,1.397,0.953,1.397c0.531,0,0.966-0.273,1.304-0.819c0.338-0.545,0.507-1.23,0.507-2.054
			c0-0.843-0.18-1.585-0.539-2.225c-0.36-0.639-0.874-1.129-1.541-1.469c-0.668-0.34-1.447-0.51-2.339-0.51
			c-0.88,0-1.671,0.211-2.374,0.633c-0.704,0.421-1.255,1.011-1.652,1.769c-0.397,0.758-0.597,1.584-0.597,2.479
			c0,0.923,0.187,1.736,0.561,2.438s0.908,1.24,1.604,1.616c0.695,0.376,1.499,0.564,2.41,0.564c1.079,0,1.997-0.188,2.752-0.564
			v0.642c-0.827,0.336-1.767,0.504-2.818,0.504c-1.011,0-1.912-0.218-2.704-0.654c-0.791-0.436-1.401-1.049-1.829-1.841
			s-0.642-1.691-0.642-2.698c0-1.035,0.239-1.972,0.717-2.809s1.124-1.489,1.94-1.955c0.815-0.466,1.712-0.699,2.691-0.699
			c0.96,0,1.824,0.199,2.594,0.597s1.367,0.958,1.793,1.682c0.426,0.723,0.639,1.539,0.639,2.446c0,0.651-0.107,1.247-0.321,1.787
			c-0.214,0.54-0.511,0.96-0.891,1.262c-0.379,0.302-0.797,0.453-1.253,0.453C180.355,40.865,179.848,40.352,179.788,39.324z
			 M178.57,35.618c-0.604,0-1.087,0.259-1.451,0.777c-0.363,0.518-0.545,1.196-0.545,2.036c0,0.58,0.123,1.033,0.371,1.361
			c0.248,0.328,0.584,0.492,1.008,0.492c0.571,0,1.029-0.292,1.373-0.875c0.344-0.583,0.516-1.341,0.516-2.272
			c0-0.503-0.112-0.882-0.336-1.136S178.97,35.618,178.57,35.618z"/>
		<path d="M191.282,41.579c0,1.227-0.273,2.135-0.821,2.725s-1.401,0.884-2.561,0.884c-0.672,0-1.339-0.166-2.003-0.498v-0.689
			c0.708,0.392,1.38,0.587,2.015,0.587c1.795,0,2.692-0.951,2.692-2.854v-0.839h-0.023c-0.516,0.896-1.308,1.343-2.375,1.343
			c-0.839,0-1.51-0.304-2.012-0.912c-0.501-0.607-0.752-1.419-0.752-2.435c0-0.699,0.127-1.324,0.381-1.874
			c0.254-0.55,0.613-0.977,1.079-1.28s0.992-0.456,1.58-0.456c0.967,0,1.667,0.396,2.099,1.187h0.023v-1.025h0.678V41.579z
			 M190.604,39.27v-1.259c0-0.596-0.198-1.098-0.597-1.508c-0.397-0.41-0.895-0.615-1.489-0.615c-0.716,0-1.291,0.269-1.725,0.807
			s-0.65,1.252-0.65,2.144c0,0.859,0.196,1.54,0.588,2.042c0.392,0.502,0.921,0.752,1.589,0.752c0.436,0,0.829-0.102,1.182-0.306
			c0.352-0.204,0.623-0.488,0.815-0.852C190.509,40.111,190.604,39.71,190.604,39.27z"/>
		<path d="M202.399,42.076h-0.672v-3.958c0-0.792-0.122-1.361-0.365-1.709c-0.244-0.348-0.658-0.521-1.241-0.521
			c-0.332,0-0.643,0.103-0.933,0.309c-0.29,0.206-0.52,0.488-0.689,0.846s-0.255,0.747-0.255,1.166v3.868h-0.666v-4.018
			c0-1.447-0.554-2.17-1.661-2.17c-0.523,0-0.961,0.221-1.313,0.663s-0.528,1.012-0.528,1.712v3.813h-0.671v-6.632h0.671v1.097h0.03
			c0.46-0.839,1.138-1.259,2.033-1.259c0.463,0,0.87,0.135,1.22,0.405c0.35,0.27,0.585,0.632,0.705,1.088
			c0.216-0.472,0.513-0.838,0.89-1.1c0.378-0.262,0.801-0.393,1.269-0.393c1.451,0,2.177,0.897,2.177,2.692V42.076z"/>
		<path d="M208.982,42.076h-0.672v-1.277h-0.023c-0.204,0.432-0.506,0.78-0.905,1.043c-0.4,0.264-0.842,0.396-1.325,0.396
			c-0.62,0-1.118-0.172-1.496-0.516c-0.378-0.344-0.566-0.797-0.566-1.361c0-1.183,0.761-1.887,2.284-2.111l2.032-0.3
			c0-1.375-0.523-2.063-1.57-2.063c-0.744,0-1.455,0.29-2.135,0.87v-0.78c0.275-0.208,0.623-0.375,1.043-0.503
			s0.806-0.192,1.157-0.192c0.704,0,1.242,0.209,1.616,0.629s0.561,1.038,0.561,1.853V42.076z M208.311,38.544l-1.786,0.258
			c-0.712,0.104-1.193,0.266-1.445,0.486s-0.378,0.565-0.378,1.037c0,0.392,0.13,0.708,0.39,0.947c0.26,0.24,0.613,0.36,1.062,0.36
			c0.399,0,0.766-0.105,1.098-0.314c0.331-0.21,0.591-0.502,0.779-0.875c0.188-0.374,0.281-0.791,0.281-1.25V38.544z"/>
		<path d="M211.31,33.771c-0.148,0-0.272-0.052-0.372-0.156s-0.15-0.23-0.15-0.378c0-0.152,0.053-0.276,0.156-0.372
			c0.104-0.096,0.226-0.144,0.366-0.144c0.144,0,0.269,0.047,0.374,0.141c0.106,0.094,0.159,0.219,0.159,0.375
			c0,0.14-0.051,0.264-0.152,0.372C211.588,33.718,211.461,33.771,211.31,33.771z M211.645,42.076h-0.671v-6.632h0.671V42.076z"/>
		<path d="M214.444,42.076h-0.671V32.26h0.671V42.076z"/>
		<path d="M216.976,42.196c-0.155,0-0.286-0.056-0.39-0.168s-0.156-0.242-0.156-0.39c0-0.156,0.052-0.287,0.153-0.393
			s0.232-0.159,0.393-0.159c0.156,0,0.29,0.053,0.402,0.159c0.111,0.106,0.167,0.237,0.167,0.393c0,0.148-0.054,0.278-0.161,0.39
			C217.275,42.14,217.14,42.196,216.976,42.196z"/>
		<path d="M223.835,41.782c-0.488,0.304-1.077,0.456-1.769,0.456c-0.588,0-1.113-0.141-1.577-0.423s-0.822-0.678-1.076-1.188
			c-0.254-0.509-0.381-1.092-0.381-1.748c0-0.684,0.141-1.301,0.423-1.853c0.281-0.552,0.678-0.98,1.189-1.286
			s1.09-0.458,1.733-0.458c0.523,0,1.018,0.104,1.48,0.312v0.744c-0.472-0.3-0.991-0.45-1.559-0.45
			c-0.764,0-1.382,0.277-1.855,0.831s-0.711,1.26-0.711,2.12c0,0.839,0.218,1.515,0.653,2.026c0.436,0.512,1.014,0.768,1.733,0.768
			c0.655,0,1.227-0.178,1.715-0.534V41.782z"/>
		<path d="M228.11,42.238c-0.947,0-1.71-0.314-2.287-0.941c-0.578-0.628-0.866-1.457-0.866-2.489c0-1.087,0.294-1.946,0.881-2.578
			c0.588-0.632,1.375-0.947,2.362-0.947c0.956,0,1.707,0.312,2.255,0.935s0.821,1.473,0.821,2.548c0,1.036-0.284,1.873-0.854,2.513
			C229.853,41.918,229.082,42.238,228.11,42.238z M228.165,35.888c-0.776,0-1.388,0.262-1.835,0.786
			c-0.448,0.523-0.672,1.237-0.672,2.141c0,0.863,0.225,1.549,0.675,2.057c0.449,0.507,1.052,0.761,1.808,0.761
			c0.771,0,1.37-0.251,1.796-0.755s0.639-1.209,0.639-2.117c0-0.923-0.211-1.633-0.633-2.128S228.928,35.888,228.165,35.888z"/>
		<path d="M241.92,42.076h-0.672v-3.958c0-0.792-0.122-1.361-0.365-1.709c-0.244-0.348-0.658-0.521-1.241-0.521
			c-0.332,0-0.643,0.103-0.933,0.309c-0.29,0.206-0.52,0.488-0.689,0.846s-0.255,0.747-0.255,1.166v3.868h-0.666v-4.018
			c0-1.447-0.554-2.17-1.661-2.17c-0.523,0-0.961,0.221-1.313,0.663s-0.528,1.012-0.528,1.712v3.813h-0.671v-6.632h0.671v1.097h0.03
			c0.46-0.839,1.138-1.259,2.033-1.259c0.463,0,0.87,0.135,1.22,0.405c0.35,0.27,0.585,0.632,0.705,1.088
			c0.216-0.472,0.513-0.838,0.89-1.1c0.378-0.262,0.801-0.393,1.269-0.393c1.451,0,2.177,0.897,2.177,2.692V42.076z"/>
		<path d="M176.357,53.868c0,0.592-0.119,1.125-0.356,1.598c-0.238,0.474-0.573,0.844-1.005,1.109s-0.911,0.399-1.438,0.399
			c-0.876,0-1.555-0.367-2.036-1.101c-0.481-0.733-0.723-1.778-0.723-3.133c0-1.083,0.146-2.032,0.438-2.845
			c0.291-0.813,0.713-1.438,1.265-1.874c0.552-0.436,1.195-0.653,1.931-0.653c0.532,0,0.993,0.078,1.386,0.234v0.695
			c-0.44-0.216-0.904-0.324-1.392-0.324c-0.584,0-1.1,0.187-1.547,0.561c-0.448,0.374-0.793,0.908-1.034,1.601
			c-0.242,0.694-0.363,1.478-0.363,2.354h0.03c0.452-0.991,1.215-1.487,2.291-1.487c0.487,0,0.926,0.122,1.315,0.366
			c0.39,0.244,0.693,0.585,0.912,1.025C176.249,52.833,176.357,53.324,176.357,53.868z M175.65,53.988c0-0.72-0.181-1.296-0.54-1.73
			c-0.359-0.434-0.846-0.65-1.457-0.65c-0.372,0-0.719,0.098-1.04,0.294c-0.322,0.196-0.578,0.463-0.768,0.803
			c-0.19,0.34-0.285,0.696-0.285,1.067c0,0.472,0.087,0.906,0.261,1.304s0.419,0.712,0.734,0.944
			c0.316,0.232,0.668,0.348,1.056,0.348c0.584,0,1.069-0.225,1.457-0.674S175.65,54.675,175.65,53.988z"/>
		<path d="M183.182,52.129c0,1.559-0.254,2.756-0.762,3.592s-1.228,1.253-2.158,1.253c-0.884,0-1.564-0.4-2.042-1.199
			c-0.478-0.8-0.717-1.935-0.717-3.406c0-1.651,0.255-2.897,0.765-3.738s1.242-1.262,2.197-1.262
			C182.276,47.368,183.182,48.955,183.182,52.129z M182.479,52.219c0-2.83-0.689-4.245-2.068-4.245c-0.703,0-1.249,0.36-1.637,1.08
			c-0.388,0.719-0.582,1.799-0.582,3.238c0,1.311,0.186,2.318,0.555,3.022c0.37,0.704,0.902,1.055,1.599,1.055
			c0.679,0,1.205-0.356,1.576-1.07C182.294,54.584,182.479,53.558,182.479,52.219z"/>
		<path d="M189.987,51.577c0,1.723-0.313,3.053-0.941,3.991s-1.535,1.406-2.723,1.406c-0.483,0-0.949-0.084-1.396-0.252v-0.714
			c0.504,0.24,0.973,0.36,1.409,0.36c0.959,0,1.691-0.383,2.197-1.148c0.506-0.766,0.759-1.89,0.759-3.373h-0.024
			c-0.42,0.963-1.167,1.445-2.242,1.445c-0.496,0-0.942-0.121-1.341-0.363c-0.397-0.242-0.705-0.581-0.923-1.017
			c-0.218-0.436-0.327-0.927-0.327-1.475c0-0.587,0.121-1.116,0.363-1.586c0.241-0.47,0.58-0.834,1.016-1.094
			c0.437-0.26,0.92-0.39,1.451-0.39c0.864,0,1.533,0.363,2.009,1.088S189.987,50.222,189.987,51.577z M189.214,50.63
			c0-0.775-0.189-1.412-0.566-1.91c-0.378-0.498-0.867-0.747-1.467-0.747c-0.579,0-1.065,0.22-1.457,0.66s-0.587,1-0.587,1.679
			c0,0.732,0.188,1.311,0.563,1.736c0.376,0.426,0.869,0.639,1.48,0.639c0.356,0,0.69-0.092,1.005-0.276
			c0.313-0.184,0.563-0.434,0.749-0.75C189.121,51.346,189.214,51.002,189.214,50.63z"/>
		<path d="M192.127,56.932c-0.155,0-0.286-0.056-0.39-0.168s-0.156-0.242-0.156-0.39c0-0.156,0.052-0.287,0.153-0.393
			s0.232-0.159,0.393-0.159c0.156,0,0.29,0.053,0.402,0.159c0.111,0.106,0.167,0.237,0.167,0.393c0,0.148-0.054,0.278-0.161,0.39
			C192.427,56.876,192.291,56.932,192.127,56.932z"/>
		<path d="M199.011,47.524v6.29h1.451v0.612h-1.451v2.386h-0.671v-2.386h-4.419V53.79c0.899-1.011,1.747-2.088,2.545-3.229
			s1.406-2.153,1.826-3.037H199.011z M194.688,53.814h3.652v-5.145C197.408,50.288,196.191,52.003,194.688,53.814z"/>
		<path d="M206.986,52.129c0,1.559-0.254,2.756-0.762,3.592s-1.228,1.253-2.158,1.253c-0.884,0-1.564-0.4-2.042-1.199
			c-0.478-0.8-0.717-1.935-0.717-3.406c0-1.651,0.255-2.897,0.765-3.738s1.242-1.262,2.197-1.262
			C206.081,47.368,206.986,48.955,206.986,52.129z M206.284,52.219c0-2.83-0.689-4.245-2.068-4.245c-0.703,0-1.249,0.36-1.637,1.08
			c-0.388,0.719-0.582,1.799-0.582,3.238c0,1.311,0.186,2.318,0.555,3.022c0.37,0.704,0.902,1.055,1.599,1.055
			c0.679,0,1.205-0.356,1.576-1.07C206.099,54.584,206.284,53.558,206.284,52.219z"/>
		<path d="M208.263,54.222c0-0.536,0.153-1.021,0.462-1.454c0.308-0.434,0.729-0.747,1.265-0.938
			c-0.439-0.216-0.784-0.508-1.034-0.878c-0.25-0.37-0.375-0.772-0.375-1.208c0-0.68,0.234-1.245,0.702-1.697
			c0.468-0.452,1.053-0.677,1.757-0.677c0.459,0,0.879,0.103,1.259,0.309c0.38,0.206,0.675,0.49,0.885,0.852
			s0.314,0.767,0.314,1.214c0,0.428-0.121,0.827-0.362,1.199c-0.242,0.372-0.583,0.667-1.022,0.887
			c0.535,0.2,0.952,0.518,1.25,0.954s0.446,0.916,0.446,1.439c0,0.832-0.253,1.496-0.758,1.994
			c-0.506,0.498-1.179,0.747-2.018,0.747c-0.836,0-1.507-0.25-2.012-0.75C208.516,55.713,208.263,55.049,208.263,54.222z
			 M208.964,54.264c0,0.627,0.191,1.134,0.573,1.52c0.381,0.386,0.876,0.579,1.483,0.579c0.612,0,1.11-0.195,1.496-0.584
			c0.386-0.39,0.579-0.895,0.579-1.514c0-0.6-0.195-1.099-0.585-1.499s-0.887-0.6-1.49-0.6c-0.592,0-1.082,0.198-1.472,0.594
			C209.159,53.154,208.964,53.656,208.964,54.264z M209.288,49.772c0,0.492,0.169,0.913,0.507,1.262
			c0.337,0.35,0.75,0.525,1.238,0.525c0.479,0,0.892-0.174,1.237-0.522s0.52-0.77,0.52-1.265c0-0.52-0.17-0.95-0.51-1.292
			s-0.756-0.513-1.247-0.513c-0.504,0-0.921,0.172-1.251,0.516C209.453,48.827,209.288,49.257,209.288,49.772z"/>
		<path d="M215.932,56.932c-0.155,0-0.286-0.056-0.39-0.168s-0.156-0.242-0.156-0.39c0-0.156,0.052-0.287,0.153-0.393
			s0.232-0.159,0.393-0.159c0.156,0,0.29,0.053,0.402,0.159c0.111,0.106,0.167,0.237,0.167,0.393c0,0.148-0.054,0.278-0.161,0.39
			C216.231,56.876,216.096,56.932,215.932,56.932z"/>
		<path d="M223.325,54.042c0,0.896-0.279,1.608-0.839,2.137c-0.56,0.53-1.323,0.795-2.291,0.795c-0.691,0-1.275-0.118-1.751-0.354
			v-0.762c0.596,0.34,1.195,0.51,1.799,0.51c0.728,0,1.308-0.201,1.739-0.603s0.647-0.95,0.647-1.646
			c0-1.479-0.852-2.218-2.555-2.218c-0.379,0-0.837,0.026-1.373,0.078l0.288-4.455h3.934v0.612h-3.34l-0.21,3.214
			c0.42-0.036,0.731-0.054,0.936-0.054c0.963,0,1.707,0.238,2.23,0.714C223.063,52.485,223.325,53.163,223.325,54.042z"/>
		<path d="M224.963,54.222c0-0.536,0.153-1.021,0.462-1.454c0.308-0.434,0.729-0.747,1.265-0.938
			c-0.439-0.216-0.784-0.508-1.034-0.878c-0.25-0.37-0.375-0.772-0.375-1.208c0-0.68,0.234-1.245,0.702-1.697
			c0.468-0.452,1.053-0.677,1.757-0.677c0.459,0,0.879,0.103,1.259,0.309c0.38,0.206,0.675,0.49,0.885,0.852
			s0.314,0.767,0.314,1.214c0,0.428-0.121,0.827-0.362,1.199c-0.242,0.372-0.583,0.667-1.022,0.887
			c0.535,0.2,0.952,0.518,1.25,0.954s0.446,0.916,0.446,1.439c0,0.832-0.253,1.496-0.758,1.994
			c-0.506,0.498-1.179,0.747-2.018,0.747c-0.836,0-1.507-0.25-2.012-0.75C225.216,55.713,224.963,55.049,224.963,54.222z
			 M225.664,54.264c0,0.627,0.191,1.134,0.573,1.52c0.381,0.386,0.876,0.579,1.483,0.579c0.612,0,1.11-0.195,1.496-0.584
			c0.386-0.39,0.579-0.895,0.579-1.514c0-0.6-0.195-1.099-0.585-1.499s-0.887-0.6-1.49-0.6c-0.592,0-1.082,0.198-1.472,0.594
			C225.859,53.154,225.664,53.656,225.664,54.264z M225.988,49.772c0,0.492,0.169,0.913,0.507,1.262
			c0.337,0.35,0.75,0.525,1.238,0.525c0.479,0,0.892-0.174,1.237-0.522s0.52-0.77,0.52-1.265c0-0.52-0.17-0.95-0.51-1.292
			s-0.756-0.513-1.247-0.513c-0.504,0-0.921,0.172-1.251,0.516C226.153,48.827,225.988,49.257,225.988,49.772z"/>
		<path d="M237.374,51.577c0,1.723-0.313,3.053-0.941,3.991s-1.535,1.406-2.723,1.406c-0.483,0-0.949-0.084-1.396-0.252v-0.714
			c0.504,0.24,0.973,0.36,1.409,0.36c0.959,0,1.691-0.383,2.197-1.148c0.506-0.766,0.759-1.89,0.759-3.373h-0.024
			c-0.42,0.963-1.167,1.445-2.242,1.445c-0.496,0-0.942-0.121-1.341-0.363c-0.397-0.242-0.705-0.581-0.923-1.017
			c-0.218-0.436-0.327-0.927-0.327-1.475c0-0.587,0.121-1.116,0.363-1.586c0.241-0.47,0.58-0.834,1.016-1.094
			c0.437-0.26,0.92-0.39,1.451-0.39c0.864,0,1.533,0.363,2.009,1.088S237.374,50.222,237.374,51.577z M236.601,50.63
			c0-0.775-0.189-1.412-0.566-1.91c-0.378-0.498-0.867-0.747-1.467-0.747c-0.579,0-1.065,0.22-1.457,0.66s-0.587,1-0.587,1.679
			c0,0.732,0.188,1.311,0.563,1.736c0.376,0.426,0.869,0.639,1.48,0.639c0.356,0,0.69-0.092,1.005-0.276
			c0.313-0.184,0.563-0.434,0.749-0.75C236.508,51.346,236.601,51.002,236.601,50.63z"/>
		<path d="M240.846,56.812v-8.473c-0.548,0.516-1.299,0.936-2.254,1.259v-0.624c0.463-0.156,0.907-0.361,1.331-0.615
			s0.875-0.601,1.354-1.04h0.234v9.492H240.846z"/>
	</g>
	<g>
		<path d="M23.118,131.721h-0.677v-1.193h-0.024c-0.224,0.428-0.544,0.761-0.959,0.998c-0.416,0.238-0.888,0.357-1.415,0.357
			c-0.544,0-1.024-0.135-1.442-0.405c-0.417-0.27-0.743-0.661-0.974-1.175c-0.232-0.514-0.348-1.106-0.348-1.778
			c0-0.691,0.128-1.313,0.384-1.864s0.616-0.979,1.08-1.28c0.463-0.302,0.989-0.453,1.577-0.453c0.979,0,1.679,0.4,2.099,1.199
			h0.024v-4.221h0.677V131.721z M22.441,128.891v-1.193c0-0.615-0.196-1.13-0.588-1.544s-0.899-0.621-1.523-0.621
			c-0.704,0-1.271,0.269-1.703,0.804c-0.432,0.536-0.647,1.249-0.647,2.141c0,0.852,0.192,1.531,0.576,2.039
			s0.909,0.762,1.577,0.762c0.691,0,1.249-0.223,1.673-0.666S22.441,129.594,22.441,128.891z"/>
		<path d="M29.57,131.427c-0.488,0.304-1.078,0.456-1.769,0.456c-0.587,0-1.113-0.142-1.577-0.423
			c-0.464-0.282-0.823-0.678-1.077-1.188s-0.381-1.092-0.381-1.748c0-0.684,0.141-1.301,0.423-1.853s0.679-0.98,1.19-1.286
			s1.089-0.459,1.733-0.459c0.523,0,1.017,0.104,1.481,0.313v0.743c-0.472-0.3-0.991-0.45-1.559-0.45
			c-0.764,0-1.382,0.277-1.856,0.831c-0.474,0.554-0.71,1.26-0.71,2.119c0,0.84,0.218,1.516,0.654,2.027
			c0.436,0.512,1.013,0.768,1.733,0.768c0.655,0,1.227-0.178,1.715-0.534V131.427z"/>
		<path d="M36.208,131.721h-0.677v-1.182h-0.024c-0.456,0.896-1.163,1.344-2.123,1.344c-1.571,0-2.356-0.979-2.356-2.938v-3.855
			h0.678v3.706c0,0.852,0.144,1.478,0.432,1.88c0.288,0.401,0.746,0.603,1.373,0.603c0.612,0,1.101-0.224,1.469-0.669
			c0.368-0.445,0.552-1.03,0.552-1.754v-3.766h0.677V131.721z"/>
		<path d="M43.697,131.721H43.02v-1.193h-0.024c-0.224,0.428-0.544,0.761-0.959,0.998c-0.416,0.238-0.888,0.357-1.415,0.357
			c-0.544,0-1.024-0.135-1.442-0.405c-0.417-0.27-0.743-0.661-0.974-1.175c-0.232-0.514-0.348-1.106-0.348-1.778
			c0-0.691,0.128-1.313,0.384-1.864s0.616-0.979,1.08-1.28c0.463-0.302,0.989-0.453,1.577-0.453c0.979,0,1.679,0.4,2.099,1.199
			h0.024v-4.221h0.677V131.721z M43.02,128.891v-1.193c0-0.615-0.196-1.13-0.588-1.544s-0.899-0.621-1.523-0.621
			c-0.704,0-1.271,0.269-1.703,0.804c-0.432,0.536-0.647,1.249-0.647,2.141c0,0.852,0.192,1.531,0.576,2.039
			s0.909,0.762,1.577,0.762c0.691,0,1.249-0.223,1.673-0.666S43.02,129.594,43.02,128.891z"/>
		<path d="M51.186,131.721h-0.677v-1.193h-0.024c-0.224,0.428-0.544,0.761-0.959,0.998c-0.416,0.238-0.888,0.357-1.415,0.357
			c-0.544,0-1.024-0.135-1.442-0.405c-0.417-0.27-0.743-0.661-0.974-1.175c-0.232-0.514-0.348-1.106-0.348-1.778
			c0-0.691,0.128-1.313,0.384-1.864s0.616-0.979,1.08-1.28c0.463-0.302,0.989-0.453,1.577-0.453c0.979,0,1.679,0.4,2.099,1.199
			h0.024v-4.221h0.677V131.721z M50.509,128.891v-1.193c0-0.615-0.196-1.13-0.588-1.544s-0.899-0.621-1.523-0.621
			c-0.704,0-1.271,0.269-1.703,0.804c-0.432,0.536-0.647,1.249-0.647,2.141c0,0.852,0.192,1.531,0.576,2.039
			s0.909,0.762,1.577,0.762c0.691,0,1.249-0.223,1.673-0.666S50.509,129.594,50.509,128.891z"/>
		<path d="M58.478,131.721h-0.666v-3.951c0-0.771-0.141-1.338-0.423-1.697s-0.716-0.54-1.304-0.54c-0.416,0-0.782,0.106-1.1,0.318
			s-0.565,0.511-0.741,0.896s-0.264,0.816-0.264,1.292v3.682h-0.671v-9.815h0.671v4.365h0.03c0.52-0.896,1.273-1.344,2.261-1.344
			c0.728,0,1.277,0.229,1.649,0.687c0.372,0.458,0.558,1.125,0.558,2V131.721z"/>
		<path d="M65.397,125.089l-3.202,7.939c-0.256,0.644-0.542,1.104-0.857,1.385c-0.316,0.279-0.696,0.42-1.139,0.42
			c-0.208,0-0.39-0.03-0.546-0.09v-0.648c0.168,0.061,0.356,0.091,0.564,0.091c0.527,0,0.941-0.358,1.241-1.074l0.605-1.438
			l-2.524-6.584h0.75l2.11,5.841h0.03l0.15-0.456l2.099-5.385H65.397z"/>
		<path d="M70.967,134.833h-0.666v-13.258h0.666V134.833z"/>
	</g>
	<path class="st1" d="M106.299,131.885c-0.137,0-0.274,0-0.412,0c-0.013-0.002-0.026-0.01-0.04-0.01
		c-0.37-0.009-0.736-0.052-1.099-0.119c-0.89-0.167-1.715-0.493-2.483-0.974c-0.012-0.008-0.023-0.018-0.046-0.034
		c0.676,0.078,1.33,0.024,1.972-0.155c0.64-0.179,1.223-0.478,1.751-0.886c-1.157-0.093-1.937-0.678-2.349-1.754
		c0.379,0.061,0.748,0.048,1.114-0.054c-1.39-0.318-2.043-1.561-1.997-2.491c0.18,0.065,0.359,0.141,0.545,0.2
		c0.186,0.061,0.378,0.086,0.573,0.088c-0.538-0.387-0.895-0.894-1.041-1.537c-0.144-0.644-0.049-1.256,0.274-1.831
		c1.371,1.614,3.103,2.499,5.218,2.646c-0.083-0.446-0.078-0.685-0.031-0.983c0.091-0.572,0.351-1.06,0.774-1.453
		c0.379-0.354,0.824-0.57,1.336-0.646c0.071-0.011,0.145-0.021,0.217-0.032c0.112,0,0.224,0,0.336,0
		c0.085,0.012,0.174,0.021,0.26,0.036c0.536,0.093,0.998,0.332,1.379,0.721c0.034,0.037,0.064,0.039,0.108,0.029
		c0.526-0.113,1.023-0.302,1.489-0.57c0.012-0.007,0.026-0.013,0.05-0.022c-0.204,0.596-0.568,1.049-1.102,1.387
		c0.027,0,0.037,0.002,0.045,0c0.261-0.055,0.526-0.101,0.785-0.17c0.208-0.057,0.409-0.144,0.613-0.221c0,0.004,0,0.008,0,0.012
		c-0.01,0.008-0.02,0.016-0.026,0.025c-0.33,0.48-0.732,0.896-1.199,1.246c-0.02,0.012-0.034,0.046-0.034,0.068
		c0.009,0.38-0.003,0.758-0.052,1.134c-0.057,0.461-0.156,0.913-0.301,1.355c-0.384,1.176-1.008,2.203-1.898,3.065
		c-0.342,0.329-0.711,0.619-1.115,0.871c-1.074,0.668-2.249,1-3.511,1.047C106.369,131.875,106.334,131.881,106.299,131.885z"/>
	<g>
		<path class="st1" d="M79.731,130.753c0,0.318,0.005,0.644-0.002,0.966c-0.005,0.192-0.177,0.283-0.387,0.215
			c-0.553-0.184-1.062-0.452-1.521-0.813c-1.101-0.858-1.775-1.979-1.983-3.361c-0.388-2.609,1.236-5.066,3.804-5.782
			c2.708-0.751,5.55,0.781,6.409,3.454c0.861,2.684-0.618,5.6-3.291,6.496c-0.262,0.089-0.414-0.021-0.413-0.297
			c0.001-0.391-0.003-0.781,0.004-1.172c0.007-0.415-0.027-0.816-0.341-1.149c0.195-0.035,0.375-0.062,0.552-0.101
			c0.567-0.129,1.067-0.37,1.411-0.863c0.248-0.358,0.366-0.764,0.396-1.191c0.018-0.261,0.02-0.526-0.01-0.783
			c-0.042-0.363-0.203-0.683-0.442-0.961c-0.047-0.058-0.054-0.104-0.032-0.177c0.12-0.409,0.087-0.814-0.064-1.208
			c-0.015-0.039-0.084-0.08-0.126-0.08c-0.252-0.006-0.483,0.076-0.704,0.184c-0.191,0.093-0.37,0.207-0.557,0.305
			c-0.046,0.025-0.11,0.041-0.158,0.03c-0.824-0.2-1.646-0.202-2.47-0.001c-0.05,0.012-0.122-0.005-0.168-0.035
			c-0.344-0.211-0.693-0.406-1.101-0.476c-0.033-0.004-0.066-0.005-0.099-0.012c-0.119-0.02-0.177,0.03-0.212,0.147
			c-0.116,0.391-0.146,0.78-0.027,1.177c0.012,0.035,0,0.093-0.023,0.119c-0.468,0.545-0.552,1.182-0.46,1.863
			c0.058,0.436,0.184,0.845,0.46,1.193c0.34,0.43,0.805,0.646,1.322,0.768c0.181,0.042,0.366,0.069,0.564,0.107
			c-0.176,0.188-0.27,0.406-0.313,0.647c-0.005,0.027-0.046,0.056-0.077,0.068c-0.582,0.249-1.11,0.083-1.448-0.447
			c-0.168-0.269-0.387-0.47-0.705-0.534c-0.076-0.016-0.158-0.018-0.234-0.003c-0.129,0.023-0.145,0.094-0.049,0.189
			c0.034,0.036,0.072,0.07,0.114,0.096c0.282,0.166,0.457,0.421,0.578,0.715c0.199,0.485,0.581,0.699,1.077,0.733
			C79.241,130.794,79.477,130.765,79.731,130.753z"/>
		<path class="st1" d="M78.355,129.951c0.055,0.071,0.092,0.112,0.119,0.158c0.004,0.008-0.057,0.064-0.061,0.061
			c-0.044-0.028-0.085-0.063-0.117-0.105C78.289,130.054,78.321,130.014,78.355,129.951z"/>
		<path class="st1" d="M78.748,130.401c-0.041-0.05-0.073-0.087-0.103-0.121c0.03-0.021,0.072-0.063,0.091-0.056
			c0.045,0.021,0.081,0.063,0.119,0.096C78.827,130.344,78.796,130.365,78.748,130.401z"/>
		<path class="st1" d="M79.595,130.208c0.041,0.043,0.066,0.073,0.092,0.101c-0.04,0.029-0.08,0.069-0.123,0.079
			c-0.027,0.004-0.063-0.045-0.093-0.07C79.506,130.286,79.542,130.255,79.595,130.208z"/>
		<path class="st1" d="M79.17,130.26c0.048,0.043,0.083,0.071,0.116,0.101c-0.037,0.027-0.074,0.074-0.11,0.074
			c-0.036,0.001-0.072-0.047-0.108-0.076C79.098,130.331,79.127,130.304,79.17,130.26z"/>
		<path class="st1" d="M78.236,129.816c-0.048,0.027-0.085,0.06-0.092,0.054c-0.038-0.03-0.068-0.069-0.094-0.11
			c-0.004-0.005,0.056-0.062,0.061-0.058C78.149,129.73,78.183,129.767,78.236,129.816z"/>
		<path class="st1" d="M78.021,129.529c-0.048,0.024-0.08,0.052-0.09,0.044c-0.034-0.022-0.062-0.056-0.085-0.09
			c-0.004-0.005,0.042-0.054,0.046-0.051C77.932,129.456,77.966,129.485,78.021,129.529z"/>
	</g>
	<rect x="10.551" y="8.919" class="st2" width="239.207" height="128.941"/>
	<path class="st1" d="M89.216,131.438c0-3.043,0-6.089,0-9.132c0.024-0.059,0.042-0.116,0.07-0.171
		c0.092-0.19,0.255-0.286,0.446-0.347c3.044,0,6.087,0,9.132,0c0.077,0.036,0.159,0.063,0.232,0.107
		c0.157,0.09,0.229,0.245,0.285,0.41c0,3.043,0,6.089,0,9.132c-0.036,0.078-0.063,0.158-0.106,0.23
		c-0.094,0.155-0.245,0.232-0.411,0.286c-3.045,0-6.088,0-9.132,0c-0.058-0.022-0.117-0.043-0.173-0.07
		C89.372,131.793,89.278,131.63,89.216,131.438z M97.924,130.024c0-0.048,0-0.091,0-0.133c0-0.721-0.001-1.442,0-2.162
		c0.001-0.396-0.023-0.788-0.168-1.161c-0.224-0.577-0.622-0.948-1.25-1.016c-0.593-0.064-1.089,0.123-1.434,0.634
		c-0.009,0.014-0.008,0.032-0.011,0.05c-0.012-0.009-0.023-0.018-0.034-0.025c0-0.188,0-0.375,0-0.563c-0.494,0-0.978,0-1.463,0
		c0,1.463,0,2.919,0,4.374c0.494,0,0.978,0,1.467,0c0-0.063,0-0.113,0-0.167c0-0.767,0-1.534,0.002-2.303
		c0.002-0.311,0.157-0.533,0.417-0.687c0.406-0.234,0.88-0.038,0.99,0.414c0.036,0.146,0.053,0.3,0.055,0.451
		c0.007,0.519,0.003,1.038,0.003,1.557c0,0.245,0,0.488,0,0.737C96.975,130.024,97.444,130.024,97.924,130.024z M92.598,130.026
		c0-1.461,0-2.91,0-4.361c-0.482,0-0.956,0-1.433,0c0,1.456,0,2.906,0,4.361C91.646,130.026,92.116,130.026,92.598,130.026z
		 M91.801,125.192c0.426-0.006,0.724-0.306,0.719-0.73c-0.004-0.447-0.298-0.735-0.746-0.729c-0.4,0.005-0.697,0.314-0.693,0.724
		C91.086,124.899,91.376,125.195,91.801,125.192z"/>
</g>
</svg>
