<?xml version="1.0" encoding="utf-8"?>
<!-- Generator: Adobe Illustrator 16.0.3, SVG Export Plug-In . SVG Version: 6.00 Build 0)  -->
<!DOCTYPE svg PUBLIC "-//W3C//DTD SVG 1.1//EN" "http://www.w3.org/Graphics/SVG/1.1/DTD/svg11.dtd">
<svg version="1.1" id="Layer_1" xmlns="http://www.w3.org/2000/svg" xmlns:xlink="http://www.w3.org/1999/xlink" x="0px" y="0px"
	 width="32px" height="32px" viewBox="0 0 32 32" enable-background="new 0 0 32 32" xml:space="preserve">
<g>
	<path fill="#A17A2C" d="M24.244,13.536c0,0.002,0.23,0.276,0.259,0.318c0.156,0.241,0.385,0.588,0.609,1
		c0.085,0.13,0.165,0.236,0.222,0.288c0.106-0.156,0.267-0.581,0.38-1.229c0.068-0.399,0.104-0.788,0.104-1.13
		c0-0.071-0.002-0.139-0.005-0.205c-0.092-0.333-0.259-0.602-0.412-0.791c-0.335-0.104-0.673-0.198-0.963-0.283
		c-0.08-0.017-0.161-0.033-0.238-0.052c-0.158-0.024-0.323-0.052-0.491-0.081c-0.182-0.023-0.333-0.033-0.418-0.023
		c-0.07,0.255,0.401,0.727,0.401,0.727c-0.25-0.099-0.972-0.76-1.128-0.906c-0.025,0-0.052,0.004-0.07,0.007
		c-0.193,0.238,0.502,0.918,0.179,0.729c-0.233-0.137-0.507-0.486-0.655-0.694c-0.201,0.439-0.06,1.331-0.071,1.515
		c-0.104,0.166-0.25-1.758-0.618-0.835c-0.37,0.925-2.067,2.201-1.996,2.053c0.155-0.137,0.305-0.292,0.438-0.458
		c-0.387,0.382-0.845,0.633-1.403,0.642c0.137,0.047,0.275,0.094,0.412,0.151l-5.302-0.089c0,0,0.031-0.01,0.092-0.026
		c-0.359-0.016-0.71-0.083-0.982-0.337c-0.458-0.33-1.499-1.231-1.779-1.93c-0.368-0.925-0.514,0.998-0.618,0.831
		c-0.009-0.179,0.13-1.076-0.071-1.51c-0.146,0.203-0.42,0.557-0.656,0.691c-0.323,0.191,0.373-0.488,0.179-0.729
		c-0.019-0.005-0.042-0.005-0.068-0.005c-0.158,0.146-0.88,0.805-1.13,0.906c0,0,0.472-0.474,0.401-0.729
		c-0.085-0.009-0.234,0-0.416,0.023c-0.17,0.031-0.333,0.059-0.491,0.083c-0.08,0.014-0.161,0.033-0.241,0.052
		c-0.288,0.08-0.628,0.179-0.96,0.283c-0.153,0.188-0.323,0.453-0.415,0.788c-0.002,0.066-0.005,0.134-0.005,0.203
		c0,0.345,0.035,0.731,0.104,1.133c0.116,0.651,0.274,1.074,0.38,1.232c0.057-0.057,0.137-0.161,0.224-0.288
		c0.224-0.416,0.451-0.765,0.608-1.003c0.026-0.042,0.257-0.318,0.26-0.318c0.422-0.524,0.512-0.335,0.444-0.243
		c-0.017,0.021-0.347,0.55-0.38,0.602c-0.033,0.057-0.071,0.121-0.111,0.189c-0.243,0.415-0.422,0.712-0.568,0.922
		c-0.297,0.553-0.798,1.478-0.319,3.877c0.479,2.402,2.376,3.903,2.272,3.679c-0.113-0.252-0.613-2.326-0.401-2.038
		c0.212,0.287,1.149,2.291,1.149,2.291c-1.522-5.531,0.22-7.287,0.824-7.709c0.052-0.026,0.085-0.015,0.035,0.04
		c-2.018,2.119-0.427,7.768-0.437,7.499c-0.316-3.867,0.307-3.825,0.307-3.825c-0.729,2.391,0.977,5.965,0.977,5.965
		c-0.977-2.106-0.184-3.286-0.059-3.244c-0.767,2.044,1.399,4.481,1.838,5.135c0.358,0.526,1.468,1.621,1.602,1.524
		c0.135-0.097-1.451-2.186-1.286-2.181c0.269,0.123,0.444,1.001,1.598,1.933c0.021-0.32,0.13-0.533,0.111-0.356
		c-0.014,0.142,0.132,0.473,0.257,0.723c0.142,0.104,0.326,0.108,0.479,0.085c0.135-0.255,0.34-0.675,0.321-0.843
		c-0.019-0.196,0.113,0.087,0.113,0.465c1.242-0.958,1.42-1.881,1.695-2.008c0.165-0.007-0.609,1.604-1.286,2.18
		c0.332-0.259,1.243-0.998,1.602-1.526c0.439-0.651,2.607-3.089,1.839-5.13c0.125-0.047,0.918,1.138-0.06,3.242
		c0,0,1.706-3.577,0.978-5.965c0,0,0.622-0.043,0.307,3.827c-0.01,0.269,1.581-5.383-0.435-7.504
		c-0.052-0.052-0.019-0.066,0.033-0.038c0.606,0.425,2.348,2.176,0.823,7.707c0,0,0.937-2.001,1.149-2.289
		c0.212-0.288-0.288,1.789-0.401,2.039c-0.104,0.224,1.794-1.276,2.275-3.677c0.479-2.402-0.024-3.327-0.321-3.879
		c-0.145-0.212-0.326-0.51-0.566-0.92c-0.043-0.071-0.08-0.137-0.111-0.189c-0.035-0.054-0.365-0.583-0.38-0.604
		C23.729,13.201,23.819,13.012,24.244,13.536z"/>
	<path fill="#A17A2C" d="M13.696,26.007c-0.009-0.023-0.002-0.01,0.014,0.032C13.706,26.025,13.698,26.016,13.696,26.007z"/>
	<path fill="#A17A2C" d="M18.439,26.004c0,0.008-0.01,0.021-0.015,0.033C18.441,25.997,18.448,25.983,18.439,26.004z"/>
	<path fill="#A17A2C" d="M2.747,4.111C2.511,4.059,2.275,4.042,1.966,4.238C1.888,4.288,1.525,4.56,1.44,4.64
		C0.911,5.152,0.581,6.107,0.571,7.11C0.746,6.239,1.265,4.59,2.747,4.111z"/>
	<path fill="#A17A2C" d="M28.383,4.085c-0.245-0.059-0.604,0.005-0.852,0.085c0.635,0.038,1.066,0.269,1.673,0.628
		c0.245,0.146,1.043,0.694,1.043,1.694c0,0.009,0,0.021-0.003,0.033c0,0.005,0,0.01,0,0.012c0,0.286-0.16,0.899-0.285,1.359
		c-0.123,0.46-0.188,0.458-0.215,0.446s-0.007-0.089,0.012-0.217C29.772,8,29.659,7.87,29.522,8.007s-0.536,0.434-0.58,0.46
		c-0.758,0.477-1.853,0.512-3.349,0.102c-1.312-0.354-2.709-0.998-3.11-1.173c-0.403-0.177-0.932-0.46-0.97-0.483
		c0.03,0.04,0.057,0.083,0.083,0.127c0.16,0.312,0.137,0.581,0.08,0.491c-0.057-0.094-0.521-0.717-0.521-0.717
		c0.21,0.472,0.105,0.76,0.063,0.701c-0.005-0.007-0.01-0.026-0.017-0.049c-0.012-0.019-0.03-0.057-0.052-0.118
		c-0.045-0.139-0.503-1.142-1.423-0.994c0.222,0.262,0.238,0.8,0.238,0.8c-0.083,0.264-0.225,0.061-0.225,0.061
		c-0.287-0.797-0.92-1.227-0.92-1.227c-1.076-0.564-1.77-0.302-2.19,0.09c-0.019,0.038-0.057,0.094-0.127,0.172
		c-0.288,0.326-0.262,1.012-0.262,1.012c-0.246,0.203-0.375-0.047-0.375-0.047c0.024-0.458-0.231-0.901-0.361-1.104
		c-0.42-0.39-1.111-0.651-2.192-0.087c0,0-0.633,0.427-0.92,1.225c0,0-0.142,0.208-0.224-0.062c0,0,0.017-0.566,0.257-0.819
		c-0.935-0.163-1.395,0.852-1.439,0.994c-0.024,0.071-0.045,0.104-0.057,0.125c-0.005,0.014-0.01,0.026-0.014,0.031
		c-0.042,0.062-0.146-0.229,0.066-0.703c0,0-0.467,0.627-0.524,0.717c-0.057,0.094-0.08-0.179,0.083-0.488
		c0.024-0.045,0.052-0.087,0.083-0.125c-0.04,0.021-0.566,0.307-0.97,0.481c-0.403,0.175-1.8,0.816-3.11,1.175
		C5.045,8.979,3.951,8.946,3.195,8.469C3.148,8.441,2.752,8.144,2.613,8.007c-0.137-0.134-0.25-0.005-0.231,0.123
		C2.4,8.255,2.419,8.333,2.393,8.344C2.365,8.356,2.299,8.361,2.176,7.898c-0.123-0.46-0.286-1.071-0.286-1.359
		c0-0.004,0-0.009,0-0.012c0-0.012,0-0.021,0-0.033c0-1.002,0.795-1.55,1.041-1.696C3.538,4.439,3.969,4.212,4.604,4.17
		c-0.29-0.092-0.729-0.163-0.967-0.042c-0.102,0.052-0.64,0.151-0.64,0.151s-1.611,0.75-2.083,2.062c0,0-0.3,0.731-0.257,1.683
		c0.161,0.814,0.552,1.513,1.133,2.013c0.026,0.023,0.054,0.047,0.083,0.071C1.525,9.498,1.478,8.774,1.596,8.776
		c0.16,0.953,0.613,1.529,1.05,1.874c0.475,0.276,0.989,0.467,1.562,0.585c0.409,0.057,0.744,0.021,0.897-0.014
		c0.106-0.023,0.172-0.071,0.205-0.132C5.352,10.999,5.305,10.9,5.305,10.9l0.028-0.019c0.092,0.102,0.118,0.177,0.118,0.18
		c0.066,0.231-0.033,0.434-0.038,0.438l0,0c0,0.002,0,0.005,0,0.005c-0.042,0.087-0.246,0.295-0.281,0.335
		c-0.036,0.042-0.295,0.222-0.481,0.321c0.063,0,0.127,0,0.193-0.007c0.033-0.002,0.066-0.009,0.102-0.017
		c0.359-0.047,1.081-0.368,1.284-0.5c0.047-0.028,0.085-0.054,0.123-0.081c0.609-0.523,0.458-0.316,1.201-0.34
		c0.25-0.052,0.456-0.094,0.456-0.094s0.873-0.151,1.869-0.358c0.42-0.118,0.779-0.236,1.02-0.331
		c0.425-0.189,0.606-0.345,0.609-0.347l0.033-0.031L11.535,10.1c0.012,0.004,0.017,0.021,0.012,0.054
		c-0.017,0.099-0.286,0.717-0.297,0.918c0.135-0.059,0.286-0.158,0.441-0.274c0.361-0.342,0.741-0.8,0.906-1.083
		C12.762,9.432,13,8.672,12.993,8.837c-0.009,0.161-0.038,0.982-0.089,1.588c0,0.03,0,0.063,0,0.094c0,0.059,0,0.12-0.01,0.182
		l0.01,0.019c0.099-0.255,0.278-0.708,0.387-0.949c0.139-0.406,0.25-0.699,0.333-0.897c0.104-0.292,0.186-0.736,0.243-0.746
		c0.057-0.004,0.163,1.869,0.177,2.138c0.111-0.158,0.203-0.349,0.288-0.524c0.069-0.144,0.56-1.27,0.635-1.298
		c0.078-0.023,0.099,0.786,0.123,1.145c0.278-0.39,0.396-0.625,0.536-0.946l0,0c0,0,0.002-0.009,0.007-0.023
		c0.017-0.036,0.033-0.071,0.047-0.109c0.019-0.047,0.042-0.099,0.068-0.156c0.045-0.104,0.094-0.222,0.132-0.313
		c0.03-0.076,0.059-0.156,0.085-0.239h0.054c0.035-0.019,0.075-0.019,0.113,0h0.033l0.017,0.042c0.017,0.024,0.033,0.052,0.045,0.09
		c0.017,0.047,0.033,0.094,0.05,0.137l0.139,0.34c0.014,0.033,0.028,0.066,0.042,0.095c0.165,0.392,0.276,0.642,0.59,1.081
		c0.023-0.359,0.047-1.17,0.123-1.142c0.075,0.028,0.565,1.151,0.637,1.295c0.085,0.177,0.177,0.366,0.288,0.526
		c0.012-0.269,0.12-2.145,0.175-2.138c0.057,0.005,0.142,0.451,0.245,0.746c0.082,0.198,0.193,0.486,0.33,0.895
		c0.108,0.243,0.288,0.694,0.39,0.946l0.007-0.014c-0.007-0.064-0.01-0.123-0.01-0.184c0-0.033,0-0.063,0.003-0.094
		c-0.052-0.604-0.083-1.425-0.09-1.59C19.138,8.67,19.373,9.43,19.539,9.71c0.165,0.283,0.547,0.746,0.905,1.085
		c0.156,0.116,0.31,0.215,0.441,0.274c-0.012-0.203-0.28-0.819-0.295-0.92c-0.005-0.028,0-0.047,0.01-0.052l-0.005-0.042
		l0.033,0.028c0.005,0.002,0.184,0.156,0.611,0.344c0.238,0.095,0.597,0.217,1.02,0.331c0.224,0.049,0.445,0.094,0.648,0.137
		c0.269,0.033,0.646,0.083,1.171,0.146c1.347,0.165,0.974-0.25,1.741,0.415c0.765,0.661,1.666,0.704,1.666,0.704
		c-0.206-0.113-0.376-0.222-0.51-0.342c-0.137-0.121-0.218-0.236-0.255-0.319l0,0c-0.005-0.009-0.104-0.21-0.038-0.438
		c0,0,0.028-0.081,0.118-0.18l0.028,0.017c0,0-0.045,0.097-0.002,0.187c0.03,0.066,0.099,0.108,0.205,0.134
		c0.08,0.019,0.217,0.038,0.387,0.04c0.01,0,0.015,0,0.015,0H27.43c0.146,0.005,0.313,0,0.5-0.028
		c0.571-0.113,1.085-0.307,1.562-0.585c0.434-0.342,0.887-0.916,1.047-1.871c0.118-0.002,0.071,0.722-0.273,1.331
		c0.026-0.023,0.055-0.045,0.083-0.068c0.582-0.505,0.975-1.203,1.135-2.022c0.03-0.932-0.26-1.64-0.26-1.64
		C30.627,4.717,28.788,4.271,28.383,4.085z"/>
	<path fill="#A17A2C" d="M30.171,4.236c-0.34-0.212-0.59-0.175-0.847-0.113c1.529,0.453,2.062,2.138,2.239,3.022
		c0-1.017-0.335-1.989-0.868-2.508C30.612,4.557,30.247,4.283,30.171,4.236z"/>
	<path fill="#010101" d="M17.812,13.981c0.002-0.004,0.005-0.004,0.005-0.004c-0.024-0.005-0.048-0.01-0.068-0.014
		c-0.06-0.005-0.116-0.01-0.173-0.028c-0.028-0.01-0.062-0.019-0.095-0.026c-0.014-0.002-0.032-0.002-0.042-0.004
		c-0.028,0-0.057-0.002-0.085-0.007c-0.981-0.148-1.925-0.085-2.636,0.024c-0.002,0-0.005-0.005-0.007-0.005
		c-0.015,0.005-0.024,0.009-0.036,0.009c-0.012,0.005-0.028,0.01-0.04,0.01c-0.052,0.019-0.106,0.028-0.161,0.028
		c-0.019,0.004-0.038,0.009-0.042,0.009c-0.028,0.005-0.057,0.009-0.087,0.014c-0.04,0.009-0.08,0.019-0.125,0.023
		c0,0-0.002,0-0.004,0c-0.458,0.09-0.739,0.18-0.739,0.18l5.302,0.089C18.458,14.147,18.137,14.052,17.812,13.981z"/>
	<path fill="#010101" d="M30.9,4.425c-0.106-0.102-0.488-0.382-0.573-0.439c-0.477-0.297-0.848-0.203-1.145-0.127
		c-0.21,0.052-0.375,0.095-0.55,0.005c-0.443-0.227-1.331,0.005-1.562,0.208C26.965,4.167,26.985,4.265,27,4.302
		c0.047,0.132,0.212,0.151,0.365,0.153c0.631,0.009,1.018,0.196,1.69,0.595c0.214,0.125,0.913,0.606,0.896,1.47v0.004
		c0.007,1.034-1.145,1.68-1.154,1.685c-0.005,0.004-0.007,0.004-0.01,0.004c-1.5,0.954-6.753-1.345-6.989-1.458
		c-0.23-0.113-0.312-0.236-0.495-0.172c-0.023,0.007-0.059,0.026-0.092,0.059c-0.097-0.057-0.18-0.08-0.22-0.062
		c-0.1,0.052-0.212-0.259-0.685-0.439c-0.474-0.179-0.736-0.099-0.736-0.099s-0.212-0.278-0.765-0.472
		c-0.415-0.146-1.09-0.413-1.878-0.062c-0.16,0.076-0.297,0.165-0.415,0.269l-0.012-0.007C16.245,5.918,15.9,5.89,15.704,5.857
		c-0.134-0.13-0.295-0.253-0.498-0.342c-0.786-0.354-1.463-0.087-1.876,0.059c-0.554,0.196-0.767,0.474-0.767,0.474
		s-0.26-0.083-0.734,0.097s-0.587,0.488-0.687,0.441c-0.038-0.021-0.123,0-0.217,0.057c-0.033-0.033-0.068-0.047-0.094-0.057
		c-0.184-0.062-0.265,0.061-0.496,0.172c-0.234,0.111-5.489,2.414-6.989,1.46C3.344,8.217,3.342,8.214,3.339,8.214
		C3.328,8.208,2.176,7.559,2.186,6.53V6.525C2.167,5.661,2.865,5.18,3.082,5.053c0.67-0.396,1.057-0.585,1.689-0.595
		c0.154-0.002,0.316-0.024,0.366-0.153C5.149,4.267,5.173,4.17,5.064,4.076c-0.231-0.208-1.116-0.439-1.562-0.21
		c-0.175,0.089-0.34,0.047-0.548-0.007c-0.299-0.075-0.67-0.17-1.146,0.132C1.723,4.042,1.341,4.326,1.237,4.43
		C0.621,5.024,0.246,6.152,0.279,7.299c0.014,0.477,0.097,0.93,0.241,1.345c0.552,3.025,3.62,3.169,4.333,3.162
		c-0.167,0.118-0.387,0.236-0.555,0.312c-0.035,0.019-0.059,0.054-0.059,0.094c0.002,0.038,0.028,0.073,0.066,0.089
		c0.144,0.052,0.33,0.062,0.514,0.047c0.184,0.014,0.486-0.047,0.75-0.118c0.085-0.019,0.17-0.042,0.257-0.07
		c0.035-0.012,0.068-0.024,0.097-0.033c0.047-0.017,0.104-0.038,0.16-0.059c-0.038,0.21-0.057,0.451-0.057,0.708
		c0,1.064,0.31,2.39,0.635,2.655c0.002,0,0.002,0,0.005,0.002c0.019,0.017,0.04,0.023,0.064,0.031
		c-0.241,0.547-0.422,1.16-0.422,1.77c0,0.179,0.035,0.943,0.148,1.606s0.342,1.284,0.842,2.384c0.585,1.291,1.47,2.409,2.702,3.417
		c0.052,0.042,0.125,0.045,0.179,0.004c0.038-0.028,0.062-0.072,0.062-0.117c0-0.021-0.005-0.038-0.014-0.057
		c-0.066-0.161-0.135-0.34-0.189-0.493c0.161,0.155,0.366,0.363,0.545,0.552c0.05,0.052,0.127,0.062,0.187,0.023
		c0.042-0.028,0.066-0.075,0.066-0.122c0-0.02-0.002-0.038-0.009-0.057c-0.13-0.319-0.229-0.696-0.241-0.939
		c0.062,0.123,0.137,0.288,0.21,0.448c0.524,1.146,1.612,3.532,3.66,4.975c0.047,0.032,0.111,0.032,0.16,0.004
		c0.033-0.019,0.057-0.052,0.066-0.085c0.2,0.185,0.392,0.373,0.392,0.373s0.302,0.231,0.328,0.245
		c0.163,0.095,0.637,0.265,1.088,0.043c0.113-0.047,0.406-0.22,0.406-0.22s0.328-0.233,0.557-0.443
		c0.009,0.035,0.032,0.063,0.065,0.085c0.052,0.03,0.113,0.026,0.16-0.007c2.049-1.439,3.139-3.823,3.66-4.972
		c0.073-0.163,0.148-0.323,0.21-0.449c-0.009,0.243-0.11,0.621-0.24,0.939c-0.007,0.02-0.01,0.035-0.01,0.055
		c0,0.049,0.023,0.097,0.066,0.122c0.062,0.04,0.137,0.031,0.188-0.021c0.18-0.191,0.382-0.399,0.543-0.55
		c-0.052,0.15-0.123,0.33-0.188,0.49c-0.008,0.02-0.013,0.038-0.013,0.057c0,0.045,0.021,0.09,0.06,0.118
		c0.054,0.04,0.13,0.038,0.179-0.005c1.234-1.008,2.119-2.126,2.705-3.417c0.497-1.1,0.727-1.72,0.84-2.383
		c0.115-0.661,0.15-1.428,0.15-1.609c0-0.604-0.184-1.218-0.425-1.77c0.024-0.005,0.045-0.015,0.066-0.028c0,0,0-0.003,0.005-0.005
		c0.325-0.265,0.635-1.586,0.635-2.652c0-0.26-0.019-0.502-0.059-0.712c0.403,0.167,0.8,0.236,1.066,0.267
		c0.235,0.033,0.517,0.044,0.715-0.031c0.035-0.014,0.063-0.047,0.063-0.087s-0.023-0.078-0.057-0.092
		c-0.17-0.078-0.387-0.198-0.557-0.316c0.713,0.009,3.78-0.132,4.332-3.16c0.146-0.415,0.227-0.868,0.241-1.345
		C31.89,6.147,31.517,5.024,30.9,4.425z M1.44,4.64c0.085-0.08,0.448-0.352,0.526-0.401c0.31-0.196,0.545-0.179,0.781-0.127
		c-1.482,0.479-2.001,2.128-2.176,3C0.581,6.107,0.911,5.152,1.44,4.64z M25.714,13.913c-0.113,0.649-0.273,1.074-0.38,1.229
		c-0.057-0.052-0.137-0.158-0.222-0.288c-0.225-0.413-0.453-0.76-0.609-1c-0.028-0.042-0.259-0.316-0.259-0.318
		c-0.425-0.524-0.515-0.335-0.444-0.243c0.015,0.021,0.345,0.55,0.38,0.604c0.031,0.052,0.068,0.118,0.111,0.189
		c0.24,0.411,0.422,0.708,0.566,0.92c0.297,0.552,0.8,1.477,0.321,3.879c-0.481,2.4-2.379,3.9-2.275,3.677
		c0.113-0.25,0.613-2.327,0.401-2.039c-0.213,0.288-1.149,2.289-1.149,2.289c1.524-5.531-0.217-7.282-0.823-7.707
		c-0.052-0.028-0.085-0.014-0.033,0.038c2.016,2.121,0.425,7.772,0.435,7.504c0.315-3.87-0.307-3.827-0.307-3.827
		c0.729,2.388-0.978,5.965-0.978,5.965c0.978-2.104,0.185-3.289,0.06-3.242c0.769,2.041-1.399,4.479-1.839,5.13
		C18.312,27.2,17.547,27.8,17.547,27.8s0.973-1.788,0.808-1.781c-0.274,0.127-0.453,1.05-1.695,2.008
		c0-0.378-0.132-0.661-0.113-0.465c0.019,0.168-0.259,0.75-0.302,0.795c-0.047,0.048-0.356,0.066-0.498-0.037
		c-0.125-0.25-0.271-0.581-0.257-0.723c0.019-0.177-0.089,0.036-0.111,0.356c-1.154-0.932-1.329-1.81-1.598-1.933
		c-0.165-0.005,0.963,1.891,0.963,1.891s-0.92-0.708-1.279-1.234c-0.439-0.653-2.605-3.091-1.838-5.135
		c-0.125-0.042-0.918,1.138,0.059,3.244c0,0-1.706-3.574-0.977-5.965c0,0-0.623-0.042-0.307,3.825
		c0.009,0.269-1.581-5.38,0.437-7.499c0.05-0.055,0.017-0.066-0.035-0.04c-0.604,0.422-2.346,2.178-0.824,7.709
		c0,0-0.937-2.004-1.149-2.291c-0.212-0.288,0.288,1.786,0.401,2.038c0.104,0.225-1.793-1.276-2.272-3.679
		c-0.479-2.399,0.021-3.324,0.319-3.877c0.146-0.21,0.326-0.507,0.568-0.922c0.041-0.068,0.078-0.132,0.111-0.189
		c0.033-0.052,0.363-0.581,0.38-0.602c0.068-0.092-0.021-0.281-0.444,0.243c-0.002,0-0.233,0.276-0.26,0.318
		c-0.158,0.238-0.384,0.587-0.608,1.003c-0.087,0.127-0.167,0.231-0.224,0.288c-0.106-0.158-0.265-0.581-0.38-1.232
		c-0.068-0.401-0.104-0.788-0.104-1.133c0-0.068,0.002-0.137,0.005-0.203c0.092-0.335,0.262-0.6,0.415-0.788
		c0.333-0.104,0.672-0.203,0.96-0.283c0.08-0.019,0.161-0.038,0.241-0.052c0.158-0.023,0.321-0.052,0.491-0.083
		c0.182-0.023,0.331-0.033,0.416-0.023c0.071,0.255-0.401,0.729-0.401,0.729c0.25-0.102,0.972-0.76,1.13-0.906
		c0.026,0,0.049,0,0.068,0.005c0.193,0.241-0.502,0.92-0.179,0.729c0.236-0.134,0.51-0.488,0.656-0.691
		c0.201,0.435,0.062,1.331,0.071,1.51c0.104,0.167,0.25-1.755,0.618-0.831c0.371,0.923,2.067,2.199,1.997,2.051
		c-0.585-0.507-1.022-1.253-1.317-1.89c0.17-0.302,0.623-0.547,0.892-0.727c-0.085,0.293,0.038,0.297,0.038,0.297
		c0.175,0.042,0.345-0.061,0.5-0.229c0.007-0.007,0.014-0.017,0.019-0.024c0.005-0.004,0.007-0.007,0.012-0.012
		c0.009-0.014,0.019-0.028,0.03-0.042c0.028-0.057,0.066-0.108,0.113-0.148c0.288-0.422,0.5-0.996,0.536-1.095
		c0.017,0.017,0.125,0.087,0.059,0.305c-0.062,0.217-0.099,0.462,0.054,0.576c0.161,0.066,0.309-0.073,0.439-0.267
		c0.036-0.04,0.073-0.099,0.106-0.177c0.009-0.021,0.019-0.04,0.028-0.061c0.075-0.156,0.142-0.309,0.184-0.406
		c0.123-0.278,0.368-0.401,0.321-0.231c-0.045,0.167-0.01,0.432,0.165,0.281c0.172-0.151,0.208-0.139,0.368-0.371
		c0.172-0.227,0.297-0.469,0.297-0.469c0.161-0.059,0.307-0.085,0.434-0.092c0.121,0.009,0.255,0.038,0.401,0.09
		c0,0,0.127,0.241,0.297,0.469c0.16,0.231,0.198,0.22,0.371,0.371c0.172,0.151,0.21-0.113,0.162-0.281
		c-0.047-0.167,0.201-0.045,0.323,0.231c0.043,0.097,0.106,0.252,0.182,0.408c0.01,0.019,0.02,0.038,0.028,0.059
		c0.033,0.078,0.071,0.134,0.109,0.177c0.127,0.193,0.275,0.333,0.437,0.267c0.155-0.113,0.115-0.361,0.054-0.578
		c-0.065-0.215,0.043-0.288,0.062-0.302c0.028,0.09,0.203,0.562,0.448,0.963c0.007,0.009,0.015,0.019,0.023,0.031
		c0.003,0.007,0.008,0.012,0.01,0.019c0.005,0.002,0.005,0.002,0.005,0.002c0.035,0.036,0.065,0.076,0.092,0.113
		c0.023,0.033,0.035,0.071,0.055,0.104c0.03,0.038,0.061,0.076,0.094,0.108c0.012,0.01,0.023,0.021,0.033,0.033
		c0.142,0.137,0.293,0.215,0.448,0.179c0,0,0.123-0.007,0.038-0.302c0.269,0.179,0.725,0.425,0.895,0.727
		c-0.295,0.642-0.734,1.388-1.319,1.893c-0.071,0.148,1.626-1.128,1.996-2.053c0.368-0.923,0.515,1,0.618,0.835
		c0.012-0.184-0.13-1.076,0.071-1.515c0.148,0.208,0.422,0.557,0.655,0.694c0.323,0.188-0.372-0.491-0.179-0.729
		c0.019-0.002,0.045-0.007,0.07-0.007c0.156,0.146,0.878,0.807,1.128,0.906c0,0-0.472-0.472-0.401-0.727
		c0.085-0.009,0.236,0,0.418,0.023c0.168,0.028,0.333,0.057,0.491,0.081c0.077,0.019,0.158,0.035,0.238,0.052
		c0.29,0.085,0.628,0.179,0.963,0.283c0.153,0.189,0.32,0.458,0.412,0.791c0.003,0.066,0.005,0.134,0.005,0.205
		C25.817,13.125,25.782,13.514,25.714,13.913z M31.483,8.014c-0.16,0.819-0.553,1.517-1.135,2.022
		c-0.028,0.023-0.057,0.045-0.083,0.068c0.345-0.609,0.392-1.333,0.273-1.331c-0.16,0.956-0.613,1.529-1.047,1.871
		c-0.478,0.278-0.991,0.472-1.562,0.585c-0.187,0.028-0.354,0.033-0.5,0.028h0.005c0,0-0.005,0-0.015,0
		c-0.17-0.002-0.307-0.021-0.387-0.04c-0.106-0.026-0.175-0.068-0.205-0.134c-0.043-0.09,0.002-0.184,0.002-0.184l-0.028-0.019
		c-0.09,0.099-0.115,0.175-0.115,0.175c-0.069,0.233,0.03,0.434,0.035,0.443l0,0c0.037,0.083,0.118,0.198,0.255,0.319
		c0.134,0.12,0.304,0.229,0.51,0.342c0,0-0.901-0.042-1.666-0.704c-0.768-0.665-0.395-0.25-1.741-0.415
		c-0.524-0.064-0.902-0.113-1.171-0.146c-0.203-0.042-0.425-0.087-0.648-0.137c-0.423-0.113-0.781-0.236-1.02-0.331
		c-0.428-0.188-0.606-0.342-0.611-0.344l-0.033-0.028l0.005,0.042c-0.01,0.004-0.015,0.023-0.01,0.052
		c0.015,0.102,0.283,0.717,0.295,0.92c-0.132-0.059-0.285-0.158-0.441-0.274c-0.358-0.34-0.74-0.802-0.905-1.085
		c-0.166-0.281-0.401-1.041-0.395-0.877c0.007,0.165,0.038,0.986,0.09,1.59c-0.003,0.031-0.003,0.061-0.003,0.094
		c0,0.062,0.003,0.12,0.01,0.184l-0.007,0.014c-0.102-0.252-0.281-0.703-0.39-0.946c-0.137-0.408-0.248-0.696-0.33-0.895
		c-0.104-0.295-0.188-0.741-0.245-0.746c-0.055-0.007-0.163,1.869-0.175,2.138c-0.111-0.161-0.203-0.349-0.288-0.526
		c-0.071-0.144-0.562-1.267-0.637-1.295c-0.076-0.028-0.1,0.783-0.123,1.142c-0.314-0.439-0.425-0.689-0.59-1.081
		c-0.014-0.028-0.028-0.062-0.042-0.095l-0.139-0.34c-0.017-0.042-0.033-0.089-0.05-0.137c-0.012-0.038-0.028-0.066-0.045-0.09
		l-0.017-0.042h-0.033c-0.038-0.019-0.078-0.019-0.113,0h-0.054c-0.026,0.083-0.055,0.163-0.085,0.239
		c-0.038,0.092-0.087,0.21-0.132,0.313c-0.026,0.057-0.049,0.109-0.068,0.156c-0.014,0.038-0.031,0.073-0.047,0.109
		c-0.004,0.014-0.007,0.023-0.007,0.023l0,0c-0.139,0.321-0.257,0.557-0.536,0.946c-0.024-0.359-0.045-1.168-0.123-1.145
		C14.89,8.474,14.399,9.6,14.331,9.744c-0.085,0.175-0.177,0.366-0.288,0.524c-0.014-0.269-0.121-2.143-0.177-2.138
		c-0.057,0.01-0.139,0.453-0.243,0.746c-0.083,0.198-0.194,0.491-0.333,0.897c-0.108,0.241-0.288,0.694-0.387,0.949l-0.01-0.019
		c0.01-0.062,0.01-0.123,0.01-0.182c0-0.031,0-0.064,0-0.094c0.052-0.606,0.08-1.428,0.089-1.588
		C13,8.672,12.762,9.432,12.596,9.715c-0.165,0.283-0.545,0.741-0.906,1.083c-0.156,0.116-0.307,0.215-0.441,0.274
		c0.012-0.201,0.281-0.819,0.297-0.918c0.005-0.033,0-0.05-0.012-0.054l0.004-0.045l-0.033,0.031
		c-0.002,0.002-0.184,0.158-0.609,0.347c-0.241,0.094-0.6,0.212-1.02,0.331c-0.996,0.208-1.869,0.358-1.869,0.358
		s-0.206,0.042-0.456,0.094c-0.743,0.024-0.592-0.184-1.201,0.34c-0.038,0.026-0.075,0.052-0.123,0.081
		c-0.203,0.132-0.925,0.453-1.284,0.5c-0.035,0.007-0.068,0.014-0.102,0.017c-0.066,0.007-0.13,0.007-0.193,0.007
		c0.187-0.099,0.297-0.156,0.408-0.239c0.108-0.083,0.161-0.137,0.236-0.227c0.073-0.087,0.118-0.186,0.118-0.196
		c0.005-0.007,0.104-0.208,0.038-0.438c0-0.002-0.026-0.078-0.118-0.18L5.305,10.9c0,0,0.047,0.099,0.004,0.188
		c-0.033,0.062-0.099,0.109-0.205,0.132c-0.153,0.036-0.488,0.071-0.897,0.014c-0.573-0.118-1.087-0.309-1.562-0.585
		c-0.437-0.345-0.89-0.92-1.05-1.874c-0.118-0.002-0.071,0.722,0.276,1.331c-0.028-0.023-0.057-0.047-0.083-0.071
		c-0.581-0.5-0.972-1.199-1.133-2.013C0.614,7.072,0.914,6.341,0.914,6.341c0.472-1.312,2.065-2.062,2.426-2.133
		c0.363-0.066,0.975-0.13,1.265-0.038C3.969,4.212,3.538,4.439,2.931,4.798C2.686,4.944,1.891,5.492,1.891,6.494
		c0,0.012,0,0.021,0,0.033v0.012c0,0.288,0.163,0.899,0.286,1.359c0.123,0.462,0.188,0.458,0.217,0.446
		C2.419,8.333,2.4,8.255,2.381,8.129C2.362,8.002,2.476,7.873,2.613,8.007c0.139,0.137,0.536,0.434,0.583,0.462
		c0.755,0.477,1.85,0.51,3.349,0.104c1.31-0.359,2.707-1,3.11-1.175c0.404-0.174,0.93-0.46,0.97-0.481
		c-0.03,0.038-0.059,0.081-0.083,0.125c-0.163,0.309-0.139,0.583-0.083,0.488c0.057-0.09,0.524-0.717,0.524-0.717
		c-0.212,0.474-0.108,0.765-0.066,0.703c0.004-0.005,0.009-0.017,0.014-0.031c0.012-0.021,0.033-0.054,0.057-0.125
		c0.044-0.142,0.505-1.156,1.439-0.994c-0.241,0.252-0.257,0.819-0.257,0.819c0.083,0.269,0.224,0.062,0.224,0.062
		c0.288-0.797,0.92-1.225,0.92-1.225c1.081-0.564,1.772-0.302,2.192,0.087c0.13,0.203,0.385,0.646,0.361,1.104
		c0,0,0.13,0.25,0.375,0.047c0,0-0.026-0.687,0.262-1.012c0.071-0.078,0.109-0.135,0.127-0.172c0.42-0.392,1.114-0.654,2.19-0.09
		c0,0,0.633,0.43,0.92,1.227c0,0,0.142,0.203,0.225-0.061c0,0-0.017-0.538-0.238-0.8c0.92-0.148,1.378,0.854,1.423,0.994
		c0.021,0.062,0.04,0.099,0.052,0.118c0.007,0.023,0.012,0.042,0.017,0.049c0.042,0.059,0.146-0.229-0.063-0.701
		c0,0,0.465,0.623,0.521,0.717c0.057,0.09,0.08-0.179-0.08-0.491c-0.026-0.045-0.053-0.087-0.083-0.127
		c0.038,0.023,0.566,0.307,0.97,0.483c0.401,0.175,1.798,0.819,3.11,1.173c1.496,0.411,2.591,0.375,3.349-0.102
		c0.044-0.026,0.443-0.323,0.58-0.46S29.772,8,29.756,8.125c-0.019,0.127-0.038,0.205-0.012,0.217s0.092,0.014,0.215-0.446
		c0.125-0.46,0.285-1.074,0.285-1.359V6.525c0.003-0.012,0.003-0.023,0.003-0.033c0-1-0.798-1.548-1.043-1.694
		c-0.606-0.359-1.038-0.59-1.673-0.628c0.247-0.08,0.606-0.144,0.852-0.085c0.405,0.187,2.244,0.632,2.841,2.289
		C31.224,6.374,31.514,7.082,31.483,8.014z M29.324,4.123c0.257-0.062,0.507-0.099,0.847,0.113c0.076,0.047,0.441,0.321,0.524,0.401
		c0.533,0.519,0.868,1.491,0.868,2.508C31.387,6.261,30.854,4.576,29.324,4.123z"/>
	<path fill="#010101" d="M14.253,26.898c0,0-0.547-0.873-0.543-0.859C13.694,25.997,14.253,26.898,14.253,26.898z"/>
	<path fill="#010101" d="M18.425,26.037c0.005-0.012,0.015-0.025,0.015-0.033C18.448,25.983,18.441,25.997,18.425,26.037z"/>
	<path fill="#010101" d="M15.855,14.204c-0.941,0.08-2.395,0.08-2.914,0.924c0,0-0.071,0.043-0.071-0.037
		c0-0.078,0.396-0.861,0.793-0.93C13.663,14.161,16.797,14.123,15.855,14.204z"/>
	<path fill="#010101" d="M16.245,14.204c0.944,0.08,2.397,0.08,2.917,0.924c0,0,0.07,0.043,0.07-0.037
		c0-0.078-0.396-0.861-0.792-0.93C18.439,14.161,15.305,14.123,16.245,14.204z"/>
	<path fill="#A17A2C" d="M15.475,6.263c0,0,0.807,0.368,1.201-0.087v1.548h-1.14L15.475,6.263z"/>
	<path fill="#A17A2C" d="M2.393,4.189"/>
</g>
</svg>
